<?xml version="1.0" standalone="no"?><!DOCTYPE svg PUBLIC "-//W3C//DTD SVG 1.1//EN" "http://www.w3.org/Graphics/SVG/1.1/DTD/svg11.dtd" ><svg xmlns="http://www.w3.org/2000/svg"><metadata></metadata><defs><font id="fonteditor" horiz-adv-x="1000"><font-face font-family="Dotted Songti Square" font-weight="500" font-stretch="normal" units-per-em="1000" panose-1="0 0 0 0 0 0 0 0 0 0" ascent="769" descent="-230" x-height="0" bbox="9 -299 915 761" underline-thickness="0" underline-position="0" unicode-range="U+0000-ff1f" /><missing-glyph horiz-adv-x="615"  /><glyph glyph-name="quotesingle" unicode="&#39;" d="M162 684 L222 684 L222 624 L162 624 L162 684 ZM162 607 L222 607 L222 547 L162 547 L162 607 ZM162 530 L222 530 L222 470 L162 470 L162 530 Z" /><glyph glyph-name="asterisk" unicode="*" d="M239 530 L299 530 L299 470 L239 470 L239 530 ZM85 453 L145 453 L145 393 L85 393 L85 453 ZM239 453 L299 453 L299 393 L239 393 L239 453 ZM393 453 L453 453 L453 393 L393 393 L393 453 ZM162 376 L222 376 L222 316 L162 316 L162 376 ZM239 376 L299 376 L299 316 L239 316 L239 376 ZM316 376 L376 376 L376 316 L316 316 L316 376 ZM9 299 L68 299 L68 239 L9 239 L9 299 ZM85 299 L145 299 L145 239 L85 239 L85 299 ZM162 299 L222 299 L222 239 L162 239 L162 299 ZM239 299 L299 299 L299 239 L239 239 L239 299 ZM316 299 L376 299 L376 239 L316 239 L316 299 ZM393 299 L453 299 L453 239 L393 239 L393 299 ZM470 299 L530 299 L530 239 L470 239 L470 299 ZM162 222 L222 222 L222 162 L162 162 L162 222 ZM239 222 L299 222 L299 162 L239 162 L239 222 ZM316 222 L376 222 L376 162 L316 162 L316 222 ZM85 145 L145 145 L145 85 L85 85 L85 145 ZM239 145 L299 145 L299 85 L239 85 L239 145 ZM393 145 L453 145 L453 85 L393 85 L393 145 ZM239 68 L299 68 L299 9 L239 9 L239 68 Z" /><glyph glyph-name="hyphen" unicode="-" d="M9 299 L68 299 L68 239 L9 239 L9 299 ZM85 299 L145 299 L145 239 L85 239 L85 299 ZM162 299 L222 299 L222 239 L162 239 L162 299 ZM239 299 L299 299 L299 239 L239 239 L239 299 ZM316 299 L376 299 L376 239 L316 239 L316 299 ZM393 299 L453 299 L453 239 L393 239 L393 299 Z" /><glyph glyph-name="period" unicode="." d="M85 -9 L145 -9 L145 -68 L85 -68 L85 -9 ZM162 -9 L222 -9 L222 -68 L162 -68 L162 -9 ZM85 -85 L145 -85 L145 -145 L85 -145 L85 -85 ZM162 -85 L222 -85 L222 -145 L162 -145 L162 -85 Z" /><glyph glyph-name="slash" unicode="/" d="M393 684 L453 684 L453 624 L393 624 L393 684 ZM393 607 L453 607 L453 547 L393 547 L393 607 ZM316 530 L376 530 L376 470 L316 470 L316 530 ZM316 453 L376 453 L376 393 L316 393 L316 453 ZM239 376 L299 376 L299 316 L239 316 L239 376 ZM239 299 L299 299 L299 239 L239 239 L239 299 ZM162 222 L222 222 L222 162 L162 162 L162 222 ZM162 145 L222 145 L222 85 L162 85 L162 145 ZM85 68 L145 68 L145 9 L85 9 L85 68 ZM85 -9 L145 -9 L145 -68 L85 -68 L85 -9 ZM9 -85 L68 -85 L68 -145 L9 -145 L9 -85 ZM9 -162 L68 -162 L68 -222 L9 -222 L9 -162 Z" /><glyph glyph-name="zero" unicode="0" d="M85 607 L145 607 L145 547 L85 547 L85 607 ZM162 607 L222 607 L222 547 L162 547 L162 607 ZM239 607 L299 607 L299 547 L239 547 L239 607 ZM316 607 L376 607 L376 547 L316 547 L316 607 ZM9 530 L68 530 L68 470 L9 470 L9 530 ZM393 530 L453 530 L453 470 L393 470 L393 530 ZM9 453 L68 453 L68 393 L9 393 L9 453 ZM393 453 L453 453 L453 393 L393 393 L393 453 ZM9 376 L68 376 L68 316 L9 316 L9 376 ZM393 376 L453 376 L453 316 L393 316 L393 376 ZM9 299 L68 299 L68 239 L9 239 L9 299 ZM393 299 L453 299 L453 239 L393 239 L393 299 ZM9 222 L68 222 L68 162 L9 162 L9 222 ZM393 222 L453 222 L453 162 L393 162 L393 222 ZM9 145 L68 145 L68 85 L9 85 L9 145 ZM393 145 L453 145 L453 85 L393 85 L393 145 ZM9 68 L68 68 L68 9 L9 9 L9 68 ZM393 68 L453 68 L453 9 L393 9 L393 68 ZM85 -9 L145 -9 L145 -68 L85 -68 L85 -9 ZM162 -9 L222 -9 L222 -68 L162 -68 L162 -9 ZM239 -9 L299 -9 L299 -68 L239 -68 L239 -9 ZM316 -9 L376 -9 L376 -68 L316 -68 L316 -9 Z" /><glyph glyph-name="one" unicode="1" d="M9 607 L68 607 L68 547 L9 547 L9 607 ZM85 607 L145 607 L145 547 L85 547 L85 607 ZM162 607 L222 607 L222 547 L162 547 L162 607 ZM162 530 L222 530 L222 470 L162 470 L162 530 ZM162 453 L222 453 L222 393 L162 393 L162 453 ZM162 376 L222 376 L222 316 L162 316 L162 376 ZM162 299 L222 299 L222 239 L162 239 L162 299 ZM162 222 L222 222 L222 162 L162 162 L162 222 ZM162 145 L222 145 L222 85 L162 85 L162 145 ZM162 68 L222 68 L222 9 L162 9 L162 68 ZM9 -9 L68 -9 L68 -68 L9 -68 L9 -9 ZM85 -9 L145 -9 L145 -68 L85 -68 L85 -9 ZM162 -9 L222 -9 L222 -68 L162 -68 L162 -9 ZM239 -9 L299 -9 L299 -68 L239 -68 L239 -9 ZM316 -9 L376 -9 L376 -68 L316 -68 L316 -9 Z" /><glyph glyph-name="two" unicode="2" d="M85 607 L145 607 L145 547 L85 547 L85 607 ZM162 607 L222 607 L222 547 L162 547 L162 607 ZM239 607 L299 607 L299 547 L239 547 L239 607 ZM316 607 L376 607 L376 547 L316 547 L316 607 ZM9 530 L68 530 L68 470 L9 470 L9 530 ZM393 530 L453 530 L453 470 L393 470 L393 530 ZM9 453 L68 453 L68 393 L9 393 L9 453 ZM393 453 L453 453 L453 393 L393 393 L393 453 ZM316 376 L376 376 L376 316 L316 316 L316 376 ZM239 299 L299 299 L299 239 L239 239 L239 299 ZM162 222 L222 222 L222 162 L162 162 L162 222 ZM85 145 L145 145 L145 85 L85 85 L85 145 ZM9 68 L68 68 L68 9 L9 9 L9 68 ZM9 -9 L68 -9 L68 -68 L9 -68 L9 -9 ZM85 -9 L145 -9 L145 -68 L85 -68 L85 -9 ZM162 -9 L222 -9 L222 -68 L162 -68 L162 -9 ZM239 -9 L299 -9 L299 -68 L239 -68 L239 -9 ZM316 -9 L376 -9 L376 -68 L316 -68 L316 -9 ZM393 -9 L453 -9 L453 -68 L393 -68 L393 -9 Z" /><glyph glyph-name="three" unicode="3" d="M85 607 L145 607 L145 547 L85 547 L85 607 ZM162 607 L222 607 L222 547 L162 547 L162 607 ZM239 607 L299 607 L299 547 L239 547 L239 607 ZM316 607 L376 607 L376 547 L316 547 L316 607 ZM9 530 L68 530 L68 470 L9 470 L9 530 ZM393 530 L453 530 L453 470 L393 470 L393 530 ZM393 453 L453 453 L453 393 L393 393 L393 453 ZM393 376 L453 376 L453 316 L393 316 L393 376 ZM162 299 L222 299 L222 239 L162 239 L162 299 ZM239 299 L299 299 L299 239 L239 239 L239 299 ZM316 299 L376 299 L376 239 L316 239 L316 299 ZM393 222 L453 222 L453 162 L393 162 L393 222 ZM393 145 L453 145 L453 85 L393 85 L393 145 ZM9 68 L68 68 L68 9 L9 9 L9 68 ZM393 68 L453 68 L453 9 L393 9 L393 68 ZM85 -9 L145 -9 L145 -68 L85 -68 L85 -9 ZM162 -9 L222 -9 L222 -68 L162 -68 L162 -9 ZM239 -9 L299 -9 L299 -68 L239 -68 L239 -9 ZM316 -9 L376 -9 L376 -68 L316 -68 L316 -9 Z" /><glyph glyph-name="six" unicode="6" d="M85 607 L145 607 L145 547 L85 547 L85 607 ZM162 607 L222 607 L222 547 L162 547 L162 607 ZM239 607 L299 607 L299 547 L239 547 L239 607 ZM316 607 L376 607 L376 547 L316 547 L316 607 ZM9 530 L68 530 L68 470 L9 470 L9 530 ZM393 530 L453 530 L453 470 L393 470 L393 530 ZM9 453 L68 453 L68 393 L9 393 L9 453 ZM9 376 L68 376 L68 316 L9 316 L9 376 ZM162 376 L222 376 L222 316 L162 316 L162 376 ZM239 376 L299 376 L299 316 L239 316 L239 376 ZM316 376 L376 376 L376 316 L316 316 L316 376 ZM9 299 L68 299 L68 239 L9 239 L9 299 ZM85 299 L145 299 L145 239 L85 239 L85 299 ZM393 299 L453 299 L453 239 L393 239 L393 299 ZM9 222 L68 222 L68 162 L9 162 L9 222 ZM393 222 L453 222 L453 162 L393 162 L393 222 ZM9 145 L68 145 L68 85 L9 85 L9 145 ZM393 145 L453 145 L453 85 L393 85 L393 145 ZM9 68 L68 68 L68 9 L9 9 L9 68 ZM393 68 L453 68 L453 9 L393 9 L393 68 ZM85 -9 L145 -9 L145 -68 L85 -68 L85 -9 ZM162 -9 L222 -9 L222 -68 L162 -68 L162 -9 ZM239 -9 L299 -9 L299 -68 L239 -68 L239 -9 ZM316 -9 L376 -9 L376 -68 L316 -68 L316 -9 Z" /><glyph glyph-name="nine" unicode="9" d="M85 607 L145 607 L145 547 L85 547 L85 607 ZM162 607 L222 607 L222 547 L162 547 L162 607 ZM239 607 L299 607 L299 547 L239 547 L239 607 ZM316 607 L376 607 L376 547 L316 547 L316 607 ZM9 530 L68 530 L68 470 L9 470 L9 530 ZM393 530 L453 530 L453 470 L393 470 L393 530 ZM9 453 L68 453 L68 393 L9 393 L9 453 ZM393 453 L453 453 L453 393 L393 393 L393 453 ZM9 376 L68 376 L68 316 L9 316 L9 376 ZM393 376 L453 376 L453 316 L393 316 L393 376 ZM85 299 L145 299 L145 239 L85 239 L85 299 ZM162 299 L222 299 L222 239 L162 239 L162 299 ZM239 299 L299 299 L299 239 L239 239 L239 299 ZM316 299 L376 299 L376 239 L316 239 L316 299 ZM393 299 L453 299 L453 239 L393 239 L393 299 ZM393 222 L453 222 L453 162 L393 162 L393 222 ZM393 145 L453 145 L453 85 L393 85 L393 145 ZM9 68 L68 68 L68 9 L9 9 L9 68 ZM393 68 L453 68 L453 9 L393 9 L393 68 ZM85 -9 L145 -9 L145 -68 L85 -68 L85 -9 ZM162 -9 L222 -9 L222 -68 L162 -68 L162 -9 ZM239 -9 L299 -9 L299 -68 L239 -68 L239 -9 ZM316 -9 L376 -9 L376 -68 L316 -68 L316 -9 Z" /><glyph glyph-name="A" unicode="a" d="M239 607 L299 607 L299 547 L239 547 L239 607 ZM316 607 L376 607 L376 547 L316 547 L316 607 ZM239 530 L299 530 L299 470 L239 470 L239 530 ZM316 530 L376 530 L376 470 L316 470 L316 530 ZM162 453 L222 453 L222 393 L162 393 L162 453 ZM393 453 L453 453 L453 393 L393 393 L393 453 ZM162 376 L222 376 L222 316 L162 316 L162 376 ZM393 376 L453 376 L453 316 L393 316 L393 376 ZM85 299 L145 299 L145 239 L85 239 L85 299 ZM470 299 L530 299 L530 239 L470 239 L470 299 ZM85 222 L145 222 L145 162 L85 162 L85 222 ZM470 222 L530 222 L530 162 L470 162 L470 222 ZM85 145 L145 145 L145 85 L85 85 L85 145 ZM162 145 L222 145 L222 85 L162 85 L162 145 ZM239 145 L299 145 L299 85 L239 85 L239 145 ZM316 145 L376 145 L376 85 L316 85 L316 145 ZM393 145 L453 145 L453 85 L393 85 L393 145 ZM470 145 L530 145 L530 85 L470 85 L470 145 ZM9 68 L68 68 L68 9 L9 9 L9 68 ZM547 68 L607 68 L607 9 L547 9 L547 68 ZM9 -9 L68 -9 L68 -68 L9 -68 L9 -9 ZM547 -9 L607 -9 L607 -68 L547 -68 L547 -9 Z" /><glyph glyph-name="B" unicode="b" d="M9 607 L68 607 L68 547 L9 547 L9 607 ZM85 607 L145 607 L145 547 L85 547 L85 607 ZM162 607 L222 607 L222 547 L162 547 L162 607 ZM239 607 L299 607 L299 547 L239 547 L239 607 ZM316 607 L376 607 L376 547 L316 547 L316 607 ZM9 530 L68 530 L68 470 L9 470 L9 530 ZM393 530 L453 530 L453 470 L393 470 L393 530 ZM9 453 L68 453 L68 393 L9 393 L9 453 ZM393 453 L453 453 L453 393 L393 393 L393 453 ZM9 376 L68 376 L68 316 L9 316 L9 376 ZM393 376 L453 376 L453 316 L393 316 L393 376 ZM9 299 L68 299 L68 239 L9 239 L9 299 ZM85 299 L145 299 L145 239 L85 239 L85 299 ZM162 299 L222 299 L222 239 L162 239 L162 299 ZM239 299 L299 299 L299 239 L239 239 L239 299 ZM316 299 L376 299 L376 239 L316 239 L316 299 ZM9 222 L68 222 L68 162 L9 162 L9 222 ZM393 222 L453 222 L453 162 L393 162 L393 222 ZM9 145 L68 145 L68 85 L9 85 L9 145 ZM393 145 L453 145 L453 85 L393 85 L393 145 ZM9 68 L68 68 L68 9 L9 9 L9 68 ZM393 68 L453 68 L453 9 L393 9 L393 68 ZM9 -9 L68 -9 L68 -68 L9 -68 L9 -9 ZM85 -9 L145 -9 L145 -68 L85 -68 L85 -9 ZM162 -9 L222 -9 L222 -68 L162 -68 L162 -9 ZM239 -9 L299 -9 L299 -68 L239 -68 L239 -9 ZM316 -9 L376 -9 L376 -68 L316 -68 L316 -9 Z" /><glyph glyph-name="C" unicode="c" d="M162 607 L222 607 L222 547 L162 547 L162 607 ZM239 607 L299 607 L299 547 L239 547 L239 607 ZM316 607 L376 607 L376 547 L316 547 L316 607 ZM393 607 L453 607 L453 547 L393 547 L393 607 ZM85 530 L145 530 L145 470 L85 470 L85 530 ZM9 453 L68 453 L68 393 L9 393 L9 453 ZM9 376 L68 376 L68 316 L9 316 L9 376 ZM9 299 L68 299 L68 239 L9 239 L9 299 ZM9 222 L68 222 L68 162 L9 162 L9 222 ZM9 145 L68 145 L68 85 L9 85 L9 145 ZM85 68 L145 68 L145 9 L85 9 L85 68 ZM162 -9 L222 -9 L222 -68 L162 -68 L162 -9 ZM239 -9 L299 -9 L299 -68 L239 -68 L239 -9 ZM316 -9 L376 -9 L376 -68 L316 -68 L316 -9 ZM393 -9 L453 -9 L453 -68 L393 -68 L393 -9 Z" /><glyph glyph-name="D" unicode="d" d="M9 607 L68 607 L68 547 L9 547 L9 607 ZM85 607 L145 607 L145 547 L85 547 L85 607 ZM162 607 L222 607 L222 547 L162 547 L162 607 ZM239 607 L299 607 L299 547 L239 547 L239 607 ZM316 607 L376 607 L376 547 L316 547 L316 607 ZM9 530 L68 530 L68 470 L9 470 L9 530 ZM393 530 L453 530 L453 470 L393 470 L393 530 ZM9 453 L68 453 L68 393 L9 393 L9 453 ZM470 453 L530 453 L530 393 L470 393 L470 453 ZM9 376 L68 376 L68 316 L9 316 L9 376 ZM470 376 L530 376 L530 316 L470 316 L470 376 ZM9 299 L68 299 L68 239 L9 239 L9 299 ZM470 299 L530 299 L530 239 L470 239 L470 299 ZM9 222 L68 222 L68 162 L9 162 L9 222 ZM470 222 L530 222 L530 162 L470 162 L470 222 ZM9 145 L68 145 L68 85 L9 85 L9 145 ZM470 145 L530 145 L530 85 L470 85 L470 145 ZM9 68 L68 68 L68 9 L9 9 L9 68 ZM393 68 L453 68 L453 9 L393 9 L393 68 ZM9 -9 L68 -9 L68 -68 L9 -68 L9 -9 ZM85 -9 L145 -9 L145 -68 L85 -68 L85 -9 ZM162 -9 L222 -9 L222 -68 L162 -68 L162 -9 ZM239 -9 L299 -9 L299 -68 L239 -68 L239 -9 ZM316 -9 L376 -9 L376 -68 L316 -68 L316 -9 Z" /><glyph glyph-name="E" unicode="e" d="M9 607 L68 607 L68 547 L9 547 L9 607 ZM85 607 L145 607 L145 547 L85 547 L85 607 ZM162 607 L222 607 L222 547 L162 547 L162 607 ZM239 607 L299 607 L299 547 L239 547 L239 607 ZM316 607 L376 607 L376 547 L316 547 L316 607 ZM393 607 L453 607 L453 547 L393 547 L393 607 ZM9 530 L68 530 L68 470 L9 470 L9 530 ZM9 453 L68 453 L68 393 L9 393 L9 453 ZM9 376 L68 376 L68 316 L9 316 L9 376 ZM9 299 L68 299 L68 239 L9 239 L9 299 ZM85 299 L145 299 L145 239 L85 239 L85 299 ZM162 299 L222 299 L222 239 L162 239 L162 299 ZM239 299 L299 299 L299 239 L239 239 L239 299 ZM316 299 L376 299 L376 239 L316 239 L316 299 ZM9 222 L68 222 L68 162 L9 162 L9 222 ZM9 145 L68 145 L68 85 L9 85 L9 145 ZM9 68 L68 68 L68 9 L9 9 L9 68 ZM9 -9 L68 -9 L68 -68 L9 -68 L9 -9 ZM85 -9 L145 -9 L145 -68 L85 -68 L85 -9 ZM162 -9 L222 -9 L222 -68 L162 -68 L162 -9 ZM239 -9 L299 -9 L299 -68 L239 -68 L239 -9 ZM316 -9 L376 -9 L376 -68 L316 -68 L316 -9 ZM393 -9 L453 -9 L453 -68 L393 -68 L393 -9 Z" /><glyph glyph-name="G" unicode="g" d="M162 607 L222 607 L222 547 L162 547 L162 607 ZM239 607 L299 607 L299 547 L239 547 L239 607 ZM316 607 L376 607 L376 547 L316 547 L316 607 ZM393 607 L453 607 L453 547 L393 547 L393 607 ZM85 530 L145 530 L145 470 L85 470 L85 530 ZM470 530 L530 530 L530 470 L470 470 L470 530 ZM9 453 L68 453 L68 393 L9 393 L9 453 ZM9 376 L68 376 L68 316 L9 316 L9 376 ZM9 299 L68 299 L68 239 L9 239 L9 299 ZM316 299 L376 299 L376 239 L316 239 L316 299 ZM393 299 L453 299 L453 239 L393 239 L393 299 ZM470 299 L530 299 L530 239 L470 239 L470 299 ZM9 222 L68 222 L68 162 L9 162 L9 222 ZM470 222 L530 222 L530 162 L470 162 L470 222 ZM9 145 L68 145 L68 85 L9 85 L9 145 ZM470 145 L530 145 L530 85 L470 85 L470 145 ZM85 68 L145 68 L145 9 L85 9 L85 68 ZM470 68 L530 68 L530 9 L470 9 L470 68 ZM162 -9 L222 -9 L222 -68 L162 -68 L162 -9 ZM239 -9 L299 -9 L299 -68 L239 -68 L239 -9 ZM316 -9 L376 -9 L376 -68 L316 -68 L316 -9 ZM393 -9 L453 -9 L453 -68 L393 -68 L393 -9 ZM470 -9 L530 -9 L530 -68 L470 -68 L470 -9 Z" /><glyph glyph-name="I" unicode="i" d="M9 607 L68 607 L68 547 L9 547 L9 607 ZM85 607 L145 607 L145 547 L85 547 L85 607 ZM162 607 L222 607 L222 547 L162 547 L162 607 ZM85 530 L145 530 L145 470 L85 470 L85 530 ZM85 453 L145 453 L145 393 L85 393 L85 453 ZM85 376 L145 376 L145 316 L85 316 L85 376 ZM85 299 L145 299 L145 239 L85 239 L85 299 ZM85 222 L145 222 L145 162 L85 162 L85 222 ZM85 145 L145 145 L145 85 L85 85 L85 145 ZM85 68 L145 68 L145 9 L85 9 L85 68 ZM9 -9 L68 -9 L68 -68 L9 -68 L9 -9 ZM85 -9 L145 -9 L145 -68 L85 -68 L85 -9 ZM162 -9 L222 -9 L222 -68 L162 -68 L162 -9 Z" /><glyph glyph-name="J" unicode="j" d="M162 607 L222 607 L222 547 L162 547 L162 607 ZM162 530 L222 530 L222 470 L162 470 L162 530 ZM162 453 L222 453 L222 393 L162 393 L162 453 ZM162 376 L222 376 L222 316 L162 316 L162 376 ZM162 299 L222 299 L222 239 L162 239 L162 299 ZM162 222 L222 222 L222 162 L162 162 L162 222 ZM162 145 L222 145 L222 85 L162 85 L162 145 ZM162 68 L222 68 L222 9 L162 9 L162 68 ZM162 -9 L222 -9 L222 -68 L162 -68 L162 -9 ZM162 -85 L222 -85 L222 -145 L162 -145 L162 -85 ZM162 -162 L222 -162 L222 -222 L162 -222 L162 -162 ZM9 -239 L68 -239 L68 -299 L9 -299 L9 -239 ZM85 -239 L145 -239 L145 -299 L85 -299 L85 -239 Z" /><glyph glyph-name="L" unicode="l" d="M9 607 L68 607 L68 547 L9 547 L9 607 ZM9 530 L68 530 L68 470 L9 470 L9 530 ZM9 453 L68 453 L68 393 L9 393 L9 453 ZM9 376 L68 376 L68 316 L9 316 L9 376 ZM9 299 L68 299 L68 239 L9 239 L9 299 ZM9 222 L68 222 L68 162 L9 162 L9 222 ZM9 145 L68 145 L68 85 L9 85 L9 145 ZM9 68 L68 68 L68 9 L9 9 L9 68 ZM9 -9 L68 -9 L68 -68 L9 -68 L9 -9 ZM85 -9 L145 -9 L145 -68 L85 -68 L85 -9 ZM162 -9 L222 -9 L222 -68 L162 -68 L162 -9 ZM239 -9 L299 -9 L299 -68 L239 -68 L239 -9 ZM316 -9 L376 -9 L376 -68 L316 -68 L316 -9 ZM393 -9 L453 -9 L453 -68 L393 -68 L393 -9 Z" /><glyph glyph-name="M" unicode="m" d="M9 607 L68 607 L68 547 L9 547 L9 607 ZM85 607 L145 607 L145 547 L85 547 L85 607 ZM470 607 L530 607 L530 547 L470 547 L470 607 ZM547 607 L607 607 L607 547 L547 547 L547 607 ZM9 530 L68 530 L68 470 L9 470 L9 530 ZM85 530 L145 530 L145 470 L85 470 L85 530 ZM470 530 L530 530 L530 470 L470 470 L470 530 ZM547 530 L607 530 L607 470 L547 470 L547 530 ZM9 453 L68 453 L68 393 L9 393 L9 453 ZM162 453 L222 453 L222 393 L162 393 L162 453 ZM393 453 L453 453 L453 393 L393 393 L393 453 ZM547 453 L607 453 L607 393 L547 393 L547 453 ZM9 376 L68 376 L68 316 L9 316 L9 376 ZM162 376 L222 376 L222 316 L162 316 L162 376 ZM393 376 L453 376 L453 316 L393 316 L393 376 ZM547 376 L607 376 L607 316 L547 316 L547 376 ZM9 299 L68 299 L68 239 L9 239 L9 299 ZM239 299 L299 299 L299 239 L239 239 L239 299 ZM316 299 L376 299 L376 239 L316 239 L316 299 ZM547 299 L607 299 L607 239 L547 239 L547 299 ZM9 222 L68 222 L68 162 L9 162 L9 222 ZM239 222 L299 222 L299 162 L239 162 L239 222 ZM316 222 L376 222 L376 162 L316 162 L316 222 ZM547 222 L607 222 L607 162 L547 162 L547 222 ZM9 145 L68 145 L68 85 L9 85 L9 145 ZM547 145 L607 145 L607 85 L547 85 L547 145 ZM9 68 L68 68 L68 9 L9 9 L9 68 ZM547 68 L607 68 L607 9 L547 9 L547 68 ZM9 -9 L68 -9 L68 -68 L9 -68 L9 -9 ZM547 -9 L607 -9 L607 -68 L547 -68 L547 -9 Z" /><glyph glyph-name="N" unicode="n" d="M9 607 L68 607 L68 547 L9 547 L9 607 ZM85 607 L145 607 L145 547 L85 547 L85 607 ZM470 607 L530 607 L530 547 L470 547 L470 607 ZM9 530 L68 530 L68 470 L9 470 L9 530 ZM85 530 L145 530 L145 470 L85 470 L85 530 ZM470 530 L530 530 L530 470 L470 470 L470 530 ZM9 453 L68 453 L68 393 L9 393 L9 453 ZM162 453 L222 453 L222 393 L162 393 L162 453 ZM470 453 L530 453 L530 393 L470 393 L470 453 ZM9 376 L68 376 L68 316 L9 316 L9 376 ZM162 376 L222 376 L222 316 L162 316 L162 376 ZM470 376 L530 376 L530 316 L470 316 L470 376 ZM9 299 L68 299 L68 239 L9 239 L9 299 ZM239 299 L299 299 L299 239 L239 239 L239 299 ZM470 299 L530 299 L530 239 L470 239 L470 299 ZM9 222 L68 222 L68 162 L9 162 L9 222 ZM239 222 L299 222 L299 162 L239 162 L239 222 ZM470 222 L530 222 L530 162 L470 162 L470 222 ZM9 145 L68 145 L68 85 L9 85 L9 145 ZM316 145 L376 145 L376 85 L316 85 L316 145 ZM470 145 L530 145 L530 85 L470 85 L470 145 ZM9 68 L68 68 L68 9 L9 9 L9 68 ZM316 68 L376 68 L376 9 L316 9 L316 68 ZM470 68 L530 68 L530 9 L470 9 L470 68 ZM9 -9 L68 -9 L68 -68 L9 -68 L9 -9 ZM393 -9 L453 -9 L453 -68 L393 -68 L393 -9 ZM470 -9 L530 -9 L530 -68 L470 -68 L470 -9 Z" /><glyph glyph-name="O" unicode="o" d="M162 607 L222 607 L222 547 L162 547 L162 607 ZM239 607 L299 607 L299 547 L239 547 L239 607 ZM316 607 L376 607 L376 547 L316 547 L316 607 ZM85 530 L145 530 L145 470 L85 470 L85 530 ZM393 530 L453 530 L453 470 L393 470 L393 530 ZM9 453 L68 453 L68 393 L9 393 L9 453 ZM470 453 L530 453 L530 393 L470 393 L470 453 ZM9 376 L68 376 L68 316 L9 316 L9 376 ZM470 376 L530 376 L530 316 L470 316 L470 376 ZM9 299 L68 299 L68 239 L9 239 L9 299 ZM470 299 L530 299 L530 239 L470 239 L470 299 ZM9 222 L68 222 L68 162 L9 162 L9 222 ZM470 222 L530 222 L530 162 L470 162 L470 222 ZM9 145 L68 145 L68 85 L9 85 L9 145 ZM470 145 L530 145 L530 85 L470 85 L470 145 ZM85 68 L145 68 L145 9 L85 9 L85 68 ZM393 68 L453 68 L453 9 L393 9 L393 68 ZM162 -9 L222 -9 L222 -68 L162 -68 L162 -9 ZM239 -9 L299 -9 L299 -68 L239 -68 L239 -9 ZM316 -9 L376 -9 L376 -68 L316 -68 L316 -9 Z" /><glyph glyph-name="P" unicode="p" d="M9 607 L68 607 L68 547 L9 547 L9 607 ZM85 607 L145 607 L145 547 L85 547 L85 607 ZM162 607 L222 607 L222 547 L162 547 L162 607 ZM239 607 L299 607 L299 547 L239 547 L239 607 ZM316 607 L376 607 L376 547 L316 547 L316 607 ZM9 530 L68 530 L68 470 L9 470 L9 530 ZM393 530 L453 530 L453 470 L393 470 L393 530 ZM9 453 L68 453 L68 393 L9 393 L9 453 ZM393 453 L453 453 L453 393 L393 393 L393 453 ZM9 376 L68 376 L68 316 L9 316 L9 376 ZM393 376 L453 376 L453 316 L393 316 L393 376 ZM9 299 L68 299 L68 239 L9 239 L9 299 ZM393 299 L453 299 L453 239 L393 239 L393 299 ZM9 222 L68 222 L68 162 L9 162 L9 222 ZM85 222 L145 222 L145 162 L85 162 L85 222 ZM162 222 L222 222 L222 162 L162 162 L162 222 ZM239 222 L299 222 L299 162 L239 162 L239 222 ZM316 222 L376 222 L376 162 L316 162 L316 222 ZM9 145 L68 145 L68 85 L9 85 L9 145 ZM9 68 L68 68 L68 9 L9 9 L9 68 ZM9 -9 L68 -9 L68 -68 L9 -68 L9 -9 Z" /><glyph glyph-name="Q" unicode="q" d="M162 607 L222 607 L222 547 L162 547 L162 607 ZM239 607 L299 607 L299 547 L239 547 L239 607 ZM316 607 L376 607 L376 547 L316 547 L316 607 ZM85 530 L145 530 L145 470 L85 470 L85 530 ZM393 530 L453 530 L453 470 L393 470 L393 530 ZM9 453 L68 453 L68 393 L9 393 L9 453 ZM470 453 L530 453 L530 393 L470 393 L470 453 ZM9 376 L68 376 L68 316 L9 316 L9 376 ZM470 376 L530 376 L530 316 L470 316 L470 376 ZM9 299 L68 299 L68 239 L9 239 L9 299 ZM470 299 L530 299 L530 239 L470 239 L470 299 ZM9 222 L68 222 L68 162 L9 162 L9 222 ZM470 222 L530 222 L530 162 L470 162 L470 222 ZM9 145 L68 145 L68 85 L9 85 L9 145 ZM470 145 L530 145 L530 85 L470 85 L470 145 ZM85 68 L145 68 L145 9 L85 9 L85 68 ZM393 68 L453 68 L453 9 L393 9 L393 68 ZM162 -9 L222 -9 L222 -68 L162 -68 L162 -9 ZM239 -9 L299 -9 L299 -68 L239 -68 L239 -9 ZM316 -9 L376 -9 L376 -68 L316 -68 L316 -9 ZM393 -85 L453 -85 L453 -145 L393 -145 L393 -85 ZM470 -85 L530 -85 L530 -145 L470 -145 L470 -85 Z" /><glyph glyph-name="R" unicode="r" d="M9 607 L68 607 L68 547 L9 547 L9 607 ZM85 607 L145 607 L145 547 L85 547 L85 607 ZM162 607 L222 607 L222 547 L162 547 L162 607 ZM239 607 L299 607 L299 547 L239 547 L239 607 ZM316 607 L376 607 L376 547 L316 547 L316 607 ZM9 530 L68 530 L68 470 L9 470 L9 530 ZM393 530 L453 530 L453 470 L393 470 L393 530 ZM9 453 L68 453 L68 393 L9 393 L9 453 ZM393 453 L453 453 L453 393 L393 393 L393 453 ZM9 376 L68 376 L68 316 L9 316 L9 376 ZM393 376 L453 376 L453 316 L393 316 L393 376 ZM9 299 L68 299 L68 239 L9 239 L9 299 ZM85 299 L145 299 L145 239 L85 239 L85 299 ZM162 299 L222 299 L222 239 L162 239 L162 299 ZM239 299 L299 299 L299 239 L239 239 L239 299 ZM316 299 L376 299 L376 239 L316 239 L316 299 ZM9 222 L68 222 L68 162 L9 162 L9 222 ZM239 222 L299 222 L299 162 L239 162 L239 222 ZM9 145 L68 145 L68 85 L9 85 L9 145 ZM316 145 L376 145 L376 85 L316 85 L316 145 ZM9 68 L68 68 L68 9 L9 9 L9 68 ZM316 68 L376 68 L376 9 L316 9 L316 68 ZM9 -9 L68 -9 L68 -68 L9 -68 L9 -9 ZM393 -9 L453 -9 L453 -68 L393 -68 L393 -9 Z" /><glyph glyph-name="S" unicode="s" d="M85 607 L145 607 L145 547 L85 547 L85 607 ZM162 607 L222 607 L222 547 L162 547 L162 607 ZM239 607 L299 607 L299 547 L239 547 L239 607 ZM316 607 L376 607 L376 547 L316 547 L316 607 ZM9 530 L68 530 L68 470 L9 470 L9 530 ZM393 530 L453 530 L453 470 L393 470 L393 530 ZM9 453 L68 453 L68 393 L9 393 L9 453 ZM9 376 L68 376 L68 316 L9 316 L9 376 ZM85 299 L145 299 L145 239 L85 239 L85 299 ZM162 299 L222 299 L222 239 L162 239 L162 299 ZM239 299 L299 299 L299 239 L239 239 L239 299 ZM316 299 L376 299 L376 239 L316 239 L316 299 ZM393 222 L453 222 L453 162 L393 162 L393 222 ZM393 145 L453 145 L453 85 L393 85 L393 145 ZM9 68 L68 68 L68 9 L9 9 L9 68 ZM393 68 L453 68 L453 9 L393 9 L393 68 ZM85 -9 L145 -9 L145 -68 L85 -68 L85 -9 ZM162 -9 L222 -9 L222 -68 L162 -68 L162 -9 ZM239 -9 L299 -9 L299 -68 L239 -68 L239 -9 ZM316 -9 L376 -9 L376 -68 L316 -68 L316 -9 Z" /><glyph glyph-name="T" unicode="t" d="M9 607 L68 607 L68 547 L9 547 L9 607 ZM85 607 L145 607 L145 547 L85 547 L85 607 ZM162 607 L222 607 L222 547 L162 547 L162 607 ZM239 607 L299 607 L299 547 L239 547 L239 607 ZM316 607 L376 607 L376 547 L316 547 L316 607 ZM393 607 L453 607 L453 547 L393 547 L393 607 ZM470 607 L530 607 L530 547 L470 547 L470 607 ZM239 530 L299 530 L299 470 L239 470 L239 530 ZM239 453 L299 453 L299 393 L239 393 L239 453 ZM239 376 L299 376 L299 316 L239 316 L239 376 ZM239 299 L299 299 L299 239 L239 239 L239 299 ZM239 222 L299 222 L299 162 L239 162 L239 222 ZM239 145 L299 145 L299 85 L239 85 L239 145 ZM239 68 L299 68 L299 9 L239 9 L239 68 ZM239 -9 L299 -9 L299 -68 L239 -68 L239 -9 Z" /><glyph glyph-name="U" unicode="u" d="M9 607 L68 607 L68 547 L9 547 L9 607 ZM470 607 L530 607 L530 547 L470 547 L470 607 ZM9 530 L68 530 L68 470 L9 470 L9 530 ZM470 530 L530 530 L530 470 L470 470 L470 530 ZM9 453 L68 453 L68 393 L9 393 L9 453 ZM470 453 L530 453 L530 393 L470 393 L470 453 ZM9 376 L68 376 L68 316 L9 316 L9 376 ZM470 376 L530 376 L530 316 L470 316 L470 376 ZM9 299 L68 299 L68 239 L9 239 L9 299 ZM470 299 L530 299 L530 239 L470 239 L470 299 ZM9 222 L68 222 L68 162 L9 162 L9 222 ZM470 222 L530 222 L530 162 L470 162 L470 222 ZM9 145 L68 145 L68 85 L9 85 L9 145 ZM470 145 L530 145 L530 85 L470 85 L470 145 ZM85 68 L145 68 L145 9 L85 9 L85 68 ZM393 68 L453 68 L453 9 L393 9 L393 68 ZM162 -9 L222 -9 L222 -68 L162 -68 L162 -9 ZM239 -9 L299 -9 L299 -68 L239 -68 L239 -9 ZM316 -9 L376 -9 L376 -68 L316 -68 L316 -9 Z" /><glyph glyph-name="X" unicode="x" d="M9 607 L68 607 L68 547 L9 547 L9 607 ZM470 607 L530 607 L530 547 L470 547 L470 607 ZM9 530 L68 530 L68 470 L9 470 L9 530 ZM470 530 L530 530 L530 470 L470 470 L470 530 ZM85 453 L145 453 L145 393 L85 393 L85 453 ZM393 453 L453 453 L453 393 L393 393 L393 453 ZM162 376 L222 376 L222 316 L162 316 L162 376 ZM316 376 L376 376 L376 316 L316 316 L316 376 ZM239 299 L299 299 L299 239 L239 239 L239 299 ZM162 222 L222 222 L222 162 L162 162 L162 222 ZM316 222 L376 222 L376 162 L316 162 L316 222 ZM85 145 L145 145 L145 85 L85 85 L85 145 ZM393 145 L453 145 L453 85 L393 85 L393 145 ZM9 68 L68 68 L68 9 L9 9 L9 68 ZM470 68 L530 68 L530 9 L470 9 L470 68 ZM9 -9 L68 -9 L68 -68 L9 -68 L9 -9 ZM470 -9 L530 -9 L530 -68 L470 -68 L470 -9 Z" /><glyph glyph-name="a" unicode="a" d="M85 453 L145 453 L145 393 L85 393 L85 453 ZM162 453 L222 453 L222 393 L162 393 L162 453 ZM239 453 L299 453 L299 393 L239 393 L239 453 ZM316 453 L376 453 L376 393 L316 393 L316 453 ZM393 376 L453 376 L453 316 L393 316 L393 376 ZM85 299 L145 299 L145 239 L85 239 L85 299 ZM162 299 L222 299 L222 239 L162 239 L162 299 ZM239 299 L299 299 L299 239 L239 239 L239 299 ZM316 299 L376 299 L376 239 L316 239 L316 299 ZM393 299 L453 299 L453 239 L393 239 L393 299 ZM9 222 L68 222 L68 162 L9 162 L9 222 ZM393 222 L453 222 L453 162 L393 162 L393 222 ZM9 145 L68 145 L68 85 L9 85 L9 145 ZM393 145 L453 145 L453 85 L393 85 L393 145 ZM9 68 L68 68 L68 9 L9 9 L9 68 ZM393 68 L453 68 L453 9 L393 9 L393 68 ZM85 -9 L145 -9 L145 -68 L85 -68 L85 -9 ZM162 -9 L222 -9 L222 -68 L162 -68 L162 -9 ZM239 -9 L299 -9 L299 -68 L239 -68 L239 -9 ZM316 -9 L376 -9 L376 -68 L316 -68 L316 -9 ZM393 -9 L453 -9 L453 -68 L393 -68 L393 -9 Z" /><glyph glyph-name="c" unicode="c" d="M85 453 L145 453 L145 393 L85 393 L85 453 ZM162 453 L222 453 L222 393 L162 393 L162 453 ZM239 453 L299 453 L299 393 L239 393 L239 453 ZM316 453 L376 453 L376 393 L316 393 L316 453 ZM9 376 L68 376 L68 316 L9 316 L9 376 ZM9 299 L68 299 L68 239 L9 239 L9 299 ZM9 222 L68 222 L68 162 L9 162 L9 222 ZM9 145 L68 145 L68 85 L9 85 L9 145 ZM9 68 L68 68 L68 9 L9 9 L9 68 ZM85 -9 L145 -9 L145 -68 L85 -68 L85 -9 ZM162 -9 L222 -9 L222 -68 L162 -68 L162 -9 ZM239 -9 L299 -9 L299 -68 L239 -68 L239 -9 ZM316 -9 L376 -9 L376 -68 L316 -68 L316 -9 Z" /><glyph glyph-name="d" unicode="d" d="M393 684 L453 684 L453 624 L393 624 L393 684 ZM393 607 L453 607 L453 547 L393 547 L393 607 ZM393 530 L453 530 L453 470 L393 470 L393 530 ZM85 453 L145 453 L145 393 L85 393 L85 453 ZM162 453 L222 453 L222 393 L162 393 L162 453 ZM239 453 L299 453 L299 393 L239 393 L239 453 ZM393 453 L453 453 L453 393 L393 393 L393 453 ZM9 376 L68 376 L68 316 L9 316 L9 376 ZM316 376 L376 376 L376 316 L316 316 L316 376 ZM393 376 L453 376 L453 316 L393 316 L393 376 ZM9 299 L68 299 L68 239 L9 239 L9 299 ZM393 299 L453 299 L453 239 L393 239 L393 299 ZM9 222 L68 222 L68 162 L9 162 L9 222 ZM393 222 L453 222 L453 162 L393 162 L393 222 ZM9 145 L68 145 L68 85 L9 85 L9 145 ZM393 145 L453 145 L453 85 L393 85 L393 145 ZM9 68 L68 68 L68 9 L9 9 L9 68 ZM316 68 L376 68 L376 9 L316 9 L316 68 ZM393 68 L453 68 L453 9 L393 9 L393 68 ZM85 -9 L145 -9 L145 -68 L85 -68 L85 -9 ZM162 -9 L222 -9 L222 -68 L162 -68 L162 -9 ZM239 -9 L299 -9 L299 -68 L239 -68 L239 -9 ZM393 -9 L453 -9 L453 -68 L393 -68 L393 -9 Z" /><glyph glyph-name="e" unicode="e" d="M85 453 L145 453 L145 393 L85 393 L85 453 ZM162 453 L222 453 L222 393 L162 393 L162 453 ZM239 453 L299 453 L299 393 L239 393 L239 453 ZM316 453 L376 453 L376 393 L316 393 L316 453 ZM9 376 L68 376 L68 316 L9 316 L9 376 ZM393 376 L453 376 L453 316 L393 316 L393 376 ZM9 299 L68 299 L68 239 L9 239 L9 299 ZM393 299 L453 299 L453 239 L393 239 L393 299 ZM9 222 L68 222 L68 162 L9 162 L9 222 ZM85 222 L145 222 L145 162 L85 162 L85 222 ZM162 222 L222 222 L222 162 L162 162 L162 222 ZM239 222 L299 222 L299 162 L239 162 L239 222 ZM316 222 L376 222 L376 162 L316 162 L316 222 ZM393 222 L453 222 L453 162 L393 162 L393 222 ZM9 145 L68 145 L68 85 L9 85 L9 145 ZM9 68 L68 68 L68 9 L9 9 L9 68 ZM393 68 L453 68 L453 9 L393 9 L393 68 ZM85 -9 L145 -9 L145 -68 L85 -68 L85 -9 ZM162 -9 L222 -9 L222 -68 L162 -68 L162 -9 ZM239 -9 L299 -9 L299 -68 L239 -68 L239 -9 ZM316 -9 L376 -9 L376 -68 L316 -68 L316 -9 Z" /><glyph glyph-name="f" unicode="f" d="M162 684 L222 684 L222 624 L162 624 L162 684 ZM239 684 L299 684 L299 624 L239 624 L239 684 ZM316 684 L376 684 L376 624 L316 624 L316 684 ZM85 607 L145 607 L145 547 L85 547 L85 607 ZM85 530 L145 530 L145 470 L85 470 L85 530 ZM9 453 L68 453 L68 393 L9 393 L9 453 ZM85 453 L145 453 L145 393 L85 393 L85 453 ZM162 453 L222 453 L222 393 L162 393 L162 453 ZM239 453 L299 453 L299 393 L239 393 L239 453 ZM316 453 L376 453 L376 393 L316 393 L316 453 ZM85 376 L145 376 L145 316 L85 316 L85 376 ZM85 299 L145 299 L145 239 L85 239 L85 299 ZM85 222 L145 222 L145 162 L85 162 L85 222 ZM85 145 L145 145 L145 85 L85 85 L85 145 ZM85 68 L145 68 L145 9 L85 9 L85 68 ZM85 -9 L145 -9 L145 -68 L85 -68 L85 -9 Z" /><glyph glyph-name="g" unicode="g" d="M85 453 L145 453 L145 393 L85 393 L85 453 ZM162 453 L222 453 L222 393 L162 393 L162 453 ZM239 453 L299 453 L299 393 L239 393 L239 453 ZM316 453 L376 453 L376 393 L316 393 L316 453 ZM393 453 L453 453 L453 393 L393 393 L393 453 ZM9 376 L68 376 L68 316 L9 316 L9 376 ZM393 376 L453 376 L453 316 L393 316 L393 376 ZM9 299 L68 299 L68 239 L9 239 L9 299 ZM393 299 L453 299 L453 239 L393 239 L393 299 ZM9 222 L68 222 L68 162 L9 162 L9 222 ZM393 222 L453 222 L453 162 L393 162 L393 222 ZM9 145 L68 145 L68 85 L9 85 L9 145 ZM393 145 L453 145 L453 85 L393 85 L393 145 ZM9 68 L68 68 L68 9 L9 9 L9 68 ZM316 68 L376 68 L376 9 L316 9 L316 68 ZM393 68 L453 68 L453 9 L393 9 L393 68 ZM85 -9 L145 -9 L145 -68 L85 -68 L85 -9 ZM162 -9 L222 -9 L222 -68 L162 -68 L162 -9 ZM239 -9 L299 -9 L299 -68 L239 -68 L239 -9 ZM393 -9 L453 -9 L453 -68 L393 -68 L393 -9 ZM393 -85 L453 -85 L453 -145 L393 -145 L393 -85 ZM393 -162 L453 -162 L453 -222 L393 -222 L393 -162 ZM85 -239 L145 -239 L145 -299 L85 -299 L85 -239 ZM162 -239 L222 -239 L222 -299 L162 -299 L162 -239 ZM239 -239 L299 -239 L299 -299 L239 -299 L239 -239 ZM316 -239 L376 -239 L376 -299 L316 -299 L316 -239 Z" /><glyph glyph-name="h" unicode="h" d="M9 684 L68 684 L68 624 L9 624 L9 684 ZM9 607 L68 607 L68 547 L9 547 L9 607 ZM9 530 L68 530 L68 470 L9 470 L9 530 ZM9 453 L68 453 L68 393 L9 393 L9 453 ZM162 453 L222 453 L222 393 L162 393 L162 453 ZM239 453 L299 453 L299 393 L239 393 L239 453 ZM316 453 L376 453 L376 393 L316 393 L316 453 ZM9 376 L68 376 L68 316 L9 316 L9 376 ZM85 376 L145 376 L145 316 L85 316 L85 376 ZM393 376 L453 376 L453 316 L393 316 L393 376 ZM9 299 L68 299 L68 239 L9 239 L9 299 ZM393 299 L453 299 L453 239 L393 239 L393 299 ZM9 222 L68 222 L68 162 L9 162 L9 222 ZM393 222 L453 222 L453 162 L393 162 L393 222 ZM9 145 L68 145 L68 85 L9 85 L9 145 ZM393 145 L453 145 L453 85 L393 85 L393 145 ZM9 68 L68 68 L68 9 L9 9 L9 68 ZM393 68 L453 68 L453 9 L393 9 L393 68 ZM9 -9 L68 -9 L68 -68 L9 -68 L9 -9 ZM393 -9 L453 -9 L453 -68 L393 -68 L393 -9 Z" /><glyph glyph-name="i" unicode="i" d="M9 607 L68 607 L68 547 L9 547 L9 607 ZM9 453 L68 453 L68 393 L9 393 L9 453 ZM9 376 L68 376 L68 316 L9 316 L9 376 ZM9 299 L68 299 L68 239 L9 239 L9 299 ZM9 222 L68 222 L68 162 L9 162 L9 222 ZM9 145 L68 145 L68 85 L9 85 L9 145 ZM9 68 L68 68 L68 9 L9 9 L9 68 ZM9 -9 L68 -9 L68 -68 L9 -68 L9 -9 Z" /><glyph glyph-name="k" unicode="k" d="M9 684 L68 684 L68 624 L9 624 L9 684 ZM9 607 L68 607 L68 547 L9 547 L9 607 ZM9 530 L68 530 L68 470 L9 470 L9 530 ZM9 453 L68 453 L68 393 L9 393 L9 453 ZM316 453 L376 453 L376 393 L316 393 L316 453 ZM9 376 L68 376 L68 316 L9 316 L9 376 ZM239 376 L299 376 L299 316 L239 316 L239 376 ZM9 299 L68 299 L68 239 L9 239 L9 299 ZM162 299 L222 299 L222 239 L162 239 L162 299 ZM9 222 L68 222 L68 162 L9 162 L9 222 ZM85 222 L145 222 L145 162 L85 162 L85 222 ZM9 145 L68 145 L68 85 L9 85 L9 145 ZM162 145 L222 145 L222 85 L162 85 L162 145 ZM9 68 L68 68 L68 9 L9 9 L9 68 ZM239 68 L299 68 L299 9 L239 9 L239 68 ZM9 -9 L68 -9 L68 -68 L9 -68 L9 -9 ZM316 -9 L376 -9 L376 -68 L316 -68 L316 -9 Z" /><glyph glyph-name="l" unicode="l" d="M85 684 L145 684 L145 624 L85 624 L85 684 ZM85 607 L145 607 L145 547 L85 547 L85 607 ZM85 530 L145 530 L145 470 L85 470 L85 530 ZM85 453 L145 453 L145 393 L85 393 L85 453 ZM85 376 L145 376 L145 316 L85 316 L85 376 ZM85 299 L145 299 L145 239 L85 239 L85 299 ZM85 222 L145 222 L145 162 L85 162 L85 222 ZM85 145 L145 145 L145 85 L85 85 L85 145 ZM85 68 L145 68 L145 9 L85 9 L85 68 ZM85 -9 L145 -9 L145 -68 L85 -68 L85 -9 Z" /><glyph glyph-name="m" unicode="m" d="M9 453 L68 453 L68 393 L9 393 L9 453 ZM162 453 L222 453 L222 393 L162 393 L162 453 ZM239 453 L299 453 L299 393 L239 393 L239 453 ZM470 453 L530 453 L530 393 L470 393 L470 453 ZM547 453 L607 453 L607 393 L547 393 L547 453 ZM9 376 L68 376 L68 316 L9 316 L9 376 ZM85 376 L145 376 L145 316 L85 316 L85 376 ZM316 376 L376 376 L376 316 L316 316 L316 376 ZM393 376 L453 376 L453 316 L393 316 L393 376 ZM624 376 L684 376 L684 316 L624 316 L624 376 ZM9 299 L68 299 L68 239 L9 239 L9 299 ZM316 299 L376 299 L376 239 L316 239 L316 299 ZM624 299 L684 299 L684 239 L624 239 L624 299 ZM9 222 L68 222 L68 162 L9 162 L9 222 ZM316 222 L376 222 L376 162 L316 162 L316 222 ZM624 222 L684 222 L684 162 L624 162 L624 222 ZM9 145 L68 145 L68 85 L9 85 L9 145 ZM316 145 L376 145 L376 85 L316 85 L316 145 ZM624 145 L684 145 L684 85 L624 85 L624 145 ZM9 68 L68 68 L68 9 L9 9 L9 68 ZM316 68 L376 68 L376 9 L316 9 L316 68 ZM624 68 L684 68 L684 9 L624 9 L624 68 ZM9 -9 L68 -9 L68 -68 L9 -68 L9 -9 ZM316 -9 L376 -9 L376 -68 L316 -68 L316 -9 ZM624 -9 L684 -9 L684 -68 L624 -68 L624 -9 Z" /><glyph glyph-name="n" unicode="n" d="M9 453 L68 453 L68 393 L9 393 L9 453 ZM162 453 L222 453 L222 393 L162 393 L162 453 ZM239 453 L299 453 L299 393 L239 393 L239 453 ZM316 453 L376 453 L376 393 L316 393 L316 453 ZM9 376 L68 376 L68 316 L9 316 L9 376 ZM85 376 L145 376 L145 316 L85 316 L85 376 ZM393 376 L453 376 L453 316 L393 316 L393 376 ZM9 299 L68 299 L68 239 L9 239 L9 299 ZM393 299 L453 299 L453 239 L393 239 L393 299 ZM9 222 L68 222 L68 162 L9 162 L9 222 ZM393 222 L453 222 L453 162 L393 162 L393 222 ZM9 145 L68 145 L68 85 L9 85 L9 145 ZM393 145 L453 145 L453 85 L393 85 L393 145 ZM9 68 L68 68 L68 9 L9 9 L9 68 ZM393 68 L453 68 L453 9 L393 9 L393 68 ZM9 -9 L68 -9 L68 -68 L9 -68 L9 -9 ZM393 -9 L453 -9 L453 -68 L393 -68 L393 -9 Z" /><glyph glyph-name="o" unicode="o" d="M162 453 L222 453 L222 393 L162 393 L162 453 ZM239 453 L299 453 L299 393 L239 393 L239 453 ZM316 453 L376 453 L376 393 L316 393 L316 453 ZM85 376 L145 376 L145 316 L85 316 L85 376 ZM393 376 L453 376 L453 316 L393 316 L393 376 ZM9 299 L68 299 L68 239 L9 239 L9 299 ZM470 299 L530 299 L530 239 L470 239 L470 299 ZM9 222 L68 222 L68 162 L9 162 L9 222 ZM470 222 L530 222 L530 162 L470 162 L470 222 ZM9 145 L68 145 L68 85 L9 85 L9 145 ZM470 145 L530 145 L530 85 L470 85 L470 145 ZM85 68 L145 68 L145 9 L85 9 L85 68 ZM393 68 L453 68 L453 9 L393 9 L393 68 ZM162 -9 L222 -9 L222 -68 L162 -68 L162 -9 ZM239 -9 L299 -9 L299 -68 L239 -68 L239 -9 ZM316 -9 L376 -9 L376 -68 L316 -68 L316 -9 Z" /><glyph glyph-name="r" unicode="r" d="M9 453 L68 453 L68 393 L9 393 L9 453 ZM162 453 L222 453 L222 393 L162 393 L162 453 ZM239 453 L299 453 L299 393 L239 393 L239 453 ZM9 376 L68 376 L68 316 L9 316 L9 376 ZM85 376 L145 376 L145 316 L85 316 L85 376 ZM9 299 L68 299 L68 239 L9 239 L9 299 ZM9 222 L68 222 L68 162 L9 162 L9 222 ZM9 145 L68 145 L68 85 L9 85 L9 145 ZM9 68 L68 68 L68 9 L9 9 L9 68 ZM9 -9 L68 -9 L68 -68 L9 -68 L9 -9 Z" /><glyph glyph-name="s" unicode="s" d="M85 453 L145 453 L145 393 L85 393 L85 453 ZM162 453 L222 453 L222 393 L162 393 L162 453 ZM239 453 L299 453 L299 393 L239 393 L239 453 ZM9 376 L68 376 L68 316 L9 316 L9 376 ZM316 376 L376 376 L376 316 L316 316 L316 376 ZM9 299 L68 299 L68 239 L9 239 L9 299 ZM85 222 L145 222 L145 162 L85 162 L85 222 ZM162 222 L222 222 L222 162 L162 162 L162 222 ZM239 222 L299 222 L299 162 L239 162 L239 222 ZM316 145 L376 145 L376 85 L316 85 L316 145 ZM9 68 L68 68 L68 9 L9 9 L9 68 ZM316 68 L376 68 L376 9 L316 9 L316 68 ZM85 -9 L145 -9 L145 -68 L85 -68 L85 -9 ZM162 -9 L222 -9 L222 -68 L162 -68 L162 -9 ZM239 -9 L299 -9 L299 -68 L239 -68 L239 -9 Z" /><glyph glyph-name="t" unicode="t" d="M85 607 L145 607 L145 547 L85 547 L85 607 ZM85 530 L145 530 L145 470 L85 470 L85 530 ZM9 453 L68 453 L68 393 L9 393 L9 453 ZM85 453 L145 453 L145 393 L85 393 L85 453 ZM162 453 L222 453 L222 393 L162 393 L162 453 ZM239 453 L299 453 L299 393 L239 393 L239 453 ZM85 376 L145 376 L145 316 L85 316 L85 376 ZM85 299 L145 299 L145 239 L85 239 L85 299 ZM85 222 L145 222 L145 162 L85 162 L85 222 ZM85 145 L145 145 L145 85 L85 85 L85 145 ZM85 68 L145 68 L145 9 L85 9 L85 68 ZM162 -9 L222 -9 L222 -68 L162 -68 L162 -9 ZM239 -9 L299 -9 L299 -68 L239 -68 L239 -9 Z" /><glyph glyph-name="u" unicode="u" d="M9 453 L68 453 L68 393 L9 393 L9 453 ZM393 453 L453 453 L453 393 L393 393 L393 453 ZM9 376 L68 376 L68 316 L9 316 L9 376 ZM393 376 L453 376 L453 316 L393 316 L393 376 ZM9 299 L68 299 L68 239 L9 239 L9 299 ZM393 299 L453 299 L453 239 L393 239 L393 299 ZM9 222 L68 222 L68 162 L9 162 L9 222 ZM393 222 L453 222 L453 162 L393 162 L393 222 ZM9 145 L68 145 L68 85 L9 85 L9 145 ZM393 145 L453 145 L453 85 L393 85 L393 145 ZM9 68 L68 68 L68 9 L9 9 L9 68 ZM316 68 L376 68 L376 9 L316 9 L316 68 ZM393 68 L453 68 L453 9 L393 9 L393 68 ZM85 -9 L145 -9 L145 -68 L85 -68 L85 -9 ZM162 -9 L222 -9 L222 -68 L162 -68 L162 -9 ZM239 -9 L299 -9 L299 -68 L239 -68 L239 -9 ZM393 -9 L453 -9 L453 -68 L393 -68 L393 -9 Z" /><glyph glyph-name="v" unicode="v" d="M9 453 L68 453 L68 393 L9 393 L9 453 ZM470 453 L530 453 L530 393 L470 393 L470 453 ZM85 376 L145 376 L145 316 L85 316 L85 376 ZM393 376 L453 376 L453 316 L393 316 L393 376 ZM85 299 L145 299 L145 239 L85 239 L85 299 ZM393 299 L453 299 L453 239 L393 239 L393 299 ZM162 222 L222 222 L222 162 L162 162 L162 222 ZM316 222 L376 222 L376 162 L316 162 L316 222 ZM162 145 L222 145 L222 85 L162 85 L162 145 ZM316 145 L376 145 L376 85 L316 85 L316 145 ZM239 68 L299 68 L299 9 L239 9 L239 68 ZM239 -9 L299 -9 L299 -68 L239 -68 L239 -9 Z" /><glyph glyph-name="w" unicode="w" d="M9 453 L68 453 L68 393 L9 393 L9 453 ZM316 453 L376 453 L376 393 L316 393 L316 453 ZM624 453 L684 453 L684 393 L624 393 L624 453 ZM9 376 L68 376 L68 316 L9 316 L9 376 ZM316 376 L376 376 L376 316 L316 316 L316 376 ZM624 376 L684 376 L684 316 L624 316 L624 376 ZM85 299 L145 299 L145 239 L85 239 L85 299 ZM239 299 L299 299 L299 239 L239 239 L239 299 ZM393 299 L453 299 L453 239 L393 239 L393 299 ZM547 299 L607 299 L607 239 L547 239 L547 299 ZM85 222 L145 222 L145 162 L85 162 L85 222 ZM239 222 L299 222 L299 162 L239 162 L239 222 ZM393 222 L453 222 L453 162 L393 162 L393 222 ZM547 222 L607 222 L607 162 L547 162 L547 222 ZM85 145 L145 145 L145 85 L85 85 L85 145 ZM239 145 L299 145 L299 85 L239 85 L239 145 ZM393 145 L453 145 L453 85 L393 85 L393 145 ZM547 145 L607 145 L607 85 L547 85 L547 145 ZM162 68 L222 68 L222 9 L162 9 L162 68 ZM470 68 L530 68 L530 9 L470 9 L470 68 ZM162 -9 L222 -9 L222 -68 L162 -68 L162 -9 ZM470 -9 L530 -9 L530 -68 L470 -68 L470 -9 Z" /><glyph glyph-name="x" unicode="x" d="M9 453 L68 453 L68 393 L9 393 L9 453 ZM316 453 L376 453 L376 393 L316 393 L316 453 ZM9 376 L68 376 L68 316 L9 316 L9 376 ZM316 376 L376 376 L376 316 L316 316 L316 376 ZM85 299 L145 299 L145 239 L85 239 L85 299 ZM239 299 L299 299 L299 239 L239 239 L239 299 ZM162 222 L222 222 L222 162 L162 162 L162 222 ZM85 145 L145 145 L145 85 L85 85 L85 145 ZM239 145 L299 145 L299 85 L239 85 L239 145 ZM9 68 L68 68 L68 9 L9 9 L9 68 ZM316 68 L376 68 L376 9 L316 9 L316 68 ZM9 -9 L68 -9 L68 -68 L9 -68 L9 -9 ZM316 -9 L376 -9 L376 -68 L316 -68 L316 -9 Z" /><glyph glyph-name="y" unicode="y" d="M9 453 L68 453 L68 393 L9 393 L9 453 ZM470 453 L530 453 L530 393 L470 393 L470 453 ZM9 376 L68 376 L68 316 L9 316 L9 376 ZM470 376 L530 376 L530 316 L470 316 L470 376 ZM85 299 L145 299 L145 239 L85 239 L85 299 ZM393 299 L453 299 L453 239 L393 239 L393 299 ZM85 222 L145 222 L145 162 L85 162 L85 222 ZM393 222 L453 222 L453 162 L393 162 L393 222 ZM162 145 L222 145 L222 85 L162 85 L162 145 ZM316 145 L376 145 L376 85 L316 85 L316 145 ZM162 68 L222 68 L222 9 L162 9 L162 68 ZM316 68 L376 68 L376 9 L316 9 L316 68 ZM239 -9 L299 -9 L299 -68 L239 -68 L239 -9 ZM239 -85 L299 -85 L299 -145 L239 -145 L239 -85 ZM162 -162 L222 -162 L222 -222 L162 -222 L162 -162 ZM162 -239 L222 -239 L222 -299 L162 -299 L162 -239 Z" /><glyph glyph-name="bar" unicode="|" d="M239 761 L299 761 L299 701 L239 701 L239 761 ZM239 684 L299 684 L299 624 L239 624 L239 684 ZM239 607 L299 607 L299 547 L239 547 L239 607 ZM239 530 L299 530 L299 470 L239 470 L239 530 ZM239 453 L299 453 L299 393 L239 393 L239 453 ZM239 376 L299 376 L299 316 L239 316 L239 376 ZM239 299 L299 299 L299 239 L239 239 L239 299 ZM239 222 L299 222 L299 162 L239 162 L239 222 ZM239 145 L299 145 L299 85 L239 85 L239 145 ZM239 68 L299 68 L299 9 L239 9 L239 68 ZM239 -9 L299 -9 L299 -68 L239 -68 L239 -9 ZM239 -85 L299 -85 L299 -145 L239 -145 L239 -85 Z" /><glyph glyph-name="emdash" unicode="&#x2014;" d="M85 222 L145 222 L145 162 L85 162 L85 222 ZM162 222 L222 222 L222 162 L162 162 L162 222 ZM239 222 L299 222 L299 162 L239 162 L239 222 ZM316 222 L376 222 L376 162 L316 162 L316 222 ZM393 222 L453 222 L453 162 L393 162 L393 222 ZM470 222 L530 222 L530 162 L470 162 L470 222 ZM547 222 L607 222 L607 162 L547 162 L547 222 ZM624 222 L684 222 L684 162 L624 162 L624 222 ZM701 222 L761 222 L761 162 L701 162 L701 222 ZM778 222 L838 222 L838 162 L778 162 L778 222 ZM855 222 L915 222 L915 162 L855 162 L855 222 Z" /><glyph glyph-name="quotedblleft" unicode="&#x201c;" d="M624 684 L684 684 L684 624 L624 624 L624 684 ZM855 684 L915 684 L915 624 L855 624 L855 684 ZM547 607 L607 607 L607 547 L547 547 L547 607 ZM778 607 L838 607 L838 547 L778 547 L778 607 ZM547 530 L607 530 L607 470 L547 470 L547 530 ZM624 530 L684 530 L684 470 L624 470 L624 530 ZM778 530 L838 530 L838 470 L778 470 L778 530 ZM855 530 L915 530 L915 470 L855 470 L855 530 ZM547 453 L607 453 L607 393 L547 393 L547 453 ZM624 453 L684 453 L684 393 L624 393 L624 453 ZM778 453 L838 453 L838 393 L778 393 L778 453 ZM855 453 L915 453 L915 393 L855 393 L855 453 Z" /><glyph glyph-name="quotedblright" unicode="&#x201d;" d="M85 684 L145 684 L145 624 L85 624 L85 684 ZM162 684 L222 684 L222 624 L162 624 L162 684 ZM316 684 L376 684 L376 624 L316 624 L316 684 ZM393 684 L453 684 L453 624 L393 624 L393 684 ZM85 607 L145 607 L145 547 L85 547 L85 607 ZM162 607 L222 607 L222 547 L162 547 L162 607 ZM316 607 L376 607 L376 547 L316 547 L316 607 ZM393 607 L453 607 L453 547 L393 547 L393 607 ZM162 530 L222 530 L222 470 L162 470 L162 530 ZM393 530 L453 530 L453 470 L393 470 L393 530 ZM85 453 L145 453 L145 393 L85 393 L85 453 ZM316 453 L376 453 L376 393 L316 393 L316 453 Z" /><glyph glyph-name="U_2589" unicode="&#x2589;" d="M9 684 L68 684 L68 624 L9 624 L9 684 ZM85 684 L145 684 L145 624 L85 624 L85 684 ZM162 684 L222 684 L222 624 L162 624 L162 684 ZM239 684 L299 684 L299 624 L239 624 L239 684 ZM316 684 L376 684 L376 624 L316 624 L316 684 ZM393 684 L453 684 L453 624 L393 624 L393 684 ZM470 684 L530 684 L530 624 L470 624 L470 684 ZM547 684 L607 684 L607 624 L547 624 L547 684 ZM624 684 L684 684 L684 624 L624 624 L624 684 ZM701 684 L761 684 L761 624 L701 624 L701 684 ZM778 684 L838 684 L838 624 L778 624 L778 684 ZM9 607 L68 607 L68 547 L9 547 L9 607 ZM85 607 L145 607 L145 547 L85 547 L85 607 ZM162 607 L222 607 L222 547 L162 547 L162 607 ZM239 607 L299 607 L299 547 L239 547 L239 607 ZM316 607 L376 607 L376 547 L316 547 L316 607 ZM393 607 L453 607 L453 547 L393 547 L393 607 ZM470 607 L530 607 L530 547 L470 547 L470 607 ZM547 607 L607 607 L607 547 L547 547 L547 607 ZM624 607 L684 607 L684 547 L624 547 L624 607 ZM701 607 L761 607 L761 547 L701 547 L701 607 ZM778 607 L838 607 L838 547 L778 547 L778 607 ZM9 530 L68 530 L68 470 L9 470 L9 530 ZM85 530 L145 530 L145 470 L85 470 L85 530 ZM162 530 L222 530 L222 470 L162 470 L162 530 ZM239 530 L299 530 L299 470 L239 470 L239 530 ZM316 530 L376 530 L376 470 L316 470 L316 530 ZM393 530 L453 530 L453 470 L393 470 L393 530 ZM470 530 L530 530 L530 470 L470 470 L470 530 ZM547 530 L607 530 L607 470 L547 470 L547 530 ZM624 530 L684 530 L684 470 L624 470 L624 530 ZM701 530 L761 530 L761 470 L701 470 L701 530 ZM778 530 L838 530 L838 470 L778 470 L778 530 ZM9 453 L68 453 L68 393 L9 393 L9 453 ZM85 453 L145 453 L145 393 L85 393 L85 453 ZM162 453 L222 453 L222 393 L162 393 L162 453 ZM239 453 L299 453 L299 393 L239 393 L239 453 ZM316 453 L376 453 L376 393 L316 393 L316 453 ZM393 453 L453 453 L453 393 L393 393 L393 453 ZM470 453 L530 453 L530 393 L470 393 L470 453 ZM547 453 L607 453 L607 393 L547 393 L547 453 ZM624 453 L684 453 L684 393 L624 393 L624 453 ZM701 453 L761 453 L761 393 L701 393 L701 453 ZM778 453 L838 453 L838 393 L778 393 L778 453 ZM9 376 L68 376 L68 316 L9 316 L9 376 ZM85 376 L145 376 L145 316 L85 316 L85 376 ZM162 376 L222 376 L222 316 L162 316 L162 376 ZM239 376 L299 376 L299 316 L239 316 L239 376 ZM316 376 L376 376 L376 316 L316 316 L316 376 ZM393 376 L453 376 L453 316 L393 316 L393 376 ZM470 376 L530 376 L530 316 L470 316 L470 376 ZM547 376 L607 376 L607 316 L547 316 L547 376 ZM624 376 L684 376 L684 316 L624 316 L624 376 ZM701 376 L761 376 L761 316 L701 316 L701 376 ZM778 376 L838 376 L838 316 L778 316 L778 376 ZM9 299 L68 299 L68 239 L9 239 L9 299 ZM85 299 L145 299 L145 239 L85 239 L85 299 ZM162 299 L222 299 L222 239 L162 239 L162 299 ZM239 299 L299 299 L299 239 L239 239 L239 299 ZM316 299 L376 299 L376 239 L316 239 L316 299 ZM393 299 L453 299 L453 239 L393 239 L393 299 ZM470 299 L530 299 L530 239 L470 239 L470 299 ZM547 299 L607 299 L607 239 L547 239 L547 299 ZM624 299 L684 299 L684 239 L624 239 L624 299 ZM701 299 L761 299 L761 239 L701 239 L701 299 ZM778 299 L838 299 L838 239 L778 239 L778 299 ZM9 222 L68 222 L68 162 L9 162 L9 222 ZM85 222 L145 222 L145 162 L85 162 L85 222 ZM162 222 L222 222 L222 162 L162 162 L162 222 ZM239 222 L299 222 L299 162 L239 162 L239 222 ZM316 222 L376 222 L376 162 L316 162 L316 222 ZM393 222 L453 222 L453 162 L393 162 L393 222 ZM470 222 L530 222 L530 162 L470 162 L470 222 ZM547 222 L607 222 L607 162 L547 162 L547 222 ZM624 222 L684 222 L684 162 L624 162 L624 222 ZM701 222 L761 222 L761 162 L701 162 L701 222 ZM778 222 L838 222 L838 162 L778 162 L778 222 ZM9 145 L68 145 L68 85 L9 85 L9 145 ZM85 145 L145 145 L145 85 L85 85 L85 145 ZM162 145 L222 145 L222 85 L162 85 L162 145 ZM239 145 L299 145 L299 85 L239 85 L239 145 ZM316 145 L376 145 L376 85 L316 85 L316 145 ZM393 145 L453 145 L453 85 L393 85 L393 145 ZM470 145 L530 145 L530 85 L470 85 L470 145 ZM547 145 L607 145 L607 85 L547 85 L547 145 ZM624 145 L684 145 L684 85 L624 85 L624 145 ZM701 145 L761 145 L761 85 L701 85 L701 145 ZM778 145 L838 145 L838 85 L778 85 L778 145 ZM9 68 L68 68 L68 9 L9 9 L9 68 ZM85 68 L145 68 L145 9 L85 9 L85 68 ZM162 68 L222 68 L222 9 L162 9 L162 68 ZM239 68 L299 68 L299 9 L239 9 L239 68 ZM316 68 L376 68 L376 9 L316 9 L316 68 ZM393 68 L453 68 L453 9 L393 9 L393 68 ZM470 68 L530 68 L530 9 L470 9 L470 68 ZM547 68 L607 68 L607 9 L547 9 L547 68 ZM624 68 L684 68 L684 9 L624 9 L624 68 ZM701 68 L761 68 L761 9 L701 9 L701 68 ZM778 68 L838 68 L838 9 L778 9 L778 68 ZM9 -9 L68 -9 L68 -68 L9 -68 L9 -9 ZM85 -9 L145 -9 L145 -68 L85 -68 L85 -9 ZM162 -9 L222 -9 L222 -68 L162 -68 L162 -9 ZM239 -9 L299 -9 L299 -68 L239 -68 L239 -9 ZM316 -9 L376 -9 L376 -68 L316 -68 L316 -9 ZM393 -9 L453 -9 L453 -68 L393 -68 L393 -9 ZM470 -9 L530 -9 L530 -68 L470 -68 L470 -9 ZM547 -9 L607 -9 L607 -68 L547 -68 L547 -9 ZM624 -9 L684 -9 L684 -68 L624 -68 L624 -9 ZM701 -9 L761 -9 L761 -68 L701 -68 L701 -9 ZM778 -9 L838 -9 L838 -68 L778 -68 L778 -9 ZM9 -85 L68 -85 L68 -145 L9 -145 L9 -85 ZM85 -85 L145 -85 L145 -145 L85 -145 L85 -85 ZM162 -85 L222 -85 L222 -145 L162 -145 L162 -85 ZM239 -85 L299 -85 L299 -145 L239 -145 L239 -85 ZM316 -85 L376 -85 L376 -145 L316 -145 L316 -85 ZM393 -85 L453 -85 L453 -145 L393 -145 L393 -85 ZM470 -85 L530 -85 L530 -145 L470 -145 L470 -85 ZM547 -85 L607 -85 L607 -145 L547 -145 L547 -85 ZM624 -85 L684 -85 L684 -145 L624 -145 L624 -85 ZM701 -85 L761 -85 L761 -145 L701 -145 L701 -85 ZM778 -85 L838 -85 L838 -145 L778 -145 L778 -85 ZM9 -162 L68 -162 L68 -222 L9 -222 L9 -162 ZM85 -162 L145 -162 L145 -222 L85 -222 L85 -162 ZM162 -162 L222 -162 L222 -222 L162 -222 L162 -162 ZM239 -162 L299 -162 L299 -222 L239 -222 L239 -162 ZM316 -162 L376 -162 L376 -222 L316 -222 L316 -162 ZM393 -162 L453 -162 L453 -222 L393 -222 L393 -162 ZM470 -162 L530 -162 L530 -222 L470 -222 L470 -162 ZM547 -162 L607 -162 L607 -222 L547 -222 L547 -162 ZM624 -162 L684 -162 L684 -222 L624 -222 L624 -162 ZM701 -162 L761 -162 L761 -222 L701 -222 L701 -162 ZM778 -162 L838 -162 L838 -222 L778 -222 L778 -162 ZM9 -239 L68 -239 L68 -299 L9 -299 L9 -239 ZM85 -239 L145 -239 L145 -299 L85 -299 L85 -239 ZM162 -239 L222 -239 L222 -299 L162 -299 L162 -239 ZM239 -239 L299 -239 L299 -299 L239 -299 L239 -239 ZM316 -239 L376 -239 L376 -299 L316 -299 L316 -239 ZM393 -239 L453 -239 L453 -299 L393 -299 L393 -239 ZM470 -239 L530 -239 L530 -299 L470 -299 L470 -239 ZM547 -239 L607 -239 L607 -299 L547 -299 L547 -239 ZM624 -239 L684 -239 L684 -299 L624 -299 L624 -239 ZM701 -239 L761 -239 L761 -299 L701 -299 L701 -239 ZM778 -239 L838 -239 L838 -299 L778 -299 L778 -239 Z" /><glyph glyph-name="U_3001" unicode="&#x3001;" d="M239 68 L299 68 L299 9 L239 9 L239 68 ZM316 -9 L376 -9 L376 -68 L316 -68 L316 -9 ZM393 -9 L453 -9 L453 -68 L393 -68 L393 -9 ZM393 -85 L453 -85 L453 -145 L393 -145 L393 -85 Z" /><glyph glyph-name="U_3002" unicode="&#x3002;" d="M316 145 L376 145 L376 85 L316 85 L316 145 ZM393 145 L453 145 L453 85 L393 85 L393 145 ZM239 68 L299 68 L299 9 L239 9 L239 68 ZM470 68 L530 68 L530 9 L470 9 L470 68 ZM239 -9 L299 -9 L299 -68 L239 -68 L239 -9 ZM470 -9 L530 -9 L530 -68 L470 -68 L470 -9 ZM316 -85 L376 -85 L376 -145 L316 -145 L316 -85 ZM393 -85 L453 -85 L453 -145 L393 -145 L393 -85 Z" /><glyph glyph-name="U_300A" unicode="&#x300a;" d="M701 684 L761 684 L761 624 L701 624 L701 684 ZM855 684 L915 684 L915 624 L855 624 L855 684 ZM701 607 L761 607 L761 547 L701 547 L701 607 ZM855 607 L915 607 L915 547 L855 547 L855 607 ZM624 530 L684 530 L684 470 L624 470 L624 530 ZM778 530 L838 530 L838 470 L778 470 L778 530 ZM624 453 L684 453 L684 393 L624 393 L624 453 ZM778 453 L838 453 L838 393 L778 393 L778 453 ZM547 376 L607 376 L607 316 L547 316 L547 376 ZM701 376 L761 376 L761 316 L701 316 L701 376 ZM547 299 L607 299 L607 239 L547 239 L547 299 ZM701 299 L761 299 L761 239 L701 239 L701 299 ZM547 222 L607 222 L607 162 L547 162 L547 222 ZM701 222 L761 222 L761 162 L701 162 L701 222 ZM547 145 L607 145 L607 85 L547 85 L547 145 ZM701 145 L761 145 L761 85 L701 85 L701 145 ZM624 68 L684 68 L684 9 L624 9 L624 68 ZM778 68 L838 68 L838 9 L778 9 L778 68 ZM624 -9 L684 -9 L684 -68 L624 -68 L624 -9 ZM778 -9 L838 -9 L838 -68 L778 -68 L778 -9 ZM701 -85 L761 -85 L761 -145 L701 -145 L701 -85 ZM855 -85 L915 -85 L915 -145 L855 -145 L855 -85 ZM701 -162 L761 -162 L761 -222 L701 -222 L701 -162 ZM855 -162 L915 -162 L915 -222 L855 -222 L855 -162 Z" /><glyph glyph-name="U_300B" unicode="&#x300b;" d="M85 684 L145 684 L145 624 L85 624 L85 684 ZM239 684 L299 684 L299 624 L239 624 L239 684 ZM85 607 L145 607 L145 547 L85 547 L85 607 ZM239 607 L299 607 L299 547 L239 547 L239 607 ZM162 530 L222 530 L222 470 L162 470 L162 530 ZM316 530 L376 530 L376 470 L316 470 L316 530 ZM162 453 L222 453 L222 393 L162 393 L162 453 ZM316 453 L376 453 L376 393 L316 393 L316 453 ZM239 376 L299 376 L299 316 L239 316 L239 376 ZM393 376 L453 376 L453 316 L393 316 L393 376 ZM239 299 L299 299 L299 239 L239 239 L239 299 ZM393 299 L453 299 L453 239 L393 239 L393 299 ZM239 222 L299 222 L299 162 L239 162 L239 222 ZM393 222 L453 222 L453 162 L393 162 L393 222 ZM239 145 L299 145 L299 85 L239 85 L239 145 ZM393 145 L453 145 L453 85 L393 85 L393 145 ZM162 68 L222 68 L222 9 L162 9 L162 68 ZM316 68 L376 68 L376 9 L316 9 L316 68 ZM162 -9 L222 -9 L222 -68 L162 -68 L162 -9 ZM316 -9 L376 -9 L376 -68 L316 -68 L316 -9 ZM85 -85 L145 -85 L145 -145 L85 -145 L85 -85 ZM239 -85 L299 -85 L299 -145 L239 -145 L239 -85 ZM85 -162 L145 -162 L145 -222 L85 -222 L85 -162 ZM239 -162 L299 -162 L299 -222 L239 -222 L239 -162 Z" /><glyph glyph-name="U_4E00" unicode="&#x4e00;" d="M778 453 L838 453 L838 393 L778 393 L778 453 ZM9 376 L68 376 L68 316 L9 316 L9 376 ZM85 376 L145 376 L145 316 L85 316 L85 376 ZM162 376 L222 376 L222 316 L162 316 L162 376 ZM239 376 L299 376 L299 316 L239 316 L239 376 ZM316 376 L376 376 L376 316 L316 316 L316 376 ZM393 376 L453 376 L453 316 L393 316 L393 376 ZM470 376 L530 376 L530 316 L470 316 L470 376 ZM547 376 L607 376 L607 316 L547 316 L547 376 ZM624 376 L684 376 L684 316 L624 316 L624 376 ZM701 376 L761 376 L761 316 L701 316 L701 376 ZM778 376 L838 376 L838 316 L778 316 L778 376 ZM855 376 L915 376 L915 316 L855 316 L855 376 Z" /><glyph glyph-name="U_4E0A" unicode="&#x4e0a;" d="M393 761 L453 761 L453 701 L393 701 L393 761 ZM393 684 L453 684 L453 624 L393 624 L393 684 ZM393 607 L453 607 L453 547 L393 547 L393 607 ZM393 530 L453 530 L453 470 L393 470 L393 530 ZM393 453 L453 453 L453 393 L393 393 L393 453 ZM470 453 L530 453 L530 393 L470 393 L470 453 ZM547 453 L607 453 L607 393 L547 393 L547 453 ZM624 453 L684 453 L684 393 L624 393 L624 453 ZM701 453 L761 453 L761 393 L701 393 L701 453 ZM778 453 L838 453 L838 393 L778 393 L778 453 ZM393 376 L453 376 L453 316 L393 316 L393 376 ZM393 299 L453 299 L453 239 L393 239 L393 299 ZM393 222 L453 222 L453 162 L393 162 L393 222 ZM393 145 L453 145 L453 85 L393 85 L393 145 ZM393 68 L453 68 L453 9 L393 9 L393 68 ZM393 -9 L453 -9 L453 -68 L393 -68 L393 -9 ZM9 -85 L68 -85 L68 -145 L9 -145 L9 -85 ZM85 -85 L145 -85 L145 -145 L85 -145 L85 -85 ZM162 -85 L222 -85 L222 -145 L162 -145 L162 -85 ZM239 -85 L299 -85 L299 -145 L239 -145 L239 -85 ZM316 -85 L376 -85 L376 -145 L316 -145 L316 -85 ZM393 -85 L453 -85 L453 -145 L393 -145 L393 -85 ZM470 -85 L530 -85 L530 -145 L470 -145 L470 -85 ZM547 -85 L607 -85 L607 -145 L547 -145 L547 -85 ZM624 -85 L684 -85 L684 -145 L624 -145 L624 -85 ZM701 -85 L761 -85 L761 -145 L701 -145 L701 -85 ZM778 -85 L838 -85 L838 -145 L778 -145 L778 -85 ZM855 -85 L915 -85 L915 -145 L855 -145 L855 -85 Z" /><glyph glyph-name="U_4E0D" unicode="&#x4e0d;" d="M9 761 L68 761 L68 701 L9 701 L9 761 ZM85 761 L145 761 L145 701 L85 701 L85 761 ZM162 761 L222 761 L222 701 L162 701 L162 761 ZM239 761 L299 761 L299 701 L239 701 L239 761 ZM316 761 L376 761 L376 701 L316 701 L316 761 ZM393 761 L453 761 L453 701 L393 701 L393 761 ZM470 761 L530 761 L530 701 L470 701 L470 761 ZM547 761 L607 761 L607 701 L547 701 L547 761 ZM624 761 L684 761 L684 701 L624 701 L624 761 ZM701 761 L761 761 L761 701 L701 701 L701 761 ZM778 761 L838 761 L838 701 L778 701 L778 761 ZM855 761 L915 761 L915 701 L855 701 L855 761 ZM470 684 L530 684 L530 624 L470 624 L470 684 ZM470 607 L530 607 L530 547 L470 547 L470 607 ZM393 530 L453 530 L453 470 L393 470 L393 530 ZM316 453 L376 453 L376 393 L316 393 L316 453 ZM393 453 L453 453 L453 393 L393 393 L393 453 ZM547 453 L607 453 L607 393 L547 393 L547 453 ZM239 376 L299 376 L299 316 L239 316 L239 376 ZM393 376 L453 376 L453 316 L393 316 L393 376 ZM624 376 L684 376 L684 316 L624 316 L624 376 ZM162 299 L222 299 L222 239 L162 239 L162 299 ZM393 299 L453 299 L453 239 L393 239 L393 299 ZM701 299 L761 299 L761 239 L701 239 L701 299 ZM85 222 L145 222 L145 162 L85 162 L85 222 ZM393 222 L453 222 L453 162 L393 162 L393 222 ZM778 222 L838 222 L838 162 L778 162 L778 222 ZM9 145 L68 145 L68 85 L9 85 L9 145 ZM393 145 L453 145 L453 85 L393 85 L393 145 ZM778 145 L838 145 L838 85 L778 85 L778 145 ZM393 68 L453 68 L453 9 L393 9 L393 68 ZM393 -9 L453 -9 L453 -68 L393 -68 L393 -9 ZM393 -85 L453 -85 L453 -145 L393 -145 L393 -85 Z" /><glyph glyph-name="U_4E0E" unicode="&#x4e0e;" d="M239 761 L299 761 L299 701 L239 701 L239 761 ZM239 684 L299 684 L299 624 L239 624 L239 684 ZM239 607 L299 607 L299 547 L239 547 L239 607 ZM316 607 L376 607 L376 547 L316 547 L316 607 ZM393 607 L453 607 L453 547 L393 547 L393 607 ZM470 607 L530 607 L530 547 L470 547 L470 607 ZM547 607 L607 607 L607 547 L547 547 L547 607 ZM624 607 L684 607 L684 547 L624 547 L624 607 ZM701 607 L761 607 L761 547 L701 547 L701 607 ZM778 607 L838 607 L838 547 L778 547 L778 607 ZM239 530 L299 530 L299 470 L239 470 L239 530 ZM239 453 L299 453 L299 393 L239 393 L239 453 ZM239 376 L299 376 L299 316 L239 316 L239 376 ZM316 376 L376 376 L376 316 L316 316 L316 376 ZM393 376 L453 376 L453 316 L393 316 L393 376 ZM470 376 L530 376 L530 316 L470 316 L470 376 ZM547 376 L607 376 L607 316 L547 316 L547 376 ZM624 376 L684 376 L684 316 L624 316 L624 376 ZM701 376 L761 376 L761 316 L701 316 L701 376 ZM701 299 L761 299 L761 239 L701 239 L701 299 ZM701 222 L761 222 L761 162 L701 162 L701 222 ZM9 145 L68 145 L68 85 L9 85 L9 145 ZM85 145 L145 145 L145 85 L85 85 L85 145 ZM162 145 L222 145 L222 85 L162 85 L162 145 ZM239 145 L299 145 L299 85 L239 85 L239 145 ZM316 145 L376 145 L376 85 L316 85 L316 145 ZM393 145 L453 145 L453 85 L393 85 L393 145 ZM470 145 L530 145 L530 85 L470 85 L470 145 ZM701 145 L761 145 L761 85 L701 85 L701 145 ZM701 68 L761 68 L761 9 L701 9 L701 68 ZM701 -9 L761 -9 L761 -68 L701 -68 L701 -9 ZM470 -85 L530 -85 L530 -145 L470 -145 L470 -85 ZM547 -85 L607 -85 L607 -145 L547 -145 L547 -85 ZM624 -85 L684 -85 L684 -145 L624 -145 L624 -85 Z" /><glyph glyph-name="U_4E16" unicode="&#x4e16;" d="M393 761 L453 761 L453 701 L393 701 L393 761 ZM701 761 L761 761 L761 701 L701 701 L701 761 ZM162 684 L222 684 L222 624 L162 624 L162 684 ZM393 684 L453 684 L453 624 L393 624 L393 684 ZM701 684 L761 684 L761 624 L701 624 L701 684 ZM162 607 L222 607 L222 547 L162 547 L162 607 ZM393 607 L453 607 L453 547 L393 547 L393 607 ZM701 607 L761 607 L761 547 L701 547 L701 607 ZM9 530 L68 530 L68 470 L9 470 L9 530 ZM85 530 L145 530 L145 470 L85 470 L85 530 ZM162 530 L222 530 L222 470 L162 470 L162 530 ZM239 530 L299 530 L299 470 L239 470 L239 530 ZM316 530 L376 530 L376 470 L316 470 L316 530 ZM393 530 L453 530 L453 470 L393 470 L393 530 ZM470 530 L530 530 L530 470 L470 470 L470 530 ZM547 530 L607 530 L607 470 L547 470 L547 530 ZM624 530 L684 530 L684 470 L624 470 L624 530 ZM701 530 L761 530 L761 470 L701 470 L701 530 ZM778 530 L838 530 L838 470 L778 470 L778 530 ZM855 530 L915 530 L915 470 L855 470 L855 530 ZM162 453 L222 453 L222 393 L162 393 L162 453 ZM393 453 L453 453 L453 393 L393 393 L393 453 ZM701 453 L761 453 L761 393 L701 393 L701 453 ZM162 376 L222 376 L222 316 L162 316 L162 376 ZM393 376 L453 376 L453 316 L393 316 L393 376 ZM701 376 L761 376 L761 316 L701 316 L701 376 ZM162 299 L222 299 L222 239 L162 239 L162 299 ZM393 299 L453 299 L453 239 L393 239 L393 299 ZM701 299 L761 299 L761 239 L701 239 L701 299 ZM162 222 L222 222 L222 162 L162 162 L162 222 ZM393 222 L453 222 L453 162 L393 162 L393 222 ZM470 222 L530 222 L530 162 L470 162 L470 222 ZM547 222 L607 222 L607 162 L547 162 L547 222 ZM624 222 L684 222 L684 162 L624 162 L624 222 ZM701 222 L761 222 L761 162 L701 162 L701 222 ZM162 145 L222 145 L222 85 L162 85 L162 145 ZM393 145 L453 145 L453 85 L393 85 L393 145 ZM701 145 L761 145 L761 85 L701 85 L701 145 ZM162 68 L222 68 L222 9 L162 9 L162 68 ZM162 -9 L222 -9 L222 -68 L162 -68 L162 -9 ZM162 -85 L222 -85 L222 -145 L162 -145 L162 -85 ZM239 -85 L299 -85 L299 -145 L239 -145 L239 -85 ZM316 -85 L376 -85 L376 -145 L316 -145 L316 -85 ZM393 -85 L453 -85 L453 -145 L393 -145 L393 -85 ZM470 -85 L530 -85 L530 -145 L470 -145 L470 -85 ZM547 -85 L607 -85 L607 -145 L547 -145 L547 -85 ZM624 -85 L684 -85 L684 -145 L624 -145 L624 -85 ZM701 -85 L761 -85 L761 -145 L701 -145 L701 -85 ZM778 -85 L838 -85 L838 -145 L778 -145 L778 -85 ZM855 -85 L915 -85 L915 -145 L855 -145 L855 -85 Z" /><glyph glyph-name="U_4E18" unicode="&#x4e18;" d="M470 761 L530 761 L530 701 L470 701 L470 761 ZM547 761 L607 761 L607 701 L547 701 L547 761 ZM624 761 L684 761 L684 701 L624 701 L624 761 ZM701 761 L761 761 L761 701 L701 701 L701 761 ZM162 684 L222 684 L222 624 L162 624 L162 684 ZM239 684 L299 684 L299 624 L239 624 L239 684 ZM316 684 L376 684 L376 624 L316 624 L316 684 ZM393 684 L453 684 L453 624 L393 624 L393 684 ZM162 607 L222 607 L222 547 L162 547 L162 607 ZM162 530 L222 530 L222 470 L162 470 L162 530 ZM162 453 L222 453 L222 393 L162 393 L162 453 ZM162 376 L222 376 L222 316 L162 316 L162 376 ZM239 376 L299 376 L299 316 L239 316 L239 376 ZM316 376 L376 376 L376 316 L316 316 L316 376 ZM393 376 L453 376 L453 316 L393 316 L393 376 ZM470 376 L530 376 L530 316 L470 316 L470 376 ZM547 376 L607 376 L607 316 L547 316 L547 376 ZM624 376 L684 376 L684 316 L624 316 L624 376 ZM701 376 L761 376 L761 316 L701 316 L701 376 ZM778 376 L838 376 L838 316 L778 316 L778 376 ZM162 299 L222 299 L222 239 L162 239 L162 299 ZM547 299 L607 299 L607 239 L547 239 L547 299 ZM162 222 L222 222 L222 162 L162 162 L162 222 ZM547 222 L607 222 L607 162 L547 162 L547 222 ZM162 145 L222 145 L222 85 L162 85 L162 145 ZM547 145 L607 145 L607 85 L547 85 L547 145 ZM162 68 L222 68 L222 9 L162 9 L162 68 ZM547 68 L607 68 L607 9 L547 9 L547 68 ZM162 -9 L222 -9 L222 -68 L162 -68 L162 -9 ZM547 -9 L607 -9 L607 -68 L547 -68 L547 -9 ZM9 -85 L68 -85 L68 -145 L9 -145 L9 -85 ZM85 -85 L145 -85 L145 -145 L85 -145 L85 -85 ZM162 -85 L222 -85 L222 -145 L162 -145 L162 -85 ZM239 -85 L299 -85 L299 -145 L239 -145 L239 -85 ZM316 -85 L376 -85 L376 -145 L316 -145 L316 -85 ZM393 -85 L453 -85 L453 -145 L393 -145 L393 -85 ZM470 -85 L530 -85 L530 -145 L470 -145 L470 -85 ZM547 -85 L607 -85 L607 -145 L547 -145 L547 -85 ZM624 -85 L684 -85 L684 -145 L624 -145 L624 -85 ZM701 -85 L761 -85 L761 -145 L701 -145 L701 -85 ZM778 -85 L838 -85 L838 -145 L778 -145 L778 -85 ZM855 -85 L915 -85 L915 -145 L855 -145 L855 -85 Z" /><glyph glyph-name="U_4E24" unicode="&#x4e24;" d="M9 761 L68 761 L68 701 L9 701 L9 761 ZM85 761 L145 761 L145 701 L85 701 L85 761 ZM162 761 L222 761 L222 701 L162 701 L162 761 ZM239 761 L299 761 L299 701 L239 701 L239 761 ZM316 761 L376 761 L376 701 L316 701 L316 761 ZM393 761 L453 761 L453 701 L393 701 L393 761 ZM470 761 L530 761 L530 701 L470 701 L470 761 ZM547 761 L607 761 L607 701 L547 701 L547 761 ZM624 761 L684 761 L684 701 L624 701 L624 761 ZM701 761 L761 761 L761 701 L701 701 L701 761 ZM778 761 L838 761 L838 701 L778 701 L778 761 ZM855 761 L915 761 L915 701 L855 701 L855 761 ZM316 684 L376 684 L376 624 L316 624 L316 684 ZM547 684 L607 684 L607 624 L547 624 L547 684 ZM316 607 L376 607 L376 547 L316 547 L316 607 ZM547 607 L607 607 L607 547 L547 547 L547 607 ZM85 530 L145 530 L145 470 L85 470 L85 530 ZM162 530 L222 530 L222 470 L162 470 L162 530 ZM239 530 L299 530 L299 470 L239 470 L239 530 ZM316 530 L376 530 L376 470 L316 470 L316 530 ZM393 530 L453 530 L453 470 L393 470 L393 530 ZM470 530 L530 530 L530 470 L470 470 L470 530 ZM547 530 L607 530 L607 470 L547 470 L547 530 ZM624 530 L684 530 L684 470 L624 470 L624 530 ZM701 530 L761 530 L761 470 L701 470 L701 530 ZM778 530 L838 530 L838 470 L778 470 L778 530 ZM85 453 L145 453 L145 393 L85 393 L85 453 ZM316 453 L376 453 L376 393 L316 393 L316 453 ZM547 453 L607 453 L607 393 L547 393 L547 453 ZM778 453 L838 453 L838 393 L778 393 L778 453 ZM85 376 L145 376 L145 316 L85 316 L85 376 ZM316 376 L376 376 L376 316 L316 316 L316 376 ZM547 376 L607 376 L607 316 L547 316 L547 376 ZM778 376 L838 376 L838 316 L778 316 L778 376 ZM85 299 L145 299 L145 239 L85 239 L85 299 ZM316 299 L376 299 L376 239 L316 239 L316 299 ZM547 299 L607 299 L607 239 L547 239 L547 299 ZM778 299 L838 299 L838 239 L778 239 L778 299 ZM85 222 L145 222 L145 162 L85 162 L85 222 ZM239 222 L299 222 L299 162 L239 162 L239 222 ZM393 222 L453 222 L453 162 L393 162 L393 222 ZM547 222 L607 222 L607 162 L547 162 L547 222 ZM624 222 L684 222 L684 162 L624 162 L624 222 ZM778 222 L838 222 L838 162 L778 162 L778 222 ZM85 145 L145 145 L145 85 L85 85 L85 145 ZM239 145 L299 145 L299 85 L239 85 L239 145 ZM470 145 L530 145 L530 85 L470 85 L470 145 ZM701 145 L761 145 L761 85 L701 85 L701 145 ZM778 145 L838 145 L838 85 L778 85 L778 145 ZM85 68 L145 68 L145 9 L85 9 L85 68 ZM162 68 L222 68 L222 9 L162 9 L162 68 ZM393 68 L453 68 L453 9 L393 9 L393 68 ZM778 68 L838 68 L838 9 L778 9 L778 68 ZM85 -9 L145 -9 L145 -68 L85 -68 L85 -9 ZM778 -9 L838 -9 L838 -68 L778 -68 L778 -9 ZM85 -85 L145 -85 L145 -145 L85 -145 L85 -85 ZM624 -85 L684 -85 L684 -145 L624 -145 L624 -85 ZM701 -85 L761 -85 L761 -145 L701 -145 L701 -85 ZM778 -85 L838 -85 L838 -145 L778 -145 L778 -85 Z" /><glyph glyph-name="U_4E2A" unicode="&#x4e2a;" d="M393 761 L453 761 L453 701 L393 701 L393 761 ZM393 684 L453 684 L453 624 L393 624 L393 684 ZM316 607 L376 607 L376 547 L316 547 L316 607 ZM470 607 L530 607 L530 547 L470 547 L470 607 ZM239 530 L299 530 L299 470 L239 470 L239 530 ZM547 530 L607 530 L607 470 L547 470 L547 530 ZM162 453 L222 453 L222 393 L162 393 L162 453 ZM393 453 L453 453 L453 393 L393 393 L393 453 ZM624 453 L684 453 L684 393 L624 393 L624 453 ZM85 376 L145 376 L145 316 L85 316 L85 376 ZM393 376 L453 376 L453 316 L393 316 L393 376 ZM701 376 L761 376 L761 316 L701 316 L701 376 ZM9 299 L68 299 L68 239 L9 239 L9 299 ZM393 299 L453 299 L453 239 L393 239 L393 299 ZM778 299 L838 299 L838 239 L778 239 L778 299 ZM855 299 L915 299 L915 239 L855 239 L855 299 ZM393 222 L453 222 L453 162 L393 162 L393 222 ZM393 145 L453 145 L453 85 L393 85 L393 145 ZM393 68 L453 68 L453 9 L393 9 L393 68 ZM393 -9 L453 -9 L453 -68 L393 -68 L393 -9 ZM393 -85 L453 -85 L453 -145 L393 -145 L393 -85 Z" /><glyph glyph-name="U_4E2D" unicode="&#x4e2d;" d="M393 761 L453 761 L453 701 L393 701 L393 761 ZM393 684 L453 684 L453 624 L393 624 L393 684 ZM85 607 L145 607 L145 547 L85 547 L85 607 ZM162 607 L222 607 L222 547 L162 547 L162 607 ZM239 607 L299 607 L299 547 L239 547 L239 607 ZM316 607 L376 607 L376 547 L316 547 L316 607 ZM393 607 L453 607 L453 547 L393 547 L393 607 ZM470 607 L530 607 L530 547 L470 547 L470 607 ZM547 607 L607 607 L607 547 L547 547 L547 607 ZM624 607 L684 607 L684 547 L624 547 L624 607 ZM701 607 L761 607 L761 547 L701 547 L701 607 ZM778 607 L838 607 L838 547 L778 547 L778 607 ZM85 530 L145 530 L145 470 L85 470 L85 530 ZM393 530 L453 530 L453 470 L393 470 L393 530 ZM778 530 L838 530 L838 470 L778 470 L778 530 ZM85 453 L145 453 L145 393 L85 393 L85 453 ZM393 453 L453 453 L453 393 L393 393 L393 453 ZM778 453 L838 453 L838 393 L778 393 L778 453 ZM85 376 L145 376 L145 316 L85 316 L85 376 ZM393 376 L453 376 L453 316 L393 316 L393 376 ZM778 376 L838 376 L838 316 L778 316 L778 376 ZM85 299 L145 299 L145 239 L85 239 L85 299 ZM162 299 L222 299 L222 239 L162 239 L162 299 ZM239 299 L299 299 L299 239 L239 239 L239 299 ZM316 299 L376 299 L376 239 L316 239 L316 299 ZM393 299 L453 299 L453 239 L393 239 L393 299 ZM470 299 L530 299 L530 239 L470 239 L470 299 ZM547 299 L607 299 L607 239 L547 239 L547 299 ZM624 299 L684 299 L684 239 L624 239 L624 299 ZM701 299 L761 299 L761 239 L701 239 L701 299 ZM778 299 L838 299 L838 239 L778 239 L778 299 ZM85 222 L145 222 L145 162 L85 162 L85 222 ZM393 222 L453 222 L453 162 L393 162 L393 222 ZM778 222 L838 222 L838 162 L778 162 L778 222 ZM393 145 L453 145 L453 85 L393 85 L393 145 ZM393 68 L453 68 L453 9 L393 9 L393 68 ZM393 -9 L453 -9 L453 -68 L393 -68 L393 -9 ZM393 -85 L453 -85 L453 -145 L393 -145 L393 -85 Z" /><glyph glyph-name="U_4E34" unicode="&#x4e34;" d="M162 761 L222 761 L222 701 L162 701 L162 761 ZM393 761 L453 761 L453 701 L393 701 L393 761 ZM162 684 L222 684 L222 624 L162 624 L162 684 ZM393 684 L453 684 L453 624 L393 624 L393 684 ZM778 684 L838 684 L838 624 L778 624 L778 684 ZM9 607 L68 607 L68 547 L9 547 L9 607 ZM162 607 L222 607 L222 547 L162 547 L162 607 ZM393 607 L453 607 L453 547 L393 547 L393 607 ZM470 607 L530 607 L530 547 L470 547 L470 607 ZM547 607 L607 607 L607 547 L547 547 L547 607 ZM624 607 L684 607 L684 547 L624 547 L624 607 ZM701 607 L761 607 L761 547 L701 547 L701 607 ZM778 607 L838 607 L838 547 L778 547 L778 607 ZM855 607 L915 607 L915 547 L855 547 L855 607 ZM9 530 L68 530 L68 470 L9 470 L9 530 ZM162 530 L222 530 L222 470 L162 470 L162 530 ZM316 530 L376 530 L376 470 L316 470 L316 530 ZM9 453 L68 453 L68 393 L9 393 L9 453 ZM162 453 L222 453 L222 393 L162 393 L162 453 ZM239 453 L299 453 L299 393 L239 393 L239 453 ZM547 453 L607 453 L607 393 L547 393 L547 453 ZM9 376 L68 376 L68 316 L9 316 L9 376 ZM162 376 L222 376 L222 316 L162 316 L162 376 ZM624 376 L684 376 L684 316 L624 316 L624 376 ZM9 299 L68 299 L68 239 L9 239 L9 299 ZM162 299 L222 299 L222 239 L162 239 L162 299 ZM316 299 L376 299 L376 239 L316 239 L316 299 ZM393 299 L453 299 L453 239 L393 239 L393 299 ZM470 299 L530 299 L530 239 L470 239 L470 299 ZM547 299 L607 299 L607 239 L547 239 L547 299 ZM624 299 L684 299 L684 239 L624 239 L624 299 ZM701 299 L761 299 L761 239 L701 239 L701 299 ZM778 299 L838 299 L838 239 L778 239 L778 299 ZM9 222 L68 222 L68 162 L9 162 L9 222 ZM162 222 L222 222 L222 162 L162 162 L162 222 ZM316 222 L376 222 L376 162 L316 162 L316 222 ZM547 222 L607 222 L607 162 L547 162 L547 222 ZM778 222 L838 222 L838 162 L778 162 L778 222 ZM9 145 L68 145 L68 85 L9 85 L9 145 ZM162 145 L222 145 L222 85 L162 85 L162 145 ZM316 145 L376 145 L376 85 L316 85 L316 145 ZM547 145 L607 145 L607 85 L547 85 L547 145 ZM778 145 L838 145 L838 85 L778 85 L778 145 ZM162 68 L222 68 L222 9 L162 9 L162 68 ZM316 68 L376 68 L376 9 L316 9 L316 68 ZM547 68 L607 68 L607 9 L547 9 L547 68 ZM778 68 L838 68 L838 9 L778 9 L778 68 ZM162 -9 L222 -9 L222 -68 L162 -68 L162 -9 ZM316 -9 L376 -9 L376 -68 L316 -68 L316 -9 ZM393 -9 L453 -9 L453 -68 L393 -68 L393 -9 ZM470 -9 L530 -9 L530 -68 L470 -68 L470 -9 ZM547 -9 L607 -9 L607 -68 L547 -68 L547 -9 ZM624 -9 L684 -9 L684 -68 L624 -68 L624 -9 ZM701 -9 L761 -9 L761 -68 L701 -68 L701 -9 ZM778 -9 L838 -9 L838 -68 L778 -68 L778 -9 ZM162 -85 L222 -85 L222 -145 L162 -145 L162 -85 ZM316 -85 L376 -85 L376 -145 L316 -145 L316 -85 ZM778 -85 L838 -85 L838 -145 L778 -145 L778 -85 Z" /><glyph glyph-name="U_4E3A" unicode="&#x4e3a;" d="M393 761 L453 761 L453 701 L393 701 L393 761 ZM162 684 L222 684 L222 624 L162 624 L162 684 ZM393 684 L453 684 L453 624 L393 624 L393 684 ZM239 607 L299 607 L299 547 L239 547 L239 607 ZM393 607 L453 607 L453 547 L393 547 L393 607 ZM393 530 L453 530 L453 470 L393 470 L393 530 ZM85 453 L145 453 L145 393 L85 393 L85 453 ZM162 453 L222 453 L222 393 L162 393 L162 453 ZM239 453 L299 453 L299 393 L239 393 L239 453 ZM316 453 L376 453 L376 393 L316 393 L316 453 ZM393 453 L453 453 L453 393 L393 393 L393 453 ZM470 453 L530 453 L530 393 L470 393 L470 453 ZM547 453 L607 453 L607 393 L547 393 L547 453 ZM624 453 L684 453 L684 393 L624 393 L624 453 ZM701 453 L761 453 L761 393 L701 393 L701 453 ZM778 453 L838 453 L838 393 L778 393 L778 453 ZM393 376 L453 376 L453 316 L393 316 L393 376 ZM778 376 L838 376 L838 316 L778 316 L778 376 ZM393 299 L453 299 L453 239 L393 239 L393 299 ZM547 299 L607 299 L607 239 L547 239 L547 299 ZM778 299 L838 299 L838 239 L778 239 L778 299 ZM316 222 L376 222 L376 162 L316 162 L316 222 ZM624 222 L684 222 L684 162 L624 162 L624 222 ZM778 222 L838 222 L838 162 L778 162 L778 222 ZM316 145 L376 145 L376 85 L316 85 L316 145 ZM624 145 L684 145 L684 85 L624 85 L624 145 ZM778 145 L838 145 L838 85 L778 85 L778 145 ZM239 68 L299 68 L299 9 L239 9 L239 68 ZM778 68 L838 68 L838 9 L778 9 L778 68 ZM162 -9 L222 -9 L222 -68 L162 -68 L162 -9 ZM778 -9 L838 -9 L838 -68 L778 -68 L778 -9 ZM85 -85 L145 -85 L145 -145 L85 -145 L85 -85 ZM624 -85 L684 -85 L684 -145 L624 -145 L624 -85 ZM701 -85 L761 -85 L761 -145 L701 -145 L701 -85 Z" /><glyph glyph-name="U_4E3B" unicode="&#x4e3b;" d="M393 761 L453 761 L453 701 L393 701 L393 761 ZM470 684 L530 684 L530 624 L470 624 L470 684 ZM85 607 L145 607 L145 547 L85 547 L85 607 ZM162 607 L222 607 L222 547 L162 547 L162 607 ZM239 607 L299 607 L299 547 L239 547 L239 607 ZM316 607 L376 607 L376 547 L316 547 L316 607 ZM393 607 L453 607 L453 547 L393 547 L393 607 ZM470 607 L530 607 L530 547 L470 547 L470 607 ZM547 607 L607 607 L607 547 L547 547 L547 607 ZM624 607 L684 607 L684 547 L624 547 L624 607 ZM701 607 L761 607 L761 547 L701 547 L701 607 ZM778 607 L838 607 L838 547 L778 547 L778 607 ZM855 607 L915 607 L915 547 L855 547 L855 607 ZM470 530 L530 530 L530 470 L470 470 L470 530 ZM470 453 L530 453 L530 393 L470 393 L470 453 ZM470 376 L530 376 L530 316 L470 316 L470 376 ZM162 299 L222 299 L222 239 L162 239 L162 299 ZM239 299 L299 299 L299 239 L239 239 L239 299 ZM316 299 L376 299 L376 239 L316 239 L316 299 ZM393 299 L453 299 L453 239 L393 239 L393 299 ZM470 299 L530 299 L530 239 L470 239 L470 299 ZM547 299 L607 299 L607 239 L547 239 L547 299 ZM624 299 L684 299 L684 239 L624 239 L624 299 ZM701 299 L761 299 L761 239 L701 239 L701 299 ZM778 299 L838 299 L838 239 L778 239 L778 299 ZM470 222 L530 222 L530 162 L470 162 L470 222 ZM470 145 L530 145 L530 85 L470 85 L470 145 ZM470 68 L530 68 L530 9 L470 9 L470 68 ZM470 -9 L530 -9 L530 -68 L470 -68 L470 -9 ZM85 -85 L145 -85 L145 -145 L85 -145 L85 -85 ZM162 -85 L222 -85 L222 -145 L162 -145 L162 -85 ZM239 -85 L299 -85 L299 -145 L239 -145 L239 -85 ZM316 -85 L376 -85 L376 -145 L316 -145 L316 -85 ZM393 -85 L453 -85 L453 -145 L393 -145 L393 -85 ZM470 -85 L530 -85 L530 -145 L470 -145 L470 -85 ZM547 -85 L607 -85 L607 -145 L547 -145 L547 -85 ZM624 -85 L684 -85 L684 -145 L624 -145 L624 -85 ZM701 -85 L761 -85 L761 -145 L701 -145 L701 -85 ZM778 -85 L838 -85 L838 -145 L778 -145 L778 -85 ZM855 -85 L915 -85 L915 -145 L855 -145 L855 -85 Z" /><glyph glyph-name="U_4E43" unicode="&#x4e43;" d="M85 761 L145 761 L145 701 L85 701 L85 761 ZM162 761 L222 761 L222 701 L162 701 L162 761 ZM239 761 L299 761 L299 701 L239 701 L239 761 ZM316 761 L376 761 L376 701 L316 701 L316 761 ZM393 761 L453 761 L453 701 L393 701 L393 761 ZM470 761 L530 761 L530 701 L470 701 L470 761 ZM547 761 L607 761 L607 701 L547 701 L547 761 ZM624 761 L684 761 L684 701 L624 701 L624 761 ZM701 761 L761 761 L761 701 L701 701 L701 761 ZM316 684 L376 684 L376 624 L316 624 L316 684 ZM701 684 L761 684 L761 624 L701 624 L701 684 ZM316 607 L376 607 L376 547 L316 547 L316 607 ZM624 607 L684 607 L684 547 L624 547 L624 607 ZM316 530 L376 530 L376 470 L316 470 L316 530 ZM624 530 L684 530 L684 470 L624 470 L624 530 ZM316 453 L376 453 L376 393 L316 393 L316 453 ZM547 453 L607 453 L607 393 L547 393 L547 453 ZM239 376 L299 376 L299 316 L239 316 L239 376 ZM547 376 L607 376 L607 316 L547 316 L547 376 ZM624 376 L684 376 L684 316 L624 316 L624 376 ZM701 376 L761 376 L761 316 L701 316 L701 376 ZM778 376 L838 376 L838 316 L778 316 L778 376 ZM239 299 L299 299 L299 239 L239 239 L239 299 ZM778 299 L838 299 L838 239 L778 239 L778 299 ZM239 222 L299 222 L299 162 L239 162 L239 222 ZM778 222 L838 222 L838 162 L778 162 L778 222 ZM162 145 L222 145 L222 85 L162 85 L162 145 ZM778 145 L838 145 L838 85 L778 85 L778 145 ZM162 68 L222 68 L222 9 L162 9 L162 68 ZM778 68 L838 68 L838 9 L778 9 L778 68 ZM85 -9 L145 -9 L145 -68 L85 -68 L85 -9 ZM470 -9 L530 -9 L530 -68 L470 -68 L470 -9 ZM701 -9 L761 -9 L761 -68 L701 -68 L701 -9 ZM9 -85 L68 -85 L68 -145 L9 -145 L9 -85 ZM547 -85 L607 -85 L607 -145 L547 -145 L547 -85 ZM624 -85 L684 -85 L684 -145 L624 -145 L624 -85 Z" /><glyph glyph-name="U_4E4B" unicode="&#x4e4b;" d="M316 761 L376 761 L376 701 L316 701 L316 761 ZM393 684 L453 684 L453 624 L393 624 L393 684 ZM393 607 L453 607 L453 547 L393 547 L393 607 ZM624 607 L684 607 L684 547 L624 547 L624 607 ZM85 530 L145 530 L145 470 L85 470 L85 530 ZM162 530 L222 530 L222 470 L162 470 L162 530 ZM239 530 L299 530 L299 470 L239 470 L239 530 ZM316 530 L376 530 L376 470 L316 470 L316 530 ZM393 530 L453 530 L453 470 L393 470 L393 530 ZM470 530 L530 530 L530 470 L470 470 L470 530 ZM547 530 L607 530 L607 470 L547 470 L547 530 ZM624 530 L684 530 L684 470 L624 470 L624 530 ZM701 530 L761 530 L761 470 L701 470 L701 530 ZM547 453 L607 453 L607 393 L547 393 L547 453 ZM470 376 L530 376 L530 316 L470 316 L470 376 ZM393 299 L453 299 L453 239 L393 239 L393 299 ZM316 222 L376 222 L376 162 L316 162 L316 222 ZM239 145 L299 145 L299 85 L239 85 L239 145 ZM85 68 L145 68 L145 9 L85 9 L85 68 ZM162 68 L222 68 L222 9 L162 9 L162 68 ZM9 -9 L68 -9 L68 -68 L9 -68 L9 -9 ZM239 -9 L299 -9 L299 -68 L239 -68 L239 -9 ZM9 -85 L68 -85 L68 -145 L9 -145 L9 -85 ZM316 -85 L376 -85 L376 -145 L316 -145 L316 -85 ZM393 -85 L453 -85 L453 -145 L393 -145 L393 -85 ZM470 -85 L530 -85 L530 -145 L470 -145 L470 -85 ZM547 -85 L607 -85 L607 -145 L547 -145 L547 -85 ZM624 -85 L684 -85 L684 -145 L624 -145 L624 -85 ZM701 -85 L761 -85 L761 -145 L701 -145 L701 -85 ZM778 -85 L838 -85 L838 -145 L778 -145 L778 -85 ZM855 -85 L915 -85 L915 -145 L855 -145 L855 -85 Z" /><glyph glyph-name="U_4E86" unicode="&#x4e86;" d="M85 761 L145 761 L145 701 L85 701 L85 761 ZM162 761 L222 761 L222 701 L162 701 L162 761 ZM239 761 L299 761 L299 701 L239 701 L239 761 ZM316 761 L376 761 L376 701 L316 701 L316 761 ZM393 761 L453 761 L453 701 L393 701 L393 761 ZM470 761 L530 761 L530 701 L470 701 L470 761 ZM547 761 L607 761 L607 701 L547 701 L547 761 ZM624 761 L684 761 L684 701 L624 701 L624 761 ZM701 761 L761 761 L761 701 L701 701 L701 761 ZM778 761 L838 761 L838 701 L778 701 L778 761 ZM701 684 L761 684 L761 624 L701 624 L701 684 ZM624 607 L684 607 L684 547 L624 547 L624 607 ZM470 530 L530 530 L530 470 L470 470 L470 530 ZM547 530 L607 530 L607 470 L547 470 L547 530 ZM470 453 L530 453 L530 393 L470 393 L470 453 ZM470 376 L530 376 L530 316 L470 316 L470 376 ZM470 299 L530 299 L530 239 L470 239 L470 299 ZM470 222 L530 222 L530 162 L470 162 L470 222 ZM470 145 L530 145 L530 85 L470 85 L470 145 ZM470 68 L530 68 L530 9 L470 9 L470 68 ZM316 -9 L376 -9 L376 -68 L316 -68 L316 -9 ZM470 -9 L530 -9 L530 -68 L470 -68 L470 -9 ZM393 -85 L453 -85 L453 -145 L393 -145 L393 -85 Z" /><glyph glyph-name="U_4E8B" unicode="&#x4e8b;" d="M393 761 L453 761 L453 701 L393 701 L393 761 ZM9 684 L68 684 L68 624 L9 624 L9 684 ZM85 684 L145 684 L145 624 L85 624 L85 684 ZM162 684 L222 684 L222 624 L162 624 L162 684 ZM239 684 L299 684 L299 624 L239 624 L239 684 ZM316 684 L376 684 L376 624 L316 624 L316 684 ZM393 684 L453 684 L453 624 L393 624 L393 684 ZM470 684 L530 684 L530 624 L470 624 L470 684 ZM547 684 L607 684 L607 624 L547 624 L547 684 ZM624 684 L684 684 L684 624 L624 624 L624 684 ZM701 684 L761 684 L761 624 L701 624 L701 684 ZM778 684 L838 684 L838 624 L778 624 L778 684 ZM855 684 L915 684 L915 624 L855 624 L855 684 ZM393 607 L453 607 L453 547 L393 547 L393 607 ZM162 530 L222 530 L222 470 L162 470 L162 530 ZM239 530 L299 530 L299 470 L239 470 L239 530 ZM316 530 L376 530 L376 470 L316 470 L316 530 ZM393 530 L453 530 L453 470 L393 470 L393 530 ZM470 530 L530 530 L530 470 L470 470 L470 530 ZM547 530 L607 530 L607 470 L547 470 L547 530 ZM624 530 L684 530 L684 470 L624 470 L624 530 ZM162 453 L222 453 L222 393 L162 393 L162 453 ZM393 453 L453 453 L453 393 L393 393 L393 453 ZM624 453 L684 453 L684 393 L624 393 L624 453 ZM85 376 L145 376 L145 316 L85 316 L85 376 ZM162 376 L222 376 L222 316 L162 316 L162 376 ZM239 376 L299 376 L299 316 L239 316 L239 376 ZM316 376 L376 376 L376 316 L316 316 L316 376 ZM393 376 L453 376 L453 316 L393 316 L393 376 ZM470 376 L530 376 L530 316 L470 316 L470 376 ZM547 376 L607 376 L607 316 L547 316 L547 376 ZM624 376 L684 376 L684 316 L624 316 L624 376 ZM701 376 L761 376 L761 316 L701 316 L701 376 ZM393 299 L453 299 L453 239 L393 239 L393 299 ZM701 299 L761 299 L761 239 L701 239 L701 299 ZM9 222 L68 222 L68 162 L9 162 L9 222 ZM85 222 L145 222 L145 162 L85 162 L85 222 ZM162 222 L222 222 L222 162 L162 162 L162 222 ZM239 222 L299 222 L299 162 L239 162 L239 222 ZM316 222 L376 222 L376 162 L316 162 L316 222 ZM393 222 L453 222 L453 162 L393 162 L393 222 ZM470 222 L530 222 L530 162 L470 162 L470 222 ZM547 222 L607 222 L607 162 L547 162 L547 222 ZM624 222 L684 222 L684 162 L624 162 L624 222 ZM701 222 L761 222 L761 162 L701 162 L701 222 ZM778 222 L838 222 L838 162 L778 162 L778 222 ZM855 222 L915 222 L915 162 L855 162 L855 222 ZM393 145 L453 145 L453 85 L393 85 L393 145 ZM701 145 L761 145 L761 85 L701 85 L701 145 ZM85 68 L145 68 L145 9 L85 9 L85 68 ZM162 68 L222 68 L222 9 L162 9 L162 68 ZM239 68 L299 68 L299 9 L239 9 L239 68 ZM316 68 L376 68 L376 9 L316 9 L316 68 ZM393 68 L453 68 L453 9 L393 9 L393 68 ZM470 68 L530 68 L530 9 L470 9 L470 68 ZM547 68 L607 68 L607 9 L547 9 L547 68 ZM624 68 L684 68 L684 9 L624 9 L624 68 ZM701 68 L761 68 L761 9 L701 9 L701 68 ZM393 -9 L453 -9 L453 -68 L393 -68 L393 -9 ZM316 -85 L376 -85 L376 -145 L316 -145 L316 -85 ZM393 -85 L453 -85 L453 -145 L393 -145 L393 -85 Z" /><glyph glyph-name="U_4E8E" unicode="&#x4e8e;" d="M85 684 L145 684 L145 624 L85 624 L85 684 ZM162 684 L222 684 L222 624 L162 624 L162 684 ZM239 684 L299 684 L299 624 L239 624 L239 684 ZM316 684 L376 684 L376 624 L316 624 L316 684 ZM393 684 L453 684 L453 624 L393 624 L393 684 ZM470 684 L530 684 L530 624 L470 624 L470 684 ZM547 684 L607 684 L607 624 L547 624 L547 684 ZM624 684 L684 684 L684 624 L624 624 L624 684 ZM701 684 L761 684 L761 624 L701 624 L701 684 ZM393 607 L453 607 L453 547 L393 547 L393 607 ZM393 530 L453 530 L453 470 L393 470 L393 530 ZM393 453 L453 453 L453 393 L393 393 L393 453 ZM9 376 L68 376 L68 316 L9 316 L9 376 ZM85 376 L145 376 L145 316 L85 316 L85 376 ZM162 376 L222 376 L222 316 L162 316 L162 376 ZM239 376 L299 376 L299 316 L239 316 L239 376 ZM316 376 L376 376 L376 316 L316 316 L316 376 ZM393 376 L453 376 L453 316 L393 316 L393 376 ZM470 376 L530 376 L530 316 L470 316 L470 376 ZM547 376 L607 376 L607 316 L547 316 L547 376 ZM624 376 L684 376 L684 316 L624 316 L624 376 ZM701 376 L761 376 L761 316 L701 316 L701 376 ZM778 376 L838 376 L838 316 L778 316 L778 376 ZM393 299 L453 299 L453 239 L393 239 L393 299 ZM393 222 L453 222 L453 162 L393 162 L393 222 ZM393 145 L453 145 L453 85 L393 85 L393 145 ZM393 68 L453 68 L453 9 L393 9 L393 68 ZM239 -9 L299 -9 L299 -68 L239 -68 L239 -9 ZM393 -9 L453 -9 L453 -68 L393 -68 L393 -9 ZM316 -85 L376 -85 L376 -145 L316 -145 L316 -85 Z" /><glyph glyph-name="U_4E92" unicode="&#x4e92;" d="M9 761 L68 761 L68 701 L9 701 L9 761 ZM85 761 L145 761 L145 701 L85 701 L85 761 ZM162 761 L222 761 L222 701 L162 701 L162 761 ZM239 761 L299 761 L299 701 L239 701 L239 761 ZM316 761 L376 761 L376 701 L316 701 L316 761 ZM393 761 L453 761 L453 701 L393 701 L393 761 ZM470 761 L530 761 L530 701 L470 701 L470 761 ZM547 761 L607 761 L607 701 L547 701 L547 761 ZM624 761 L684 761 L684 701 L624 701 L624 761 ZM701 761 L761 761 L761 701 L701 701 L701 761 ZM778 761 L838 761 L838 701 L778 701 L778 761 ZM239 684 L299 684 L299 624 L239 624 L239 684 ZM239 607 L299 607 L299 547 L239 547 L239 607 ZM239 530 L299 530 L299 470 L239 470 L239 530 ZM316 530 L376 530 L376 470 L316 470 L316 530 ZM393 530 L453 530 L453 470 L393 470 L393 530 ZM470 530 L530 530 L530 470 L470 470 L470 530 ZM547 530 L607 530 L607 470 L547 470 L547 530 ZM624 530 L684 530 L684 470 L624 470 L624 530 ZM701 530 L761 530 L761 470 L701 470 L701 530 ZM239 453 L299 453 L299 393 L239 393 L239 453 ZM624 453 L684 453 L684 393 L624 393 L624 453 ZM162 376 L222 376 L222 316 L162 316 L162 376 ZM624 376 L684 376 L684 316 L624 316 L624 376 ZM162 299 L222 299 L222 239 L162 239 L162 299 ZM624 299 L684 299 L684 239 L624 239 L624 299 ZM85 222 L145 222 L145 162 L85 162 L85 222 ZM162 222 L222 222 L222 162 L162 162 L162 222 ZM239 222 L299 222 L299 162 L239 162 L239 222 ZM316 222 L376 222 L376 162 L316 162 L316 222 ZM393 222 L453 222 L453 162 L393 162 L393 222 ZM470 222 L530 222 L530 162 L470 162 L470 222 ZM547 222 L607 222 L607 162 L547 162 L547 222 ZM547 145 L607 145 L607 85 L547 85 L547 145 ZM547 68 L607 68 L607 9 L547 9 L547 68 ZM547 -9 L607 -9 L607 -68 L547 -68 L547 -9 ZM9 -85 L68 -85 L68 -145 L9 -145 L9 -85 ZM85 -85 L145 -85 L145 -145 L85 -145 L85 -85 ZM162 -85 L222 -85 L222 -145 L162 -145 L162 -85 ZM239 -85 L299 -85 L299 -145 L239 -145 L239 -85 ZM316 -85 L376 -85 L376 -145 L316 -145 L316 -85 ZM393 -85 L453 -85 L453 -145 L393 -145 L393 -85 ZM470 -85 L530 -85 L530 -145 L470 -145 L470 -85 ZM547 -85 L607 -85 L607 -145 L547 -145 L547 -85 ZM624 -85 L684 -85 L684 -145 L624 -145 L624 -85 ZM701 -85 L761 -85 L761 -145 L701 -145 L701 -85 ZM778 -85 L838 -85 L838 -145 L778 -145 L778 -85 Z" /><glyph glyph-name="U_4EA4" unicode="&#x4ea4;" d="M316 761 L376 761 L376 701 L316 701 L316 761 ZM393 684 L453 684 L453 624 L393 624 L393 684 ZM9 607 L68 607 L68 547 L9 547 L9 607 ZM85 607 L145 607 L145 547 L85 547 L85 607 ZM162 607 L222 607 L222 547 L162 547 L162 607 ZM239 607 L299 607 L299 547 L239 547 L239 607 ZM316 607 L376 607 L376 547 L316 547 L316 607 ZM393 607 L453 607 L453 547 L393 547 L393 607 ZM470 607 L530 607 L530 547 L470 547 L470 607 ZM547 607 L607 607 L607 547 L547 547 L547 607 ZM624 607 L684 607 L684 547 L624 547 L624 607 ZM701 607 L761 607 L761 547 L701 547 L701 607 ZM778 607 L838 607 L838 547 L778 547 L778 607 ZM239 530 L299 530 L299 470 L239 470 L239 530 ZM547 530 L607 530 L607 470 L547 470 L547 530 ZM162 453 L222 453 L222 393 L162 393 L162 453 ZM624 453 L684 453 L684 393 L624 393 L624 453 ZM85 376 L145 376 L145 316 L85 316 L85 376 ZM239 376 L299 376 L299 316 L239 316 L239 376 ZM547 376 L607 376 L607 316 L547 316 L547 376 ZM701 376 L761 376 L761 316 L701 316 L701 376 ZM9 299 L68 299 L68 239 L9 239 L9 299 ZM239 299 L299 299 L299 239 L239 239 L239 299 ZM547 299 L607 299 L607 239 L547 239 L547 299 ZM316 222 L376 222 L376 162 L316 162 L316 222 ZM470 222 L530 222 L530 162 L470 162 L470 222 ZM393 145 L453 145 L453 85 L393 85 L393 145 ZM316 68 L376 68 L376 9 L316 9 L316 68 ZM470 68 L530 68 L530 9 L470 9 L470 68 ZM162 -9 L222 -9 L222 -68 L162 -68 L162 -9 ZM239 -9 L299 -9 L299 -68 L239 -68 L239 -9 ZM547 -9 L607 -9 L607 -68 L547 -68 L547 -9 ZM624 -9 L684 -9 L684 -68 L624 -68 L624 -9 ZM9 -85 L68 -85 L68 -145 L9 -145 L9 -85 ZM85 -85 L145 -85 L145 -145 L85 -145 L85 -85 ZM701 -85 L761 -85 L761 -145 L701 -145 L701 -85 ZM778 -85 L838 -85 L838 -145 L778 -145 L778 -85 Z" /><glyph glyph-name="U_4EAC" unicode="&#x4eac;" d="M393 761 L453 761 L453 701 L393 701 L393 761 ZM9 684 L68 684 L68 624 L9 624 L9 684 ZM85 684 L145 684 L145 624 L85 624 L85 684 ZM162 684 L222 684 L222 624 L162 624 L162 684 ZM239 684 L299 684 L299 624 L239 624 L239 684 ZM316 684 L376 684 L376 624 L316 624 L316 684 ZM393 684 L453 684 L453 624 L393 624 L393 684 ZM470 684 L530 684 L530 624 L470 624 L470 684 ZM547 684 L607 684 L607 624 L547 624 L547 684 ZM624 684 L684 684 L684 624 L624 624 L624 684 ZM701 684 L761 684 L761 624 L701 624 L701 684 ZM778 684 L838 684 L838 624 L778 624 L778 684 ZM162 530 L222 530 L222 470 L162 470 L162 530 ZM239 530 L299 530 L299 470 L239 470 L239 530 ZM316 530 L376 530 L376 470 L316 470 L316 530 ZM393 530 L453 530 L453 470 L393 470 L393 530 ZM470 530 L530 530 L530 470 L470 470 L470 530 ZM547 530 L607 530 L607 470 L547 470 L547 530 ZM624 530 L684 530 L684 470 L624 470 L624 530 ZM162 453 L222 453 L222 393 L162 393 L162 453 ZM624 453 L684 453 L684 393 L624 393 L624 453 ZM162 376 L222 376 L222 316 L162 316 L162 376 ZM624 376 L684 376 L684 316 L624 316 L624 376 ZM162 299 L222 299 L222 239 L162 239 L162 299 ZM239 299 L299 299 L299 239 L239 239 L239 299 ZM316 299 L376 299 L376 239 L316 239 L316 299 ZM393 299 L453 299 L453 239 L393 239 L393 299 ZM470 299 L530 299 L530 239 L470 239 L470 299 ZM547 299 L607 299 L607 239 L547 239 L547 299 ZM624 299 L684 299 L684 239 L624 239 L624 299 ZM393 222 L453 222 L453 162 L393 162 L393 222 ZM162 145 L222 145 L222 85 L162 85 L162 145 ZM393 145 L453 145 L453 85 L393 85 L393 145 ZM547 145 L607 145 L607 85 L547 85 L547 145 ZM85 68 L145 68 L145 9 L85 9 L85 68 ZM393 68 L453 68 L453 9 L393 9 L393 68 ZM624 68 L684 68 L684 9 L624 9 L624 68 ZM9 -9 L68 -9 L68 -68 L9 -68 L9 -9 ZM239 -9 L299 -9 L299 -68 L239 -68 L239 -9 ZM393 -9 L453 -9 L453 -68 L393 -68 L393 -9 ZM701 -9 L761 -9 L761 -68 L701 -68 L701 -9 ZM316 -85 L376 -85 L376 -145 L316 -145 L316 -85 Z" /><glyph glyph-name="U_4EBA" unicode="&#x4eba;" d="M393 761 L453 761 L453 701 L393 701 L393 761 ZM393 684 L453 684 L453 624 L393 624 L393 684 ZM393 607 L453 607 L453 547 L393 547 L393 607 ZM393 530 L453 530 L453 470 L393 470 L393 530 ZM393 453 L453 453 L453 393 L393 393 L393 453 ZM393 376 L453 376 L453 316 L393 316 L393 376 ZM316 299 L376 299 L376 239 L316 239 L316 299 ZM470 299 L530 299 L530 239 L470 239 L470 299 ZM316 222 L376 222 L376 162 L316 162 L316 222 ZM470 222 L530 222 L530 162 L470 162 L470 222 ZM239 145 L299 145 L299 85 L239 85 L239 145 ZM547 145 L607 145 L607 85 L547 85 L547 145 ZM162 68 L222 68 L222 9 L162 9 L162 68 ZM624 68 L684 68 L684 9 L624 9 L624 68 ZM85 -9 L145 -9 L145 -68 L85 -68 L85 -9 ZM701 -9 L761 -9 L761 -68 L701 -68 L701 -9 ZM778 -9 L838 -9 L838 -68 L778 -68 L778 -9 ZM855 -9 L915 -9 L915 -68 L855 -68 L855 -9 ZM9 -85 L68 -85 L68 -145 L9 -145 L9 -85 ZM778 -85 L838 -85 L838 -145 L778 -145 L778 -85 Z" /><glyph glyph-name="U_4ECB" unicode="&#x4ecb;" d="M393 761 L453 761 L453 701 L393 701 L393 761 ZM393 684 L453 684 L453 624 L393 624 L393 684 ZM470 684 L530 684 L530 624 L470 624 L470 684 ZM316 607 L376 607 L376 547 L316 547 L316 607 ZM547 607 L607 607 L607 547 L547 547 L547 607 ZM239 530 L299 530 L299 470 L239 470 L239 530 ZM624 530 L684 530 L684 470 L624 470 L624 530 ZM162 453 L222 453 L222 393 L162 393 L162 453 ZM701 453 L761 453 L761 393 L701 393 L701 453 ZM9 376 L68 376 L68 316 L9 316 L9 376 ZM85 376 L145 376 L145 316 L85 316 L85 376 ZM316 376 L376 376 L376 316 L316 316 L316 376 ZM624 376 L684 376 L684 316 L624 316 L624 376 ZM778 376 L838 376 L838 316 L778 316 L778 376 ZM855 376 L915 376 L915 316 L855 316 L855 376 ZM316 299 L376 299 L376 239 L316 239 L316 299 ZM624 299 L684 299 L684 239 L624 239 L624 299 ZM316 222 L376 222 L376 162 L316 162 L316 222 ZM624 222 L684 222 L684 162 L624 162 L624 222 ZM316 145 L376 145 L376 85 L316 85 L316 145 ZM624 145 L684 145 L684 85 L624 85 L624 145 ZM239 68 L299 68 L299 9 L239 9 L239 68 ZM624 68 L684 68 L684 9 L624 9 L624 68 ZM239 -9 L299 -9 L299 -68 L239 -68 L239 -9 ZM624 -9 L684 -9 L684 -68 L624 -68 L624 -9 ZM162 -85 L222 -85 L222 -145 L162 -145 L162 -85 ZM624 -85 L684 -85 L684 -145 L624 -145 L624 -85 Z" /><glyph glyph-name="U_4ED6" unicode="&#x4ed6;" d="M239 761 L299 761 L299 701 L239 701 L239 761 ZM547 761 L607 761 L607 701 L547 701 L547 761 ZM239 684 L299 684 L299 624 L239 624 L239 684 ZM547 684 L607 684 L607 624 L547 624 L547 684 ZM162 607 L222 607 L222 547 L162 547 L162 607 ZM393 607 L453 607 L453 547 L393 547 L393 607 ZM547 607 L607 607 L607 547 L547 547 L547 607 ZM778 607 L838 607 L838 547 L778 547 L778 607 ZM162 530 L222 530 L222 470 L162 470 L162 530 ZM393 530 L453 530 L453 470 L393 470 L393 530 ZM547 530 L607 530 L607 470 L547 470 L547 530 ZM624 530 L684 530 L684 470 L624 470 L624 530 ZM701 530 L761 530 L761 470 L701 470 L701 530 ZM778 530 L838 530 L838 470 L778 470 L778 530 ZM855 530 L915 530 L915 470 L855 470 L855 530 ZM85 453 L145 453 L145 393 L85 393 L85 453 ZM162 453 L222 453 L222 393 L162 393 L162 453 ZM393 453 L453 453 L453 393 L393 393 L393 453 ZM470 453 L530 453 L530 393 L470 393 L470 453 ZM547 453 L607 453 L607 393 L547 393 L547 453 ZM778 453 L838 453 L838 393 L778 393 L778 453 ZM9 376 L68 376 L68 316 L9 316 L9 376 ZM162 376 L222 376 L222 316 L162 316 L162 376 ZM239 376 L299 376 L299 316 L239 316 L239 376 ZM316 376 L376 376 L376 316 L316 316 L316 376 ZM393 376 L453 376 L453 316 L393 316 L393 376 ZM547 376 L607 376 L607 316 L547 316 L547 376 ZM778 376 L838 376 L838 316 L778 316 L778 376 ZM162 299 L222 299 L222 239 L162 239 L162 299 ZM393 299 L453 299 L453 239 L393 239 L393 299 ZM547 299 L607 299 L607 239 L547 239 L547 299 ZM778 299 L838 299 L838 239 L778 239 L778 299 ZM162 222 L222 222 L222 162 L162 162 L162 222 ZM393 222 L453 222 L453 162 L393 162 L393 222 ZM547 222 L607 222 L607 162 L547 162 L547 222 ZM701 222 L761 222 L761 162 L701 162 L701 222 ZM778 222 L838 222 L838 162 L778 162 L778 222 ZM162 145 L222 145 L222 85 L162 85 L162 145 ZM393 145 L453 145 L453 85 L393 85 L393 145 ZM547 145 L607 145 L607 85 L547 85 L547 145 ZM162 68 L222 68 L222 9 L162 9 L162 68 ZM393 68 L453 68 L453 9 L393 9 L393 68 ZM547 68 L607 68 L607 9 L547 9 L547 68 ZM855 68 L915 68 L915 9 L855 9 L855 68 ZM162 -9 L222 -9 L222 -68 L162 -68 L162 -9 ZM393 -9 L453 -9 L453 -68 L393 -68 L393 -9 ZM855 -9 L915 -9 L915 -68 L855 -68 L855 -9 ZM162 -85 L222 -85 L222 -145 L162 -145 L162 -85 ZM470 -85 L530 -85 L530 -145 L470 -145 L470 -85 ZM547 -85 L607 -85 L607 -145 L547 -145 L547 -85 ZM624 -85 L684 -85 L684 -145 L624 -145 L624 -85 ZM701 -85 L761 -85 L761 -145 L701 -145 L701 -85 ZM778 -85 L838 -85 L838 -145 L778 -145 L778 -85 ZM855 -85 L915 -85 L915 -145 L855 -145 L855 -85 Z" /><glyph glyph-name="U_4EE5" unicode="&#x4ee5;" d="M701 761 L761 761 L761 701 L701 701 L701 761 ZM85 684 L145 684 L145 624 L85 624 L85 684 ZM316 684 L376 684 L376 624 L316 624 L316 684 ZM701 684 L761 684 L761 624 L701 624 L701 684 ZM778 684 L838 684 L838 624 L778 624 L778 684 ZM85 607 L145 607 L145 547 L85 547 L85 607 ZM162 607 L222 607 L222 547 L162 547 L162 607 ZM393 607 L453 607 L453 547 L393 547 L393 607 ZM701 607 L761 607 L761 547 L701 547 L701 607 ZM85 530 L145 530 L145 470 L85 470 L85 530 ZM393 530 L453 530 L453 470 L393 470 L393 530 ZM470 530 L530 530 L530 470 L470 470 L470 530 ZM701 530 L761 530 L761 470 L701 470 L701 530 ZM85 453 L145 453 L145 393 L85 393 L85 453 ZM393 453 L453 453 L453 393 L393 393 L393 453 ZM701 453 L761 453 L761 393 L701 393 L701 453 ZM85 376 L145 376 L145 316 L85 316 L85 376 ZM701 376 L761 376 L761 316 L701 316 L701 376 ZM85 299 L145 299 L145 239 L85 239 L85 299 ZM701 299 L761 299 L761 239 L701 239 L701 299 ZM85 222 L145 222 L145 162 L85 162 L85 222 ZM393 222 L453 222 L453 162 L393 162 L393 222 ZM624 222 L684 222 L684 162 L624 162 L624 222 ZM85 145 L145 145 L145 85 L85 85 L85 145 ZM316 145 L376 145 L376 85 L316 85 L316 145 ZM624 145 L684 145 L684 85 L624 85 L624 145 ZM701 145 L761 145 L761 85 L701 85 L701 145 ZM85 68 L145 68 L145 9 L85 9 L85 68 ZM162 68 L222 68 L222 9 L162 9 L162 68 ZM239 68 L299 68 L299 9 L239 9 L239 68 ZM547 68 L607 68 L607 9 L547 9 L547 68 ZM778 68 L838 68 L838 9 L778 9 L778 68 ZM85 -9 L145 -9 L145 -68 L85 -68 L85 -9 ZM470 -9 L530 -9 L530 -68 L470 -68 L470 -9 ZM855 -9 L915 -9 L915 -68 L855 -68 L855 -9 ZM316 -85 L376 -85 L376 -145 L316 -145 L316 -85 ZM393 -85 L453 -85 L453 -145 L393 -145 L393 -85 ZM855 -85 L915 -85 L915 -145 L855 -145 L855 -85 Z" /><glyph glyph-name="U_4EEC" unicode="&#x4eec;" d="M239 761 L299 761 L299 701 L239 701 L239 761 ZM393 761 L453 761 L453 701 L393 701 L393 761 ZM239 684 L299 684 L299 624 L239 624 L239 684 ZM470 684 L530 684 L530 624 L470 624 L470 684 ZM624 684 L684 684 L684 624 L624 624 L624 684 ZM701 684 L761 684 L761 624 L701 624 L701 684 ZM778 684 L838 684 L838 624 L778 624 L778 684 ZM855 684 L915 684 L915 624 L855 624 L855 684 ZM162 607 L222 607 L222 547 L162 547 L162 607 ZM393 607 L453 607 L453 547 L393 547 L393 607 ZM855 607 L915 607 L915 547 L855 547 L855 607 ZM162 530 L222 530 L222 470 L162 470 L162 530 ZM393 530 L453 530 L453 470 L393 470 L393 530 ZM855 530 L915 530 L915 470 L855 470 L855 530 ZM85 453 L145 453 L145 393 L85 393 L85 453 ZM162 453 L222 453 L222 393 L162 393 L162 453 ZM393 453 L453 453 L453 393 L393 393 L393 453 ZM855 453 L915 453 L915 393 L855 393 L855 453 ZM9 376 L68 376 L68 316 L9 316 L9 376 ZM162 376 L222 376 L222 316 L162 316 L162 376 ZM393 376 L453 376 L453 316 L393 316 L393 376 ZM855 376 L915 376 L915 316 L855 316 L855 376 ZM162 299 L222 299 L222 239 L162 239 L162 299 ZM393 299 L453 299 L453 239 L393 239 L393 299 ZM855 299 L915 299 L915 239 L855 239 L855 299 ZM162 222 L222 222 L222 162 L162 162 L162 222 ZM393 222 L453 222 L453 162 L393 162 L393 222 ZM855 222 L915 222 L915 162 L855 162 L855 222 ZM162 145 L222 145 L222 85 L162 85 L162 145 ZM393 145 L453 145 L453 85 L393 85 L393 145 ZM855 145 L915 145 L915 85 L855 85 L855 145 ZM162 68 L222 68 L222 9 L162 9 L162 68 ZM393 68 L453 68 L453 9 L393 9 L393 68 ZM855 68 L915 68 L915 9 L855 9 L855 68 ZM162 -9 L222 -9 L222 -68 L162 -68 L162 -9 ZM393 -9 L453 -9 L453 -68 L393 -68 L393 -9 ZM855 -9 L915 -9 L915 -68 L855 -68 L855 -9 ZM162 -85 L222 -85 L222 -145 L162 -145 L162 -85 ZM393 -85 L453 -85 L453 -145 L393 -145 L393 -85 ZM778 -85 L838 -85 L838 -145 L778 -145 L778 -85 ZM855 -85 L915 -85 L915 -145 L855 -145 L855 -85 Z" /><glyph glyph-name="U_4F1A" unicode="&#x4f1a;" d="M393 761 L453 761 L453 701 L393 701 L393 761 ZM393 684 L453 684 L453 624 L393 624 L393 684 ZM316 607 L376 607 L376 547 L316 547 L316 607 ZM470 607 L530 607 L530 547 L470 547 L470 607 ZM239 530 L299 530 L299 470 L239 470 L239 530 ZM547 530 L607 530 L607 470 L547 470 L547 530 ZM162 453 L222 453 L222 393 L162 393 L162 453 ZM624 453 L684 453 L684 393 L624 393 L624 453 ZM701 453 L761 453 L761 393 L701 393 L701 453 ZM9 376 L68 376 L68 316 L9 316 L9 376 ZM85 376 L145 376 L145 316 L85 316 L85 376 ZM239 376 L299 376 L299 316 L239 316 L239 376 ZM316 376 L376 376 L376 316 L316 316 L316 376 ZM393 376 L453 376 L453 316 L393 316 L393 376 ZM470 376 L530 376 L530 316 L470 316 L470 376 ZM547 376 L607 376 L607 316 L547 316 L547 376 ZM778 376 L838 376 L838 316 L778 316 L778 376 ZM855 376 L915 376 L915 316 L855 316 L855 376 ZM85 222 L145 222 L145 162 L85 162 L85 222 ZM162 222 L222 222 L222 162 L162 162 L162 222 ZM239 222 L299 222 L299 162 L239 162 L239 222 ZM316 222 L376 222 L376 162 L316 162 L316 222 ZM393 222 L453 222 L453 162 L393 162 L393 222 ZM470 222 L530 222 L530 162 L470 162 L470 222 ZM547 222 L607 222 L607 162 L547 162 L547 222 ZM624 222 L684 222 L684 162 L624 162 L624 222 ZM701 222 L761 222 L761 162 L701 162 L701 222 ZM778 222 L838 222 L838 162 L778 162 L778 222 ZM316 145 L376 145 L376 85 L316 85 L316 145 ZM316 68 L376 68 L376 9 L316 9 L316 68 ZM547 68 L607 68 L607 9 L547 9 L547 68 ZM239 -9 L299 -9 L299 -68 L239 -68 L239 -9 ZM624 -9 L684 -9 L684 -68 L624 -68 L624 -9 ZM162 -85 L222 -85 L222 -145 L162 -145 L162 -85 ZM239 -85 L299 -85 L299 -145 L239 -145 L239 -85 ZM316 -85 L376 -85 L376 -145 L316 -145 L316 -85 ZM393 -85 L453 -85 L453 -145 L393 -145 L393 -85 ZM470 -85 L530 -85 L530 -145 L470 -145 L470 -85 ZM547 -85 L607 -85 L607 -145 L547 -145 L547 -85 ZM624 -85 L684 -85 L684 -145 L624 -145 L624 -85 ZM701 -85 L761 -85 L761 -145 L701 -145 L701 -85 Z" /><glyph glyph-name="U_4F46" unicode="&#x4f46;" d="M239 761 L299 761 L299 701 L239 701 L239 761 ZM239 684 L299 684 L299 624 L239 624 L239 684 ZM393 684 L453 684 L453 624 L393 624 L393 684 ZM470 684 L530 684 L530 624 L470 624 L470 684 ZM547 684 L607 684 L607 624 L547 624 L547 684 ZM624 684 L684 684 L684 624 L624 624 L624 684 ZM701 684 L761 684 L761 624 L701 624 L701 684 ZM778 684 L838 684 L838 624 L778 624 L778 684 ZM162 607 L222 607 L222 547 L162 547 L162 607 ZM393 607 L453 607 L453 547 L393 547 L393 607 ZM778 607 L838 607 L838 547 L778 547 L778 607 ZM162 530 L222 530 L222 470 L162 470 L162 530 ZM393 530 L453 530 L453 470 L393 470 L393 530 ZM778 530 L838 530 L838 470 L778 470 L778 530 ZM85 453 L145 453 L145 393 L85 393 L85 453 ZM162 453 L222 453 L222 393 L162 393 L162 453 ZM393 453 L453 453 L453 393 L393 393 L393 453 ZM470 453 L530 453 L530 393 L470 393 L470 453 ZM547 453 L607 453 L607 393 L547 393 L547 453 ZM624 453 L684 453 L684 393 L624 393 L624 453 ZM701 453 L761 453 L761 393 L701 393 L701 453 ZM778 453 L838 453 L838 393 L778 393 L778 453 ZM9 376 L68 376 L68 316 L9 316 L9 376 ZM162 376 L222 376 L222 316 L162 316 L162 376 ZM393 376 L453 376 L453 316 L393 316 L393 376 ZM778 376 L838 376 L838 316 L778 316 L778 376 ZM162 299 L222 299 L222 239 L162 239 L162 299 ZM393 299 L453 299 L453 239 L393 239 L393 299 ZM778 299 L838 299 L838 239 L778 239 L778 299 ZM162 222 L222 222 L222 162 L162 162 L162 222 ZM393 222 L453 222 L453 162 L393 162 L393 222 ZM470 222 L530 222 L530 162 L470 162 L470 222 ZM547 222 L607 222 L607 162 L547 162 L547 222 ZM624 222 L684 222 L684 162 L624 162 L624 222 ZM701 222 L761 222 L761 162 L701 162 L701 222 ZM778 222 L838 222 L838 162 L778 162 L778 222 ZM162 145 L222 145 L222 85 L162 85 L162 145 ZM393 145 L453 145 L453 85 L393 85 L393 145 ZM778 145 L838 145 L838 85 L778 85 L778 145 ZM162 68 L222 68 L222 9 L162 9 L162 68 ZM162 -9 L222 -9 L222 -68 L162 -68 L162 -9 ZM162 -85 L222 -85 L222 -145 L162 -145 L162 -85 ZM316 -85 L376 -85 L376 -145 L316 -145 L316 -85 ZM393 -85 L453 -85 L453 -145 L393 -145 L393 -85 ZM470 -85 L530 -85 L530 -145 L470 -145 L470 -85 ZM547 -85 L607 -85 L607 -145 L547 -145 L547 -85 ZM624 -85 L684 -85 L684 -145 L624 -145 L624 -85 ZM701 -85 L761 -85 L761 -145 L701 -145 L701 -85 ZM778 -85 L838 -85 L838 -145 L778 -145 L778 -85 ZM855 -85 L915 -85 L915 -145 L855 -145 L855 -85 Z" /><glyph glyph-name="U_4F4D" unicode="&#x4f4d;" d="M239 761 L299 761 L299 701 L239 701 L239 761 ZM547 761 L607 761 L607 701 L547 701 L547 761 ZM239 684 L299 684 L299 624 L239 624 L239 684 ZM624 684 L684 684 L684 624 L624 624 L624 684 ZM162 607 L222 607 L222 547 L162 547 L162 607 ZM162 530 L222 530 L222 470 L162 470 L162 530 ZM316 530 L376 530 L376 470 L316 470 L316 530 ZM393 530 L453 530 L453 470 L393 470 L393 530 ZM470 530 L530 530 L530 470 L470 470 L470 530 ZM547 530 L607 530 L607 470 L547 470 L547 530 ZM624 530 L684 530 L684 470 L624 470 L624 530 ZM701 530 L761 530 L761 470 L701 470 L701 530 ZM778 530 L838 530 L838 470 L778 470 L778 530 ZM855 530 L915 530 L915 470 L855 470 L855 530 ZM85 453 L145 453 L145 393 L85 393 L85 453 ZM162 453 L222 453 L222 393 L162 393 L162 453 ZM9 376 L68 376 L68 316 L9 316 L9 376 ZM162 376 L222 376 L222 316 L162 316 L162 376 ZM393 376 L453 376 L453 316 L393 316 L393 376 ZM701 376 L761 376 L761 316 L701 316 L701 376 ZM162 299 L222 299 L222 239 L162 239 L162 299 ZM393 299 L453 299 L453 239 L393 239 L393 299 ZM701 299 L761 299 L761 239 L701 239 L701 299 ZM162 222 L222 222 L222 162 L162 162 L162 222 ZM470 222 L530 222 L530 162 L470 162 L470 222 ZM701 222 L761 222 L761 162 L701 162 L701 222 ZM162 145 L222 145 L222 85 L162 85 L162 145 ZM470 145 L530 145 L530 85 L470 85 L470 145 ZM624 145 L684 145 L684 85 L624 85 L624 145 ZM162 68 L222 68 L222 9 L162 9 L162 68 ZM624 68 L684 68 L684 9 L624 9 L624 68 ZM162 -9 L222 -9 L222 -68 L162 -68 L162 -9 ZM547 -9 L607 -9 L607 -68 L547 -68 L547 -9 ZM162 -85 L222 -85 L222 -145 L162 -145 L162 -85 ZM316 -85 L376 -85 L376 -145 L316 -145 L316 -85 ZM393 -85 L453 -85 L453 -145 L393 -145 L393 -85 ZM470 -85 L530 -85 L530 -145 L470 -145 L470 -85 ZM547 -85 L607 -85 L607 -145 L547 -145 L547 -85 ZM624 -85 L684 -85 L684 -145 L624 -145 L624 -85 ZM701 -85 L761 -85 L761 -145 L701 -145 L701 -85 ZM778 -85 L838 -85 L838 -145 L778 -145 L778 -85 ZM855 -85 L915 -85 L915 -145 L855 -145 L855 -85 Z" /><glyph glyph-name="U_4F53" unicode="&#x4f53;" d="M239 761 L299 761 L299 701 L239 701 L239 761 ZM547 761 L607 761 L607 701 L547 701 L547 761 ZM239 684 L299 684 L299 624 L239 624 L239 684 ZM547 684 L607 684 L607 624 L547 624 L547 684 ZM162 607 L222 607 L222 547 L162 547 L162 607 ZM316 607 L376 607 L376 547 L316 547 L316 607 ZM393 607 L453 607 L453 547 L393 547 L393 607 ZM470 607 L530 607 L530 547 L470 547 L470 607 ZM547 607 L607 607 L607 547 L547 547 L547 607 ZM624 607 L684 607 L684 547 L624 547 L624 607 ZM701 607 L761 607 L761 547 L701 547 L701 607 ZM778 607 L838 607 L838 547 L778 547 L778 607 ZM162 530 L222 530 L222 470 L162 470 L162 530 ZM547 530 L607 530 L607 470 L547 470 L547 530 ZM85 453 L145 453 L145 393 L85 393 L85 453 ZM162 453 L222 453 L222 393 L162 393 L162 453 ZM470 453 L530 453 L530 393 L470 393 L470 453 ZM547 453 L607 453 L607 393 L547 393 L547 453 ZM624 453 L684 453 L684 393 L624 393 L624 453 ZM9 376 L68 376 L68 316 L9 316 L9 376 ZM162 376 L222 376 L222 316 L162 316 L162 376 ZM393 376 L453 376 L453 316 L393 316 L393 376 ZM547 376 L607 376 L607 316 L547 316 L547 376 ZM701 376 L761 376 L761 316 L701 316 L701 376 ZM162 299 L222 299 L222 239 L162 239 L162 299 ZM316 299 L376 299 L376 239 L316 239 L316 299 ZM547 299 L607 299 L607 239 L547 239 L547 299 ZM778 299 L838 299 L838 239 L778 239 L778 299 ZM162 222 L222 222 L222 162 L162 162 L162 222 ZM239 222 L299 222 L299 162 L239 162 L239 222 ZM547 222 L607 222 L607 162 L547 162 L547 222 ZM855 222 L915 222 L915 162 L855 162 L855 222 ZM162 145 L222 145 L222 85 L162 85 L162 145 ZM393 145 L453 145 L453 85 L393 85 L393 145 ZM470 145 L530 145 L530 85 L470 85 L470 145 ZM547 145 L607 145 L607 85 L547 85 L547 145 ZM624 145 L684 145 L684 85 L624 85 L624 145 ZM701 145 L761 145 L761 85 L701 85 L701 145 ZM162 68 L222 68 L222 9 L162 9 L162 68 ZM547 68 L607 68 L607 9 L547 9 L547 68 ZM162 -9 L222 -9 L222 -68 L162 -68 L162 -9 ZM547 -9 L607 -9 L607 -68 L547 -68 L547 -9 ZM162 -85 L222 -85 L222 -145 L162 -145 L162 -85 ZM547 -85 L607 -85 L607 -145 L547 -145 L547 -85 Z" /><glyph glyph-name="U_4F5C" unicode="&#x4f5c;" d="M239 761 L299 761 L299 701 L239 701 L239 761 ZM393 761 L453 761 L453 701 L393 701 L393 761 ZM239 684 L299 684 L299 624 L239 624 L239 684 ZM393 684 L453 684 L453 624 L393 624 L393 684 ZM162 607 L222 607 L222 547 L162 547 L162 607 ZM393 607 L453 607 L453 547 L393 547 L393 607 ZM470 607 L530 607 L530 547 L470 547 L470 607 ZM547 607 L607 607 L607 547 L547 547 L547 607 ZM624 607 L684 607 L684 547 L624 547 L624 607 ZM701 607 L761 607 L761 547 L701 547 L701 607 ZM778 607 L838 607 L838 547 L778 547 L778 607 ZM855 607 L915 607 L915 547 L855 547 L855 607 ZM162 530 L222 530 L222 470 L162 470 L162 530 ZM316 530 L376 530 L376 470 L316 470 L316 530 ZM470 530 L530 530 L530 470 L470 470 L470 530 ZM85 453 L145 453 L145 393 L85 393 L85 453 ZM162 453 L222 453 L222 393 L162 393 L162 453 ZM239 453 L299 453 L299 393 L239 393 L239 453 ZM470 453 L530 453 L530 393 L470 393 L470 453 ZM9 376 L68 376 L68 316 L9 316 L9 376 ZM162 376 L222 376 L222 316 L162 316 L162 376 ZM470 376 L530 376 L530 316 L470 316 L470 376 ZM547 376 L607 376 L607 316 L547 316 L547 376 ZM624 376 L684 376 L684 316 L624 316 L624 376 ZM701 376 L761 376 L761 316 L701 316 L701 376 ZM778 376 L838 376 L838 316 L778 316 L778 376 ZM162 299 L222 299 L222 239 L162 239 L162 299 ZM470 299 L530 299 L530 239 L470 239 L470 299 ZM162 222 L222 222 L222 162 L162 162 L162 222 ZM470 222 L530 222 L530 162 L470 162 L470 222 ZM162 145 L222 145 L222 85 L162 85 L162 145 ZM470 145 L530 145 L530 85 L470 85 L470 145 ZM547 145 L607 145 L607 85 L547 85 L547 145 ZM624 145 L684 145 L684 85 L624 85 L624 145 ZM701 145 L761 145 L761 85 L701 85 L701 145 ZM778 145 L838 145 L838 85 L778 85 L778 145 ZM855 145 L915 145 L915 85 L855 85 L855 145 ZM162 68 L222 68 L222 9 L162 9 L162 68 ZM470 68 L530 68 L530 9 L470 9 L470 68 ZM162 -9 L222 -9 L222 -68 L162 -68 L162 -9 ZM470 -9 L530 -9 L530 -68 L470 -68 L470 -9 ZM162 -85 L222 -85 L222 -145 L162 -145 L162 -85 ZM470 -85 L530 -85 L530 -145 L470 -145 L470 -85 Z" /><glyph glyph-name="U_4F60" unicode="&#x4f60;" d="M239 761 L299 761 L299 701 L239 701 L239 761 ZM470 761 L530 761 L530 701 L470 701 L470 761 ZM239 684 L299 684 L299 624 L239 624 L239 684 ZM470 684 L530 684 L530 624 L470 624 L470 684 ZM162 607 L222 607 L222 547 L162 547 L162 607 ZM393 607 L453 607 L453 547 L393 547 L393 607 ZM470 607 L530 607 L530 547 L470 547 L470 607 ZM547 607 L607 607 L607 547 L547 547 L547 607 ZM624 607 L684 607 L684 547 L624 547 L624 607 ZM701 607 L761 607 L761 547 L701 547 L701 607 ZM778 607 L838 607 L838 547 L778 547 L778 607 ZM855 607 L915 607 L915 547 L855 547 L855 607 ZM162 530 L222 530 L222 470 L162 470 L162 530 ZM393 530 L453 530 L453 470 L393 470 L393 530 ZM778 530 L838 530 L838 470 L778 470 L778 530 ZM85 453 L145 453 L145 393 L85 393 L85 453 ZM162 453 L222 453 L222 393 L162 393 L162 453 ZM316 453 L376 453 L376 393 L316 393 L316 453 ZM547 453 L607 453 L607 393 L547 393 L547 453 ZM701 453 L761 453 L761 393 L701 393 L701 453 ZM9 376 L68 376 L68 316 L9 316 L9 376 ZM162 376 L222 376 L222 316 L162 316 L162 376 ZM547 376 L607 376 L607 316 L547 316 L547 376 ZM162 299 L222 299 L222 239 L162 239 L162 299 ZM393 299 L453 299 L453 239 L393 239 L393 299 ZM547 299 L607 299 L607 239 L547 239 L547 299 ZM701 299 L761 299 L761 239 L701 239 L701 299 ZM162 222 L222 222 L222 162 L162 162 L162 222 ZM393 222 L453 222 L453 162 L393 162 L393 222 ZM547 222 L607 222 L607 162 L547 162 L547 222 ZM778 222 L838 222 L838 162 L778 162 L778 222 ZM162 145 L222 145 L222 85 L162 85 L162 145 ZM316 145 L376 145 L376 85 L316 85 L316 145 ZM547 145 L607 145 L607 85 L547 85 L547 145 ZM855 145 L915 145 L915 85 L855 85 L855 145 ZM162 68 L222 68 L222 9 L162 9 L162 68 ZM239 68 L299 68 L299 9 L239 9 L239 68 ZM547 68 L607 68 L607 9 L547 9 L547 68 ZM855 68 L915 68 L915 9 L855 9 L855 68 ZM162 -9 L222 -9 L222 -68 L162 -68 L162 -9 ZM547 -9 L607 -9 L607 -68 L547 -68 L547 -9 ZM162 -85 L222 -85 L222 -145 L162 -145 L162 -85 ZM470 -85 L530 -85 L530 -145 L470 -145 L470 -85 ZM547 -85 L607 -85 L607 -145 L547 -145 L547 -85 Z" /><glyph glyph-name="U_4F9B" unicode="&#x4f9b;" d="M239 761 L299 761 L299 701 L239 701 L239 761 ZM470 761 L530 761 L530 701 L470 701 L470 761 ZM701 761 L761 761 L761 701 L701 701 L701 761 ZM239 684 L299 684 L299 624 L239 624 L239 684 ZM470 684 L530 684 L530 624 L470 624 L470 684 ZM701 684 L761 684 L761 624 L701 624 L701 684 ZM162 607 L222 607 L222 547 L162 547 L162 607 ZM470 607 L530 607 L530 547 L470 547 L470 607 ZM701 607 L761 607 L761 547 L701 547 L701 607 ZM162 530 L222 530 L222 470 L162 470 L162 530 ZM316 530 L376 530 L376 470 L316 470 L316 530 ZM393 530 L453 530 L453 470 L393 470 L393 530 ZM470 530 L530 530 L530 470 L470 470 L470 530 ZM547 530 L607 530 L607 470 L547 470 L547 530 ZM624 530 L684 530 L684 470 L624 470 L624 530 ZM701 530 L761 530 L761 470 L701 470 L701 530 ZM778 530 L838 530 L838 470 L778 470 L778 530 ZM855 530 L915 530 L915 470 L855 470 L855 530 ZM85 453 L145 453 L145 393 L85 393 L85 453 ZM162 453 L222 453 L222 393 L162 393 L162 453 ZM470 453 L530 453 L530 393 L470 393 L470 453 ZM701 453 L761 453 L761 393 L701 393 L701 453 ZM9 376 L68 376 L68 316 L9 316 L9 376 ZM162 376 L222 376 L222 316 L162 316 L162 376 ZM470 376 L530 376 L530 316 L470 316 L470 376 ZM701 376 L761 376 L761 316 L701 316 L701 376 ZM162 299 L222 299 L222 239 L162 239 L162 299 ZM470 299 L530 299 L530 239 L470 239 L470 299 ZM701 299 L761 299 L761 239 L701 239 L701 299 ZM162 222 L222 222 L222 162 L162 162 L162 222 ZM239 222 L299 222 L299 162 L239 162 L239 222 ZM316 222 L376 222 L376 162 L316 162 L316 222 ZM393 222 L453 222 L453 162 L393 162 L393 222 ZM470 222 L530 222 L530 162 L470 162 L470 222 ZM547 222 L607 222 L607 162 L547 162 L547 222 ZM624 222 L684 222 L684 162 L624 162 L624 222 ZM701 222 L761 222 L761 162 L701 162 L701 222 ZM778 222 L838 222 L838 162 L778 162 L778 222 ZM855 222 L915 222 L915 162 L855 162 L855 222 ZM162 145 L222 145 L222 85 L162 85 L162 145 ZM470 145 L530 145 L530 85 L470 85 L470 145 ZM701 145 L761 145 L761 85 L701 85 L701 145 ZM162 68 L222 68 L222 9 L162 9 L162 68 ZM470 68 L530 68 L530 9 L470 9 L470 68 ZM778 68 L838 68 L838 9 L778 9 L778 68 ZM162 -9 L222 -9 L222 -68 L162 -68 L162 -9 ZM393 -9 L453 -9 L453 -68 L393 -68 L393 -9 ZM855 -9 L915 -9 L915 -68 L855 -68 L855 -9 ZM162 -85 L222 -85 L222 -145 L162 -145 L162 -85 ZM316 -85 L376 -85 L376 -145 L316 -145 L316 -85 ZM855 -85 L915 -85 L915 -145 L855 -145 L855 -85 Z" /><glyph glyph-name="U_4FA6" unicode="&#x4fa6;" d="M239 761 L299 761 L299 701 L239 701 L239 761 ZM547 761 L607 761 L607 701 L547 701 L547 761 ZM239 684 L299 684 L299 624 L239 624 L239 684 ZM547 684 L607 684 L607 624 L547 624 L547 684 ZM624 684 L684 684 L684 624 L624 624 L624 684 ZM701 684 L761 684 L761 624 L701 624 L701 684 ZM778 684 L838 684 L838 624 L778 624 L778 684 ZM855 684 L915 684 L915 624 L855 624 L855 684 ZM162 607 L222 607 L222 547 L162 547 L162 607 ZM547 607 L607 607 L607 547 L547 547 L547 607 ZM162 530 L222 530 L222 470 L162 470 L162 530 ZM393 530 L453 530 L453 470 L393 470 L393 530 ZM470 530 L530 530 L530 470 L470 470 L470 530 ZM547 530 L607 530 L607 470 L547 470 L547 530 ZM624 530 L684 530 L684 470 L624 470 L624 530 ZM701 530 L761 530 L761 470 L701 470 L701 530 ZM778 530 L838 530 L838 470 L778 470 L778 530 ZM855 530 L915 530 L915 470 L855 470 L855 530 ZM85 453 L145 453 L145 393 L85 393 L85 453 ZM162 453 L222 453 L222 393 L162 393 L162 453 ZM393 453 L453 453 L453 393 L393 393 L393 453 ZM855 453 L915 453 L915 393 L855 393 L855 453 ZM9 376 L68 376 L68 316 L9 316 L9 376 ZM162 376 L222 376 L222 316 L162 316 L162 376 ZM393 376 L453 376 L453 316 L393 316 L393 376 ZM624 376 L684 376 L684 316 L624 316 L624 376 ZM855 376 L915 376 L915 316 L855 316 L855 376 ZM162 299 L222 299 L222 239 L162 239 L162 299 ZM393 299 L453 299 L453 239 L393 239 L393 299 ZM624 299 L684 299 L684 239 L624 239 L624 299 ZM855 299 L915 299 L915 239 L855 239 L855 299 ZM162 222 L222 222 L222 162 L162 162 L162 222 ZM393 222 L453 222 L453 162 L393 162 L393 222 ZM624 222 L684 222 L684 162 L624 162 L624 222 ZM855 222 L915 222 L915 162 L855 162 L855 222 ZM162 145 L222 145 L222 85 L162 85 L162 145 ZM393 145 L453 145 L453 85 L393 85 L393 145 ZM624 145 L684 145 L684 85 L624 85 L624 145 ZM855 145 L915 145 L915 85 L855 85 L855 145 ZM162 68 L222 68 L222 9 L162 9 L162 68 ZM393 68 L453 68 L453 9 L393 9 L393 68 ZM547 68 L607 68 L607 9 L547 9 L547 68 ZM701 68 L761 68 L761 9 L701 9 L701 68 ZM855 68 L915 68 L915 9 L855 9 L855 68 ZM162 -9 L222 -9 L222 -68 L162 -68 L162 -9 ZM470 -9 L530 -9 L530 -68 L470 -68 L470 -9 ZM778 -9 L838 -9 L838 -68 L778 -68 L778 -9 ZM162 -85 L222 -85 L222 -145 L162 -145 L162 -85 ZM316 -85 L376 -85 L376 -145 L316 -145 L316 -85 ZM393 -85 L453 -85 L453 -145 L393 -145 L393 -85 ZM855 -85 L915 -85 L915 -145 L855 -145 L855 -85 Z" /><glyph glyph-name="U_4FB5" unicode="&#x4fb5;" d="M162 761 L222 761 L222 701 L162 701 L162 761 ZM316 761 L376 761 L376 701 L316 701 L316 761 ZM393 761 L453 761 L453 701 L393 701 L393 761 ZM470 761 L530 761 L530 701 L470 701 L470 761 ZM547 761 L607 761 L607 701 L547 701 L547 761 ZM624 761 L684 761 L684 701 L624 701 L624 761 ZM701 761 L761 761 L761 701 L701 701 L701 761 ZM162 684 L222 684 L222 624 L162 624 L162 684 ZM701 684 L761 684 L761 624 L701 624 L701 684 ZM85 607 L145 607 L145 547 L85 547 L85 607 ZM316 607 L376 607 L376 547 L316 547 L316 607 ZM393 607 L453 607 L453 547 L393 547 L393 607 ZM470 607 L530 607 L530 547 L470 547 L470 607 ZM547 607 L607 607 L607 547 L547 547 L547 607 ZM624 607 L684 607 L684 547 L624 547 L624 607 ZM701 607 L761 607 L761 547 L701 547 L701 607 ZM85 530 L145 530 L145 470 L85 470 L85 530 ZM701 530 L761 530 L761 470 L701 470 L701 530 ZM9 453 L68 453 L68 393 L9 393 L9 453 ZM85 453 L145 453 L145 393 L85 393 L85 453 ZM239 453 L299 453 L299 393 L239 393 L239 453 ZM316 453 L376 453 L376 393 L316 393 L316 453 ZM393 453 L453 453 L453 393 L393 393 L393 453 ZM470 453 L530 453 L530 393 L470 393 L470 453 ZM547 453 L607 453 L607 393 L547 393 L547 453 ZM624 453 L684 453 L684 393 L624 393 L624 453 ZM701 453 L761 453 L761 393 L701 393 L701 453 ZM85 376 L145 376 L145 316 L85 316 L85 376 ZM85 299 L145 299 L145 239 L85 239 L85 299 ZM239 299 L299 299 L299 239 L239 239 L239 299 ZM316 299 L376 299 L376 239 L316 239 L316 299 ZM393 299 L453 299 L453 239 L393 239 L393 299 ZM470 299 L530 299 L530 239 L470 239 L470 299 ZM547 299 L607 299 L607 239 L547 239 L547 299 ZM624 299 L684 299 L684 239 L624 239 L624 299 ZM701 299 L761 299 L761 239 L701 239 L701 299 ZM778 299 L838 299 L838 239 L778 239 L778 299 ZM855 299 L915 299 L915 239 L855 239 L855 299 ZM85 222 L145 222 L145 162 L85 162 L85 222 ZM239 222 L299 222 L299 162 L239 162 L239 222 ZM393 222 L453 222 L453 162 L393 162 L393 222 ZM624 222 L684 222 L684 162 L624 162 L624 222 ZM855 222 L915 222 L915 162 L855 162 L855 222 ZM85 145 L145 145 L145 85 L85 85 L85 145 ZM393 145 L453 145 L453 85 L393 85 L393 145 ZM624 145 L684 145 L684 85 L624 85 L624 145 ZM85 68 L145 68 L145 9 L85 9 L85 68 ZM470 68 L530 68 L530 9 L470 9 L470 68 ZM547 68 L607 68 L607 9 L547 9 L547 68 ZM85 -9 L145 -9 L145 -68 L85 -68 L85 -9 ZM393 -9 L453 -9 L453 -68 L393 -68 L393 -9 ZM624 -9 L684 -9 L684 -68 L624 -68 L624 -9 ZM85 -85 L145 -85 L145 -145 L85 -145 L85 -85 ZM239 -85 L299 -85 L299 -145 L239 -145 L239 -85 ZM316 -85 L376 -85 L376 -145 L316 -145 L316 -85 ZM701 -85 L761 -85 L761 -145 L701 -145 L701 -85 ZM778 -85 L838 -85 L838 -145 L778 -145 L778 -85 Z" /><glyph glyph-name="U_4FBF" unicode="&#x4fbf;" d="M239 761 L299 761 L299 701 L239 701 L239 761 ZM778 761 L838 761 L838 701 L778 701 L778 761 ZM239 684 L299 684 L299 624 L239 624 L239 684 ZM393 684 L453 684 L453 624 L393 624 L393 684 ZM470 684 L530 684 L530 624 L470 624 L470 684 ZM547 684 L607 684 L607 624 L547 624 L547 684 ZM624 684 L684 684 L684 624 L624 624 L624 684 ZM701 684 L761 684 L761 624 L701 624 L701 684 ZM778 684 L838 684 L838 624 L778 624 L778 684 ZM855 684 L915 684 L915 624 L855 624 L855 684 ZM162 607 L222 607 L222 547 L162 547 L162 607 ZM624 607 L684 607 L684 547 L624 547 L624 607 ZM162 530 L222 530 L222 470 L162 470 L162 530 ZM393 530 L453 530 L453 470 L393 470 L393 530 ZM470 530 L530 530 L530 470 L470 470 L470 530 ZM547 530 L607 530 L607 470 L547 470 L547 530 ZM624 530 L684 530 L684 470 L624 470 L624 530 ZM701 530 L761 530 L761 470 L701 470 L701 530 ZM778 530 L838 530 L838 470 L778 470 L778 530 ZM855 530 L915 530 L915 470 L855 470 L855 530 ZM85 453 L145 453 L145 393 L85 393 L85 453 ZM162 453 L222 453 L222 393 L162 393 L162 453 ZM393 453 L453 453 L453 393 L393 393 L393 453 ZM624 453 L684 453 L684 393 L624 393 L624 453 ZM855 453 L915 453 L915 393 L855 393 L855 453 ZM9 376 L68 376 L68 316 L9 316 L9 376 ZM162 376 L222 376 L222 316 L162 316 L162 376 ZM393 376 L453 376 L453 316 L393 316 L393 376 ZM470 376 L530 376 L530 316 L470 316 L470 376 ZM547 376 L607 376 L607 316 L547 316 L547 376 ZM624 376 L684 376 L684 316 L624 316 L624 376 ZM701 376 L761 376 L761 316 L701 316 L701 376 ZM778 376 L838 376 L838 316 L778 316 L778 376 ZM855 376 L915 376 L915 316 L855 316 L855 376 ZM162 299 L222 299 L222 239 L162 239 L162 299 ZM393 299 L453 299 L453 239 L393 239 L393 299 ZM624 299 L684 299 L684 239 L624 239 L624 299 ZM855 299 L915 299 L915 239 L855 239 L855 299 ZM162 222 L222 222 L222 162 L162 162 L162 222 ZM393 222 L453 222 L453 162 L393 162 L393 222 ZM470 222 L530 222 L530 162 L470 162 L470 222 ZM547 222 L607 222 L607 162 L547 162 L547 222 ZM624 222 L684 222 L684 162 L624 162 L624 222 ZM701 222 L761 222 L761 162 L701 162 L701 222 ZM778 222 L838 222 L838 162 L778 162 L778 222 ZM855 222 L915 222 L915 162 L855 162 L855 222 ZM162 145 L222 145 L222 85 L162 85 L162 145 ZM470 145 L530 145 L530 85 L470 85 L470 145 ZM624 145 L684 145 L684 85 L624 85 L624 145 ZM162 68 L222 68 L222 9 L162 9 L162 68 ZM547 68 L607 68 L607 9 L547 9 L547 68 ZM162 -9 L222 -9 L222 -68 L162 -68 L162 -9 ZM470 -9 L530 -9 L530 -68 L470 -68 L470 -9 ZM624 -9 L684 -9 L684 -68 L624 -68 L624 -9 ZM701 -9 L761 -9 L761 -68 L701 -68 L701 -9 ZM162 -85 L222 -85 L222 -145 L162 -145 L162 -85 ZM316 -85 L376 -85 L376 -145 L316 -145 L316 -85 ZM393 -85 L453 -85 L453 -145 L393 -145 L393 -85 ZM778 -85 L838 -85 L838 -145 L778 -145 L778 -85 ZM855 -85 L915 -85 L915 -145 L855 -145 L855 -85 Z" /><glyph glyph-name="U_501F" unicode="&#x501f;" d="M239 761 L299 761 L299 701 L239 701 L239 761 ZM470 761 L530 761 L530 701 L470 701 L470 761 ZM701 761 L761 761 L761 701 L701 701 L701 761 ZM239 684 L299 684 L299 624 L239 624 L239 684 ZM470 684 L530 684 L530 624 L470 624 L470 684 ZM701 684 L761 684 L761 624 L701 624 L701 684 ZM162 607 L222 607 L222 547 L162 547 L162 607 ZM316 607 L376 607 L376 547 L316 547 L316 607 ZM393 607 L453 607 L453 547 L393 547 L393 607 ZM470 607 L530 607 L530 547 L470 547 L470 607 ZM547 607 L607 607 L607 547 L547 547 L547 607 ZM624 607 L684 607 L684 547 L624 547 L624 607 ZM701 607 L761 607 L761 547 L701 547 L701 607 ZM778 607 L838 607 L838 547 L778 547 L778 607 ZM855 607 L915 607 L915 547 L855 547 L855 607 ZM162 530 L222 530 L222 470 L162 470 L162 530 ZM470 530 L530 530 L530 470 L470 470 L470 530 ZM701 530 L761 530 L761 470 L701 470 L701 530 ZM85 453 L145 453 L145 393 L85 393 L85 453 ZM162 453 L222 453 L222 393 L162 393 L162 453 ZM316 453 L376 453 L376 393 L316 393 L316 453 ZM393 453 L453 453 L453 393 L393 393 L393 453 ZM470 453 L530 453 L530 393 L470 393 L470 453 ZM547 453 L607 453 L607 393 L547 393 L547 453 ZM624 453 L684 453 L684 393 L624 393 L624 453 ZM701 453 L761 453 L761 393 L701 393 L701 453 ZM778 453 L838 453 L838 393 L778 393 L778 453 ZM855 453 L915 453 L915 393 L855 393 L855 453 ZM9 376 L68 376 L68 316 L9 316 L9 376 ZM162 376 L222 376 L222 316 L162 316 L162 376 ZM162 299 L222 299 L222 239 L162 239 L162 299 ZM393 299 L453 299 L453 239 L393 239 L393 299 ZM470 299 L530 299 L530 239 L470 239 L470 299 ZM547 299 L607 299 L607 239 L547 239 L547 299 ZM624 299 L684 299 L684 239 L624 239 L624 299 ZM701 299 L761 299 L761 239 L701 239 L701 299 ZM778 299 L838 299 L838 239 L778 239 L778 299 ZM162 222 L222 222 L222 162 L162 162 L162 222 ZM393 222 L453 222 L453 162 L393 162 L393 222 ZM778 222 L838 222 L838 162 L778 162 L778 222 ZM162 145 L222 145 L222 85 L162 85 L162 145 ZM393 145 L453 145 L453 85 L393 85 L393 145 ZM470 145 L530 145 L530 85 L470 85 L470 145 ZM547 145 L607 145 L607 85 L547 85 L547 145 ZM624 145 L684 145 L684 85 L624 85 L624 145 ZM701 145 L761 145 L761 85 L701 85 L701 145 ZM778 145 L838 145 L838 85 L778 85 L778 145 ZM162 68 L222 68 L222 9 L162 9 L162 68 ZM393 68 L453 68 L453 9 L393 9 L393 68 ZM778 68 L838 68 L838 9 L778 9 L778 68 ZM162 -9 L222 -9 L222 -68 L162 -68 L162 -9 ZM393 -9 L453 -9 L453 -68 L393 -68 L393 -9 ZM470 -9 L530 -9 L530 -68 L470 -68 L470 -9 ZM547 -9 L607 -9 L607 -68 L547 -68 L547 -9 ZM624 -9 L684 -9 L684 -68 L624 -68 L624 -9 ZM701 -9 L761 -9 L761 -68 L701 -68 L701 -9 ZM778 -9 L838 -9 L838 -68 L778 -68 L778 -9 ZM162 -85 L222 -85 L222 -145 L162 -145 L162 -85 ZM393 -85 L453 -85 L453 -145 L393 -145 L393 -85 ZM778 -85 L838 -85 L838 -145 L778 -145 L778 -85 Z" /><glyph glyph-name="U_5065" unicode="&#x5065;" d="M239 761 L299 761 L299 701 L239 701 L239 761 ZM624 761 L684 761 L684 701 L624 701 L624 761 ZM162 684 L222 684 L222 624 L162 624 L162 684 ZM316 684 L376 684 L376 624 L316 624 L316 684 ZM393 684 L453 684 L453 624 L393 624 L393 684 ZM547 684 L607 684 L607 624 L547 624 L547 684 ZM624 684 L684 684 L684 624 L624 624 L624 684 ZM701 684 L761 684 L761 624 L701 624 L701 684 ZM778 684 L838 684 L838 624 L778 624 L778 684 ZM162 607 L222 607 L222 547 L162 547 L162 607 ZM393 607 L453 607 L453 547 L393 547 L393 607 ZM624 607 L684 607 L684 547 L624 547 L624 607 ZM778 607 L838 607 L838 547 L778 547 L778 607 ZM85 530 L145 530 L145 470 L85 470 L85 530 ZM162 530 L222 530 L222 470 L162 470 L162 530 ZM316 530 L376 530 L376 470 L316 470 L316 530 ZM470 530 L530 530 L530 470 L470 470 L470 530 ZM547 530 L607 530 L607 470 L547 470 L547 530 ZM624 530 L684 530 L684 470 L624 470 L624 530 ZM701 530 L761 530 L761 470 L701 470 L701 530 ZM778 530 L838 530 L838 470 L778 470 L778 530 ZM855 530 L915 530 L915 470 L855 470 L855 530 ZM9 453 L68 453 L68 393 L9 393 L9 453 ZM162 453 L222 453 L222 393 L162 393 L162 453 ZM316 453 L376 453 L376 393 L316 393 L316 453 ZM624 453 L684 453 L684 393 L624 393 L624 453 ZM778 453 L838 453 L838 393 L778 393 L778 453 ZM162 376 L222 376 L222 316 L162 316 L162 376 ZM316 376 L376 376 L376 316 L316 316 L316 376 ZM393 376 L453 376 L453 316 L393 316 L393 376 ZM547 376 L607 376 L607 316 L547 316 L547 376 ZM624 376 L684 376 L684 316 L624 316 L624 376 ZM701 376 L761 376 L761 316 L701 316 L701 376 ZM778 376 L838 376 L838 316 L778 316 L778 376 ZM162 299 L222 299 L222 239 L162 239 L162 299 ZM393 299 L453 299 L453 239 L393 239 L393 299 ZM624 299 L684 299 L684 239 L624 239 L624 299 ZM162 222 L222 222 L222 162 L162 162 L162 222 ZM239 222 L299 222 L299 162 L239 162 L239 222 ZM393 222 L453 222 L453 162 L393 162 L393 222 ZM547 222 L607 222 L607 162 L547 162 L547 222 ZM624 222 L684 222 L684 162 L624 162 L624 222 ZM701 222 L761 222 L761 162 L701 162 L701 222 ZM778 222 L838 222 L838 162 L778 162 L778 222 ZM162 145 L222 145 L222 85 L162 85 L162 145 ZM316 145 L376 145 L376 85 L316 85 L316 145 ZM624 145 L684 145 L684 85 L624 85 L624 145 ZM162 68 L222 68 L222 9 L162 9 L162 68 ZM316 68 L376 68 L376 9 L316 9 L316 68 ZM470 68 L530 68 L530 9 L470 9 L470 68 ZM547 68 L607 68 L607 9 L547 9 L547 68 ZM624 68 L684 68 L684 9 L624 9 L624 68 ZM701 68 L761 68 L761 9 L701 9 L701 68 ZM778 68 L838 68 L838 9 L778 9 L778 68 ZM855 68 L915 68 L915 9 L855 9 L855 68 ZM162 -9 L222 -9 L222 -68 L162 -68 L162 -9 ZM239 -9 L299 -9 L299 -68 L239 -68 L239 -9 ZM393 -9 L453 -9 L453 -68 L393 -68 L393 -9 ZM624 -9 L684 -9 L684 -68 L624 -68 L624 -9 ZM162 -85 L222 -85 L222 -145 L162 -145 L162 -85 ZM470 -85 L530 -85 L530 -145 L470 -145 L470 -85 ZM547 -85 L607 -85 L607 -145 L547 -145 L547 -85 ZM624 -85 L684 -85 L684 -145 L624 -145 L624 -85 ZM701 -85 L761 -85 L761 -145 L701 -145 L701 -85 ZM778 -85 L838 -85 L838 -145 L778 -145 L778 -85 ZM855 -85 L915 -85 L915 -145 L855 -145 L855 -85 Z" /><glyph glyph-name="U_5076" unicode="&#x5076;" d="M239 761 L299 761 L299 701 L239 701 L239 761 ZM393 761 L453 761 L453 701 L393 701 L393 761 ZM470 761 L530 761 L530 701 L470 701 L470 761 ZM547 761 L607 761 L607 701 L547 701 L547 761 ZM624 761 L684 761 L684 701 L624 701 L624 761 ZM701 761 L761 761 L761 701 L701 701 L701 761 ZM778 761 L838 761 L838 701 L778 701 L778 761 ZM239 684 L299 684 L299 624 L239 624 L239 684 ZM393 684 L453 684 L453 624 L393 624 L393 684 ZM547 684 L607 684 L607 624 L547 624 L547 684 ZM778 684 L838 684 L838 624 L778 624 L778 684 ZM162 607 L222 607 L222 547 L162 547 L162 607 ZM393 607 L453 607 L453 547 L393 547 L393 607 ZM470 607 L530 607 L530 547 L470 547 L470 607 ZM547 607 L607 607 L607 547 L547 547 L547 607 ZM624 607 L684 607 L684 547 L624 547 L624 607 ZM701 607 L761 607 L761 547 L701 547 L701 607 ZM778 607 L838 607 L838 547 L778 547 L778 607 ZM162 530 L222 530 L222 470 L162 470 L162 530 ZM393 530 L453 530 L453 470 L393 470 L393 530 ZM547 530 L607 530 L607 470 L547 470 L547 530 ZM778 530 L838 530 L838 470 L778 470 L778 530 ZM85 453 L145 453 L145 393 L85 393 L85 453 ZM162 453 L222 453 L222 393 L162 393 L162 453 ZM393 453 L453 453 L453 393 L393 393 L393 453 ZM470 453 L530 453 L530 393 L470 393 L470 453 ZM547 453 L607 453 L607 393 L547 393 L547 453 ZM624 453 L684 453 L684 393 L624 393 L624 453 ZM701 453 L761 453 L761 393 L701 393 L701 453 ZM778 453 L838 453 L838 393 L778 393 L778 453 ZM9 376 L68 376 L68 316 L9 316 L9 376 ZM162 376 L222 376 L222 316 L162 316 L162 376 ZM547 376 L607 376 L607 316 L547 316 L547 376 ZM162 299 L222 299 L222 239 L162 239 L162 299 ZM316 299 L376 299 L376 239 L316 239 L316 299 ZM393 299 L453 299 L453 239 L393 239 L393 299 ZM470 299 L530 299 L530 239 L470 239 L470 299 ZM547 299 L607 299 L607 239 L547 239 L547 299 ZM624 299 L684 299 L684 239 L624 239 L624 299 ZM701 299 L761 299 L761 239 L701 239 L701 299 ZM778 299 L838 299 L838 239 L778 239 L778 299 ZM855 299 L915 299 L915 239 L855 239 L855 299 ZM162 222 L222 222 L222 162 L162 162 L162 222 ZM316 222 L376 222 L376 162 L316 162 L316 222 ZM547 222 L607 222 L607 162 L547 162 L547 222 ZM855 222 L915 222 L915 162 L855 162 L855 222 ZM162 145 L222 145 L222 85 L162 85 L162 145 ZM316 145 L376 145 L376 85 L316 85 L316 145 ZM547 145 L607 145 L607 85 L547 85 L547 145 ZM701 145 L761 145 L761 85 L701 85 L701 145 ZM855 145 L915 145 L915 85 L855 85 L855 145 ZM162 68 L222 68 L222 9 L162 9 L162 68 ZM316 68 L376 68 L376 9 L316 9 L316 68 ZM393 68 L453 68 L453 9 L393 9 L393 68 ZM470 68 L530 68 L530 9 L470 9 L470 68 ZM547 68 L607 68 L607 9 L547 9 L547 68 ZM624 68 L684 68 L684 9 L624 9 L624 68 ZM701 68 L761 68 L761 9 L701 9 L701 68 ZM855 68 L915 68 L915 9 L855 9 L855 68 ZM162 -9 L222 -9 L222 -68 L162 -68 L162 -9 ZM316 -9 L376 -9 L376 -68 L316 -68 L316 -9 ZM855 -9 L915 -9 L915 -68 L855 -68 L855 -9 ZM162 -85 L222 -85 L222 -145 L162 -145 L162 -85 ZM316 -85 L376 -85 L376 -145 L316 -145 L316 -85 ZM778 -85 L838 -85 L838 -145 L778 -145 L778 -85 ZM855 -85 L915 -85 L915 -145 L855 -145 L855 -85 Z" /><glyph glyph-name="U_514B" unicode="&#x514b;" d="M393 761 L453 761 L453 701 L393 701 L393 761 ZM9 684 L68 684 L68 624 L9 624 L9 684 ZM85 684 L145 684 L145 624 L85 624 L85 684 ZM162 684 L222 684 L222 624 L162 624 L162 684 ZM239 684 L299 684 L299 624 L239 624 L239 684 ZM316 684 L376 684 L376 624 L316 624 L316 684 ZM393 684 L453 684 L453 624 L393 624 L393 684 ZM470 684 L530 684 L530 624 L470 624 L470 684 ZM547 684 L607 684 L607 624 L547 624 L547 684 ZM624 684 L684 684 L684 624 L624 624 L624 684 ZM701 684 L761 684 L761 624 L701 624 L701 684 ZM778 684 L838 684 L838 624 L778 624 L778 684 ZM393 607 L453 607 L453 547 L393 547 L393 607 ZM162 530 L222 530 L222 470 L162 470 L162 530 ZM239 530 L299 530 L299 470 L239 470 L239 530 ZM316 530 L376 530 L376 470 L316 470 L316 530 ZM393 530 L453 530 L453 470 L393 470 L393 530 ZM470 530 L530 530 L530 470 L470 470 L470 530 ZM547 530 L607 530 L607 470 L547 470 L547 530 ZM624 530 L684 530 L684 470 L624 470 L624 530 ZM162 453 L222 453 L222 393 L162 393 L162 453 ZM624 453 L684 453 L684 393 L624 393 L624 453 ZM162 376 L222 376 L222 316 L162 316 L162 376 ZM624 376 L684 376 L684 316 L624 316 L624 376 ZM162 299 L222 299 L222 239 L162 239 L162 299 ZM239 299 L299 299 L299 239 L239 239 L239 299 ZM316 299 L376 299 L376 239 L316 239 L316 299 ZM393 299 L453 299 L453 239 L393 239 L393 299 ZM470 299 L530 299 L530 239 L470 239 L470 299 ZM547 299 L607 299 L607 239 L547 239 L547 299 ZM624 299 L684 299 L684 239 L624 239 L624 299 ZM162 222 L222 222 L222 162 L162 162 L162 222 ZM316 222 L376 222 L376 162 L316 162 L316 222 ZM470 222 L530 222 L530 162 L470 162 L470 222 ZM624 222 L684 222 L684 162 L624 162 L624 222 ZM316 145 L376 145 L376 85 L316 85 L316 145 ZM470 145 L530 145 L530 85 L470 85 L470 145 ZM239 68 L299 68 L299 9 L239 9 L239 68 ZM470 68 L530 68 L530 9 L470 9 L470 68 ZM778 68 L838 68 L838 9 L778 9 L778 68 ZM162 -9 L222 -9 L222 -68 L162 -68 L162 -9 ZM470 -9 L530 -9 L530 -68 L470 -68 L470 -9 ZM778 -9 L838 -9 L838 -68 L778 -68 L778 -9 ZM9 -85 L68 -85 L68 -145 L9 -145 L9 -85 ZM85 -85 L145 -85 L145 -145 L85 -145 L85 -85 ZM547 -85 L607 -85 L607 -145 L547 -145 L547 -85 ZM624 -85 L684 -85 L684 -145 L624 -145 L624 -85 ZM701 -85 L761 -85 L761 -145 L701 -145 L701 -85 ZM778 -85 L838 -85 L838 -145 L778 -145 L778 -85 Z" /><glyph glyph-name="U_5165" unicode="&#x5165;" d="M239 761 L299 761 L299 701 L239 701 L239 761 ZM316 761 L376 761 L376 701 L316 701 L316 761 ZM393 684 L453 684 L453 624 L393 624 L393 684 ZM393 607 L453 607 L453 547 L393 547 L393 607 ZM393 530 L453 530 L453 470 L393 470 L393 530 ZM316 453 L376 453 L376 393 L316 393 L316 453 ZM470 453 L530 453 L530 393 L470 393 L470 453 ZM316 376 L376 376 L376 316 L316 316 L316 376 ZM470 376 L530 376 L530 316 L470 316 L470 376 ZM316 299 L376 299 L376 239 L316 239 L316 299 ZM470 299 L530 299 L530 239 L470 239 L470 299 ZM239 222 L299 222 L299 162 L239 162 L239 222 ZM547 222 L607 222 L607 162 L547 162 L547 222 ZM239 145 L299 145 L299 85 L239 85 L239 145 ZM547 145 L607 145 L607 85 L547 85 L547 145 ZM162 68 L222 68 L222 9 L162 9 L162 68 ZM624 68 L684 68 L684 9 L624 9 L624 68 ZM85 -9 L145 -9 L145 -68 L85 -68 L85 -9 ZM701 -9 L761 -9 L761 -68 L701 -68 L701 -9 ZM9 -85 L68 -85 L68 -145 L9 -145 L9 -85 ZM778 -85 L838 -85 L838 -145 L778 -145 L778 -85 ZM855 -85 L915 -85 L915 -145 L855 -145 L855 -85 Z" /><glyph glyph-name="U_5168" unicode="&#x5168;" d="M393 761 L453 761 L453 701 L393 701 L393 761 ZM316 684 L376 684 L376 624 L316 624 L316 684 ZM470 684 L530 684 L530 624 L470 624 L470 684 ZM239 607 L299 607 L299 547 L239 547 L239 607 ZM547 607 L607 607 L607 547 L547 547 L547 607 ZM162 530 L222 530 L222 470 L162 470 L162 530 ZM624 530 L684 530 L684 470 L624 470 L624 530 ZM85 453 L145 453 L145 393 L85 393 L85 453 ZM701 453 L761 453 L761 393 L701 393 L701 453 ZM9 376 L68 376 L68 316 L9 316 L9 376 ZM162 376 L222 376 L222 316 L162 316 L162 376 ZM239 376 L299 376 L299 316 L239 316 L239 376 ZM316 376 L376 376 L376 316 L316 316 L316 376 ZM393 376 L453 376 L453 316 L393 316 L393 376 ZM470 376 L530 376 L530 316 L470 316 L470 376 ZM547 376 L607 376 L607 316 L547 316 L547 376 ZM624 376 L684 376 L684 316 L624 316 L624 376 ZM778 376 L838 376 L838 316 L778 316 L778 376 ZM855 376 L915 376 L915 316 L855 316 L855 376 ZM393 299 L453 299 L453 239 L393 239 L393 299 ZM393 222 L453 222 L453 162 L393 162 L393 222 ZM162 145 L222 145 L222 85 L162 85 L162 145 ZM239 145 L299 145 L299 85 L239 85 L239 145 ZM316 145 L376 145 L376 85 L316 85 L316 145 ZM393 145 L453 145 L453 85 L393 85 L393 145 ZM470 145 L530 145 L530 85 L470 85 L470 145 ZM547 145 L607 145 L607 85 L547 85 L547 145 ZM624 145 L684 145 L684 85 L624 85 L624 145 ZM393 68 L453 68 L453 9 L393 9 L393 68 ZM393 -9 L453 -9 L453 -68 L393 -68 L393 -9 ZM9 -85 L68 -85 L68 -145 L9 -145 L9 -85 ZM85 -85 L145 -85 L145 -145 L85 -145 L85 -85 ZM162 -85 L222 -85 L222 -145 L162 -145 L162 -85 ZM239 -85 L299 -85 L299 -145 L239 -145 L239 -85 ZM316 -85 L376 -85 L376 -145 L316 -145 L316 -85 ZM393 -85 L453 -85 L453 -145 L393 -145 L393 -85 ZM470 -85 L530 -85 L530 -145 L470 -145 L470 -85 ZM547 -85 L607 -85 L607 -145 L547 -145 L547 -85 ZM624 -85 L684 -85 L684 -145 L624 -145 L624 -85 ZM701 -85 L761 -85 L761 -145 L701 -145 L701 -85 ZM778 -85 L838 -85 L838 -145 L778 -145 L778 -85 Z" /><glyph glyph-name="U_5171" unicode="&#x5171;" d="M316 761 L376 761 L376 701 L316 701 L316 761 ZM624 761 L684 761 L684 701 L624 701 L624 761 ZM316 684 L376 684 L376 624 L316 624 L316 684 ZM624 684 L684 684 L684 624 L624 624 L624 684 ZM316 607 L376 607 L376 547 L316 547 L316 607 ZM624 607 L684 607 L684 547 L624 547 L624 607 ZM85 530 L145 530 L145 470 L85 470 L85 530 ZM162 530 L222 530 L222 470 L162 470 L162 530 ZM239 530 L299 530 L299 470 L239 470 L239 530 ZM316 530 L376 530 L376 470 L316 470 L316 530 ZM393 530 L453 530 L453 470 L393 470 L393 530 ZM470 530 L530 530 L530 470 L470 470 L470 530 ZM547 530 L607 530 L607 470 L547 470 L547 530 ZM624 530 L684 530 L684 470 L624 470 L624 530 ZM701 530 L761 530 L761 470 L701 470 L701 530 ZM778 530 L838 530 L838 470 L778 470 L778 530 ZM316 453 L376 453 L376 393 L316 393 L316 453 ZM624 453 L684 453 L684 393 L624 393 L624 453 ZM316 376 L376 376 L376 316 L316 316 L316 376 ZM624 376 L684 376 L684 316 L624 316 L624 376 ZM316 299 L376 299 L376 239 L316 239 L316 299 ZM624 299 L684 299 L684 239 L624 239 L624 299 ZM9 222 L68 222 L68 162 L9 162 L9 222 ZM85 222 L145 222 L145 162 L85 162 L85 222 ZM162 222 L222 222 L222 162 L162 162 L162 222 ZM239 222 L299 222 L299 162 L239 162 L239 222 ZM316 222 L376 222 L376 162 L316 162 L316 222 ZM393 222 L453 222 L453 162 L393 162 L393 222 ZM470 222 L530 222 L530 162 L470 162 L470 222 ZM547 222 L607 222 L607 162 L547 162 L547 222 ZM624 222 L684 222 L684 162 L624 162 L624 222 ZM701 222 L761 222 L761 162 L701 162 L701 222 ZM778 222 L838 222 L838 162 L778 162 L778 222 ZM855 222 L915 222 L915 162 L855 162 L855 222 ZM316 68 L376 68 L376 9 L316 9 L316 68 ZM624 68 L684 68 L684 9 L624 9 L624 68 ZM239 -9 L299 -9 L299 -68 L239 -68 L239 -9 ZM701 -9 L761 -9 L761 -68 L701 -68 L701 -9 ZM85 -85 L145 -85 L145 -145 L85 -145 L85 -85 ZM162 -85 L222 -85 L222 -145 L162 -145 L162 -85 ZM778 -85 L838 -85 L838 -145 L778 -145 L778 -85 ZM855 -85 L915 -85 L915 -145 L855 -145 L855 -85 Z" /><glyph glyph-name="U_5173" unicode="&#x5173;" d="M162 761 L222 761 L222 701 L162 701 L162 761 ZM624 761 L684 761 L684 701 L624 701 L624 761 ZM239 684 L299 684 L299 624 L239 624 L239 684 ZM547 684 L607 684 L607 624 L547 624 L547 684 ZM316 607 L376 607 L376 547 L316 547 L316 607 ZM470 607 L530 607 L530 547 L470 547 L470 607 ZM85 530 L145 530 L145 470 L85 470 L85 530 ZM162 530 L222 530 L222 470 L162 470 L162 530 ZM239 530 L299 530 L299 470 L239 470 L239 530 ZM316 530 L376 530 L376 470 L316 470 L316 530 ZM393 530 L453 530 L453 470 L393 470 L393 530 ZM470 530 L530 530 L530 470 L470 470 L470 530 ZM547 530 L607 530 L607 470 L547 470 L547 530 ZM624 530 L684 530 L684 470 L624 470 L624 530 ZM701 530 L761 530 L761 470 L701 470 L701 530 ZM393 453 L453 453 L453 393 L393 393 L393 453 ZM393 376 L453 376 L453 316 L393 316 L393 376 ZM9 299 L68 299 L68 239 L9 239 L9 299 ZM85 299 L145 299 L145 239 L85 239 L85 299 ZM162 299 L222 299 L222 239 L162 239 L162 299 ZM239 299 L299 299 L299 239 L239 239 L239 299 ZM316 299 L376 299 L376 239 L316 239 L316 299 ZM393 299 L453 299 L453 239 L393 239 L393 299 ZM470 299 L530 299 L530 239 L470 239 L470 299 ZM547 299 L607 299 L607 239 L547 239 L547 299 ZM624 299 L684 299 L684 239 L624 239 L624 299 ZM701 299 L761 299 L761 239 L701 239 L701 299 ZM778 299 L838 299 L838 239 L778 239 L778 299 ZM393 222 L453 222 L453 162 L393 162 L393 222 ZM316 145 L376 145 L376 85 L316 85 L316 145 ZM470 145 L530 145 L530 85 L470 85 L470 145 ZM239 68 L299 68 L299 9 L239 9 L239 68 ZM547 68 L607 68 L607 9 L547 9 L547 68 ZM162 -9 L222 -9 L222 -68 L162 -68 L162 -9 ZM624 -9 L684 -9 L684 -68 L624 -68 L624 -9 ZM9 -85 L68 -85 L68 -145 L9 -145 L9 -85 ZM85 -85 L145 -85 L145 -145 L85 -145 L85 -85 ZM701 -85 L761 -85 L761 -145 L701 -145 L701 -85 ZM778 -85 L838 -85 L838 -145 L778 -145 L778 -85 Z" /><glyph glyph-name="U_5176" unicode="&#x5176;" d="M239 761 L299 761 L299 701 L239 701 L239 761 ZM624 761 L684 761 L684 701 L624 701 L624 761 ZM85 684 L145 684 L145 624 L85 624 L85 684 ZM162 684 L222 684 L222 624 L162 624 L162 684 ZM239 684 L299 684 L299 624 L239 624 L239 684 ZM316 684 L376 684 L376 624 L316 624 L316 684 ZM393 684 L453 684 L453 624 L393 624 L393 684 ZM470 684 L530 684 L530 624 L470 624 L470 684 ZM547 684 L607 684 L607 624 L547 624 L547 684 ZM624 684 L684 684 L684 624 L624 624 L624 684 ZM701 684 L761 684 L761 624 L701 624 L701 684 ZM778 684 L838 684 L838 624 L778 624 L778 684 ZM239 607 L299 607 L299 547 L239 547 L239 607 ZM624 607 L684 607 L684 547 L624 547 L624 607 ZM239 530 L299 530 L299 470 L239 470 L239 530 ZM316 530 L376 530 L376 470 L316 470 L316 530 ZM393 530 L453 530 L453 470 L393 470 L393 530 ZM470 530 L530 530 L530 470 L470 470 L470 530 ZM547 530 L607 530 L607 470 L547 470 L547 530 ZM624 530 L684 530 L684 470 L624 470 L624 530 ZM239 453 L299 453 L299 393 L239 393 L239 453 ZM624 453 L684 453 L684 393 L624 393 L624 453 ZM239 376 L299 376 L299 316 L239 316 L239 376 ZM624 376 L684 376 L684 316 L624 316 L624 376 ZM239 299 L299 299 L299 239 L239 239 L239 299 ZM316 299 L376 299 L376 239 L316 239 L316 299 ZM393 299 L453 299 L453 239 L393 239 L393 299 ZM470 299 L530 299 L530 239 L470 239 L470 299 ZM547 299 L607 299 L607 239 L547 239 L547 299 ZM624 299 L684 299 L684 239 L624 239 L624 299 ZM239 222 L299 222 L299 162 L239 162 L239 222 ZM624 222 L684 222 L684 162 L624 162 L624 222 ZM9 145 L68 145 L68 85 L9 85 L9 145 ZM85 145 L145 145 L145 85 L85 85 L85 145 ZM162 145 L222 145 L222 85 L162 85 L162 145 ZM239 145 L299 145 L299 85 L239 85 L239 145 ZM316 145 L376 145 L376 85 L316 85 L316 145 ZM393 145 L453 145 L453 85 L393 85 L393 145 ZM470 145 L530 145 L530 85 L470 85 L470 145 ZM547 145 L607 145 L607 85 L547 85 L547 145 ZM624 145 L684 145 L684 85 L624 85 L624 145 ZM701 145 L761 145 L761 85 L701 85 L701 145 ZM778 145 L838 145 L838 85 L778 85 L778 145 ZM855 145 L915 145 L915 85 L855 85 L855 145 ZM239 68 L299 68 L299 9 L239 9 L239 68 ZM624 68 L684 68 L684 9 L624 9 L624 68 ZM162 -9 L222 -9 L222 -68 L162 -68 L162 -9 ZM701 -9 L761 -9 L761 -68 L701 -68 L701 -9 ZM85 -85 L145 -85 L145 -145 L85 -145 L85 -85 ZM778 -85 L838 -85 L838 -145 L778 -145 L778 -85 Z" /><glyph glyph-name="U_5185" unicode="&#x5185;" d="M393 761 L453 761 L453 701 L393 701 L393 761 ZM393 684 L453 684 L453 624 L393 624 L393 684 ZM85 607 L145 607 L145 547 L85 547 L85 607 ZM162 607 L222 607 L222 547 L162 547 L162 607 ZM239 607 L299 607 L299 547 L239 547 L239 607 ZM316 607 L376 607 L376 547 L316 547 L316 607 ZM393 607 L453 607 L453 547 L393 547 L393 607 ZM470 607 L530 607 L530 547 L470 547 L470 607 ZM547 607 L607 607 L607 547 L547 547 L547 607 ZM624 607 L684 607 L684 547 L624 547 L624 607 ZM701 607 L761 607 L761 547 L701 547 L701 607 ZM778 607 L838 607 L838 547 L778 547 L778 607 ZM85 530 L145 530 L145 470 L85 470 L85 530 ZM393 530 L453 530 L453 470 L393 470 L393 530 ZM778 530 L838 530 L838 470 L778 470 L778 530 ZM85 453 L145 453 L145 393 L85 393 L85 453 ZM393 453 L453 453 L453 393 L393 393 L393 453 ZM778 453 L838 453 L838 393 L778 393 L778 453 ZM85 376 L145 376 L145 316 L85 316 L85 376 ZM393 376 L453 376 L453 316 L393 316 L393 376 ZM778 376 L838 376 L838 316 L778 316 L778 376 ZM85 299 L145 299 L145 239 L85 239 L85 299 ZM393 299 L453 299 L453 239 L393 239 L393 299 ZM470 299 L530 299 L530 239 L470 239 L470 299 ZM778 299 L838 299 L838 239 L778 239 L778 299 ZM85 222 L145 222 L145 162 L85 162 L85 222 ZM316 222 L376 222 L376 162 L316 162 L316 222 ZM547 222 L607 222 L607 162 L547 162 L547 222 ZM778 222 L838 222 L838 162 L778 162 L778 222 ZM85 145 L145 145 L145 85 L85 85 L85 145 ZM239 145 L299 145 L299 85 L239 85 L239 145 ZM624 145 L684 145 L684 85 L624 85 L624 145 ZM778 145 L838 145 L838 85 L778 85 L778 145 ZM85 68 L145 68 L145 9 L85 9 L85 68 ZM778 68 L838 68 L838 9 L778 9 L778 68 ZM85 -9 L145 -9 L145 -68 L85 -68 L85 -9 ZM624 -9 L684 -9 L684 -68 L624 -68 L624 -9 ZM778 -9 L838 -9 L838 -68 L778 -68 L778 -9 ZM85 -85 L145 -85 L145 -145 L85 -145 L85 -85 ZM701 -85 L761 -85 L761 -145 L701 -145 L701 -85 Z" /><glyph glyph-name="U_51E0" unicode="&#x51e0;" d="M239 761 L299 761 L299 701 L239 701 L239 761 ZM316 761 L376 761 L376 701 L316 701 L316 761 ZM393 761 L453 761 L453 701 L393 701 L393 761 ZM470 761 L530 761 L530 701 L470 701 L470 761 ZM547 761 L607 761 L607 701 L547 701 L547 761 ZM239 684 L299 684 L299 624 L239 624 L239 684 ZM547 684 L607 684 L607 624 L547 624 L547 684 ZM239 607 L299 607 L299 547 L239 547 L239 607 ZM547 607 L607 607 L607 547 L547 547 L547 607 ZM239 530 L299 530 L299 470 L239 470 L239 530 ZM547 530 L607 530 L607 470 L547 470 L547 530 ZM239 453 L299 453 L299 393 L239 393 L239 453 ZM547 453 L607 453 L607 393 L547 393 L547 453 ZM239 376 L299 376 L299 316 L239 316 L239 376 ZM547 376 L607 376 L607 316 L547 316 L547 376 ZM239 299 L299 299 L299 239 L239 239 L239 299 ZM547 299 L607 299 L607 239 L547 239 L547 299 ZM239 222 L299 222 L299 162 L239 162 L239 222 ZM547 222 L607 222 L607 162 L547 162 L547 222 ZM162 145 L222 145 L222 85 L162 85 L162 145 ZM547 145 L607 145 L607 85 L547 85 L547 145 ZM855 145 L915 145 L915 85 L855 85 L855 145 ZM162 68 L222 68 L222 9 L162 9 L162 68 ZM547 68 L607 68 L607 9 L547 9 L547 68 ZM855 68 L915 68 L915 9 L855 9 L855 68 ZM85 -9 L145 -9 L145 -68 L85 -68 L85 -9 ZM547 -9 L607 -9 L607 -68 L547 -68 L547 -9 ZM855 -9 L915 -9 L915 -68 L855 -68 L855 -9 ZM9 -85 L68 -85 L68 -145 L9 -145 L9 -85 ZM624 -85 L684 -85 L684 -145 L624 -145 L624 -85 ZM701 -85 L761 -85 L761 -145 L701 -145 L701 -85 ZM778 -85 L838 -85 L838 -145 L778 -145 L778 -85 ZM855 -85 L915 -85 L915 -145 L855 -145 L855 -85 Z" /><glyph glyph-name="U_51FA" unicode="&#x51fa;" d="M393 761 L453 761 L453 701 L393 701 L393 761 ZM162 684 L222 684 L222 624 L162 624 L162 684 ZM393 684 L453 684 L453 624 L393 624 L393 684 ZM701 684 L761 684 L761 624 L701 624 L701 684 ZM162 607 L222 607 L222 547 L162 547 L162 607 ZM393 607 L453 607 L453 547 L393 547 L393 607 ZM701 607 L761 607 L761 547 L701 547 L701 607 ZM162 530 L222 530 L222 470 L162 470 L162 530 ZM393 530 L453 530 L453 470 L393 470 L393 530 ZM701 530 L761 530 L761 470 L701 470 L701 530 ZM162 453 L222 453 L222 393 L162 393 L162 453 ZM239 453 L299 453 L299 393 L239 393 L239 453 ZM316 453 L376 453 L376 393 L316 393 L316 453 ZM393 453 L453 453 L453 393 L393 393 L393 453 ZM470 453 L530 453 L530 393 L470 393 L470 453 ZM547 453 L607 453 L607 393 L547 393 L547 453 ZM624 453 L684 453 L684 393 L624 393 L624 453 ZM701 453 L761 453 L761 393 L701 393 L701 453 ZM393 376 L453 376 L453 316 L393 316 L393 376 ZM393 299 L453 299 L453 239 L393 239 L393 299 ZM85 222 L145 222 L145 162 L85 162 L85 222 ZM393 222 L453 222 L453 162 L393 162 L393 222 ZM778 222 L838 222 L838 162 L778 162 L778 222 ZM85 145 L145 145 L145 85 L85 85 L85 145 ZM393 145 L453 145 L453 85 L393 85 L393 145 ZM778 145 L838 145 L838 85 L778 85 L778 145 ZM85 68 L145 68 L145 9 L85 9 L85 68 ZM393 68 L453 68 L453 9 L393 9 L393 68 ZM778 68 L838 68 L838 9 L778 9 L778 68 ZM85 -9 L145 -9 L145 -68 L85 -68 L85 -9 ZM162 -9 L222 -9 L222 -68 L162 -68 L162 -9 ZM239 -9 L299 -9 L299 -68 L239 -68 L239 -9 ZM316 -9 L376 -9 L376 -68 L316 -68 L316 -9 ZM393 -9 L453 -9 L453 -68 L393 -68 L393 -9 ZM470 -9 L530 -9 L530 -68 L470 -68 L470 -9 ZM547 -9 L607 -9 L607 -68 L547 -68 L547 -9 ZM624 -9 L684 -9 L684 -68 L624 -68 L624 -9 ZM701 -9 L761 -9 L761 -68 L701 -68 L701 -9 ZM778 -9 L838 -9 L838 -68 L778 -68 L778 -9 ZM85 -85 L145 -85 L145 -145 L85 -145 L85 -85 ZM778 -85 L838 -85 L838 -145 L778 -145 L778 -85 Z" /><glyph glyph-name="U_5212" unicode="&#x5212;" d="M239 761 L299 761 L299 701 L239 701 L239 761 ZM855 761 L915 761 L915 701 L855 701 L855 761 ZM239 684 L299 684 L299 624 L239 624 L239 684 ZM393 684 L453 684 L453 624 L393 624 L393 684 ZM855 684 L915 684 L915 624 L855 624 L855 684 ZM239 607 L299 607 L299 547 L239 547 L239 607 ZM470 607 L530 607 L530 547 L470 547 L470 607 ZM701 607 L761 607 L761 547 L701 547 L701 607 ZM855 607 L915 607 L915 547 L855 547 L855 607 ZM239 530 L299 530 L299 470 L239 470 L239 530 ZM316 530 L376 530 L376 470 L316 470 L316 530 ZM393 530 L453 530 L453 470 L393 470 L393 530 ZM470 530 L530 530 L530 470 L470 470 L470 530 ZM547 530 L607 530 L607 470 L547 470 L547 530 ZM701 530 L761 530 L761 470 L701 470 L701 530 ZM855 530 L915 530 L915 470 L855 470 L855 530 ZM9 453 L68 453 L68 393 L9 393 L9 453 ZM85 453 L145 453 L145 393 L85 393 L85 453 ZM162 453 L222 453 L222 393 L162 393 L162 453 ZM239 453 L299 453 L299 393 L239 393 L239 453 ZM701 453 L761 453 L761 393 L701 393 L701 453 ZM855 453 L915 453 L915 393 L855 393 L855 453 ZM239 376 L299 376 L299 316 L239 316 L239 376 ZM470 376 L530 376 L530 316 L470 316 L470 376 ZM701 376 L761 376 L761 316 L701 316 L701 376 ZM855 376 L915 376 L915 316 L855 316 L855 376 ZM239 299 L299 299 L299 239 L239 239 L239 299 ZM470 299 L530 299 L530 239 L470 239 L470 299 ZM701 299 L761 299 L761 239 L701 239 L701 299 ZM855 299 L915 299 L915 239 L855 239 L855 299 ZM239 222 L299 222 L299 162 L239 162 L239 222 ZM393 222 L453 222 L453 162 L393 162 L393 222 ZM701 222 L761 222 L761 162 L701 162 L701 222 ZM855 222 L915 222 L915 162 L855 162 L855 222 ZM316 145 L376 145 L376 85 L316 85 L316 145 ZM855 145 L915 145 L915 85 L855 85 L855 145 ZM316 68 L376 68 L376 9 L316 9 L316 68 ZM547 68 L607 68 L607 9 L547 9 L547 68 ZM855 68 L915 68 L915 9 L855 9 L855 68 ZM239 -9 L299 -9 L299 -68 L239 -68 L239 -9 ZM393 -9 L453 -9 L453 -68 L393 -68 L393 -9 ZM547 -9 L607 -9 L607 -68 L547 -68 L547 -9 ZM701 -9 L761 -9 L761 -68 L701 -68 L701 -9 ZM855 -9 L915 -9 L915 -68 L855 -68 L855 -9 ZM85 -85 L145 -85 L145 -145 L85 -145 L85 -85 ZM162 -85 L222 -85 L222 -145 L162 -145 L162 -85 ZM470 -85 L530 -85 L530 -145 L470 -145 L470 -85 ZM778 -85 L838 -85 L838 -145 L778 -145 L778 -85 Z" /><glyph glyph-name="U_521B" unicode="&#x521b;" d="M316 761 L376 761 L376 701 L316 701 L316 761 ZM855 761 L915 761 L915 701 L855 701 L855 761 ZM316 684 L376 684 L376 624 L316 624 L316 684 ZM393 684 L453 684 L453 624 L393 624 L393 684 ZM855 684 L915 684 L915 624 L855 624 L855 684 ZM239 607 L299 607 L299 547 L239 547 L239 607 ZM470 607 L530 607 L530 547 L470 547 L470 607 ZM701 607 L761 607 L761 547 L701 547 L701 607 ZM855 607 L915 607 L915 547 L855 547 L855 607 ZM162 530 L222 530 L222 470 L162 470 L162 530 ZM547 530 L607 530 L607 470 L547 470 L547 530 ZM701 530 L761 530 L761 470 L701 470 L701 530 ZM855 530 L915 530 L915 470 L855 470 L855 530 ZM85 453 L145 453 L145 393 L85 393 L85 453 ZM162 453 L222 453 L222 393 L162 393 L162 453 ZM239 453 L299 453 L299 393 L239 393 L239 453 ZM316 453 L376 453 L376 393 L316 393 L316 453 ZM393 453 L453 453 L453 393 L393 393 L393 453 ZM470 453 L530 453 L530 393 L470 393 L470 453 ZM701 453 L761 453 L761 393 L701 393 L701 453 ZM855 453 L915 453 L915 393 L855 393 L855 453 ZM9 376 L68 376 L68 316 L9 316 L9 376 ZM162 376 L222 376 L222 316 L162 316 L162 376 ZM470 376 L530 376 L530 316 L470 316 L470 376 ZM701 376 L761 376 L761 316 L701 316 L701 376 ZM855 376 L915 376 L915 316 L855 316 L855 376 ZM162 299 L222 299 L222 239 L162 239 L162 299 ZM470 299 L530 299 L530 239 L470 239 L470 299 ZM701 299 L761 299 L761 239 L701 239 L701 299 ZM855 299 L915 299 L915 239 L855 239 L855 299 ZM162 222 L222 222 L222 162 L162 162 L162 222 ZM316 222 L376 222 L376 162 L316 162 L316 222 ZM470 222 L530 222 L530 162 L470 162 L470 222 ZM701 222 L761 222 L761 162 L701 162 L701 222 ZM855 222 L915 222 L915 162 L855 162 L855 222 ZM162 145 L222 145 L222 85 L162 85 L162 145 ZM393 145 L453 145 L453 85 L393 85 L393 145 ZM701 145 L761 145 L761 85 L701 85 L701 145 ZM855 145 L915 145 L915 85 L855 85 L855 145 ZM162 68 L222 68 L222 9 L162 9 L162 68 ZM547 68 L607 68 L607 9 L547 9 L547 68 ZM855 68 L915 68 L915 9 L855 9 L855 68 ZM162 -9 L222 -9 L222 -68 L162 -68 L162 -9 ZM547 -9 L607 -9 L607 -68 L547 -68 L547 -9 ZM855 -9 L915 -9 L915 -68 L855 -68 L855 -9 ZM239 -85 L299 -85 L299 -145 L239 -145 L239 -85 ZM316 -85 L376 -85 L376 -145 L316 -145 L316 -85 ZM393 -85 L453 -85 L453 -145 L393 -145 L393 -85 ZM470 -85 L530 -85 L530 -145 L470 -145 L470 -85 ZM547 -85 L607 -85 L607 -145 L547 -145 L547 -85 ZM778 -85 L838 -85 L838 -145 L778 -145 L778 -85 ZM855 -85 L915 -85 L915 -145 L855 -145 L855 -85 Z" /><glyph glyph-name="U_5229" unicode="&#x5229;" d="M316 761 L376 761 L376 701 L316 701 L316 761 ZM393 761 L453 761 L453 701 L393 701 L393 761 ZM855 761 L915 761 L915 701 L855 701 L855 761 ZM85 684 L145 684 L145 624 L85 624 L85 684 ZM162 684 L222 684 L222 624 L162 624 L162 684 ZM239 684 L299 684 L299 624 L239 624 L239 684 ZM624 684 L684 684 L684 624 L624 624 L624 684 ZM855 684 L915 684 L915 624 L855 624 L855 684 ZM239 607 L299 607 L299 547 L239 547 L239 607 ZM624 607 L684 607 L684 547 L624 547 L624 607 ZM855 607 L915 607 L915 547 L855 547 L855 607 ZM239 530 L299 530 L299 470 L239 470 L239 530 ZM624 530 L684 530 L684 470 L624 470 L624 530 ZM855 530 L915 530 L915 470 L855 470 L855 530 ZM9 453 L68 453 L68 393 L9 393 L9 453 ZM85 453 L145 453 L145 393 L85 393 L85 453 ZM162 453 L222 453 L222 393 L162 393 L162 453 ZM239 453 L299 453 L299 393 L239 393 L239 453 ZM316 453 L376 453 L376 393 L316 393 L316 453 ZM393 453 L453 453 L453 393 L393 393 L393 453 ZM470 453 L530 453 L530 393 L470 393 L470 453 ZM624 453 L684 453 L684 393 L624 393 L624 453 ZM855 453 L915 453 L915 393 L855 393 L855 453 ZM239 376 L299 376 L299 316 L239 316 L239 376 ZM624 376 L684 376 L684 316 L624 316 L624 376 ZM855 376 L915 376 L915 316 L855 316 L855 376 ZM162 299 L222 299 L222 239 L162 239 L162 299 ZM239 299 L299 299 L299 239 L239 239 L239 299 ZM316 299 L376 299 L376 239 L316 239 L316 299 ZM624 299 L684 299 L684 239 L624 239 L624 299 ZM855 299 L915 299 L915 239 L855 239 L855 299 ZM162 222 L222 222 L222 162 L162 162 L162 222 ZM239 222 L299 222 L299 162 L239 162 L239 222 ZM393 222 L453 222 L453 162 L393 162 L393 222 ZM624 222 L684 222 L684 162 L624 162 L624 222 ZM855 222 L915 222 L915 162 L855 162 L855 222 ZM85 145 L145 145 L145 85 L85 85 L85 145 ZM239 145 L299 145 L299 85 L239 85 L239 145 ZM470 145 L530 145 L530 85 L470 85 L470 145 ZM624 145 L684 145 L684 85 L624 85 L624 145 ZM855 145 L915 145 L915 85 L855 85 L855 145 ZM9 68 L68 68 L68 9 L9 9 L9 68 ZM239 68 L299 68 L299 9 L239 9 L239 68 ZM855 68 L915 68 L915 9 L855 9 L855 68 ZM239 -9 L299 -9 L299 -68 L239 -68 L239 -9 ZM855 -9 L915 -9 L915 -68 L855 -68 L855 -9 ZM239 -85 L299 -85 L299 -145 L239 -145 L239 -85 ZM701 -85 L761 -85 L761 -145 L701 -145 L701 -85 ZM778 -85 L838 -85 L838 -145 L778 -145 L778 -85 ZM855 -85 L915 -85 L915 -145 L855 -145 L855 -85 Z" /><glyph glyph-name="U_5230" unicode="&#x5230;" d="M855 761 L915 761 L915 701 L855 701 L855 761 ZM9 684 L68 684 L68 624 L9 624 L9 684 ZM85 684 L145 684 L145 624 L85 624 L85 684 ZM162 684 L222 684 L222 624 L162 624 L162 684 ZM239 684 L299 684 L299 624 L239 624 L239 684 ZM316 684 L376 684 L376 624 L316 624 L316 684 ZM393 684 L453 684 L453 624 L393 624 L393 684 ZM470 684 L530 684 L530 624 L470 624 L470 684 ZM855 684 L915 684 L915 624 L855 624 L855 684 ZM239 607 L299 607 L299 547 L239 547 L239 607 ZM624 607 L684 607 L684 547 L624 547 L624 607 ZM855 607 L915 607 L915 547 L855 547 L855 607 ZM162 530 L222 530 L222 470 L162 470 L162 530 ZM393 530 L453 530 L453 470 L393 470 L393 530 ZM624 530 L684 530 L684 470 L624 470 L624 530 ZM855 530 L915 530 L915 470 L855 470 L855 530 ZM85 453 L145 453 L145 393 L85 393 L85 453 ZM162 453 L222 453 L222 393 L162 393 L162 453 ZM239 453 L299 453 L299 393 L239 393 L239 453 ZM316 453 L376 453 L376 393 L316 393 L316 453 ZM393 453 L453 453 L453 393 L393 393 L393 453 ZM470 453 L530 453 L530 393 L470 393 L470 453 ZM624 453 L684 453 L684 393 L624 393 L624 453 ZM855 453 L915 453 L915 393 L855 393 L855 453 ZM239 376 L299 376 L299 316 L239 316 L239 376 ZM624 376 L684 376 L684 316 L624 316 L624 376 ZM855 376 L915 376 L915 316 L855 316 L855 376 ZM239 299 L299 299 L299 239 L239 239 L239 299 ZM624 299 L684 299 L684 239 L624 239 L624 299 ZM855 299 L915 299 L915 239 L855 239 L855 299 ZM85 222 L145 222 L145 162 L85 162 L85 222 ZM162 222 L222 222 L222 162 L162 162 L162 222 ZM239 222 L299 222 L299 162 L239 162 L239 222 ZM316 222 L376 222 L376 162 L316 162 L316 222 ZM393 222 L453 222 L453 162 L393 162 L393 222 ZM470 222 L530 222 L530 162 L470 162 L470 222 ZM624 222 L684 222 L684 162 L624 162 L624 222 ZM855 222 L915 222 L915 162 L855 162 L855 222 ZM239 145 L299 145 L299 85 L239 85 L239 145 ZM624 145 L684 145 L684 85 L624 85 L624 145 ZM855 145 L915 145 L915 85 L855 85 L855 145 ZM239 68 L299 68 L299 9 L239 9 L239 68 ZM855 68 L915 68 L915 9 L855 9 L855 68 ZM239 -9 L299 -9 L299 -68 L239 -68 L239 -9 ZM316 -9 L376 -9 L376 -68 L316 -68 L316 -9 ZM393 -9 L453 -9 L453 -68 L393 -68 L393 -9 ZM470 -9 L530 -9 L530 -68 L470 -68 L470 -9 ZM855 -9 L915 -9 L915 -68 L855 -68 L855 -9 ZM9 -85 L68 -85 L68 -145 L9 -145 L9 -85 ZM85 -85 L145 -85 L145 -145 L85 -145 L85 -85 ZM162 -85 L222 -85 L222 -145 L162 -145 L162 -85 ZM701 -85 L761 -85 L761 -145 L701 -145 L701 -85 ZM778 -85 L838 -85 L838 -145 L778 -145 L778 -85 ZM855 -85 L915 -85 L915 -145 L855 -145 L855 -85 Z" /><glyph glyph-name="U_523B" unicode="&#x523b;" d="M162 761 L222 761 L222 701 L162 701 L162 761 ZM855 761 L915 761 L915 701 L855 701 L855 761 ZM239 684 L299 684 L299 624 L239 624 L239 684 ZM855 684 L915 684 L915 624 L855 624 L855 684 ZM9 607 L68 607 L68 547 L9 547 L9 607 ZM85 607 L145 607 L145 547 L85 547 L85 607 ZM162 607 L222 607 L222 547 L162 547 L162 607 ZM239 607 L299 607 L299 547 L239 547 L239 607 ZM316 607 L376 607 L376 547 L316 547 L316 607 ZM393 607 L453 607 L453 547 L393 547 L393 607 ZM470 607 L530 607 L530 547 L470 547 L470 607 ZM624 607 L684 607 L684 547 L624 547 L624 607 ZM855 607 L915 607 L915 547 L855 547 L855 607 ZM162 530 L222 530 L222 470 L162 470 L162 530 ZM624 530 L684 530 L684 470 L624 470 L624 530 ZM855 530 L915 530 L915 470 L855 470 L855 530 ZM85 453 L145 453 L145 393 L85 393 L85 453 ZM316 453 L376 453 L376 393 L316 393 L316 453 ZM624 453 L684 453 L684 393 L624 393 L624 453 ZM855 453 L915 453 L915 393 L855 393 L855 453 ZM85 376 L145 376 L145 316 L85 316 L85 376 ZM162 376 L222 376 L222 316 L162 316 L162 376 ZM239 376 L299 376 L299 316 L239 316 L239 376 ZM316 376 L376 376 L376 316 L316 316 L316 376 ZM624 376 L684 376 L684 316 L624 316 L624 376 ZM855 376 L915 376 L915 316 L855 316 L855 376 ZM239 299 L299 299 L299 239 L239 239 L239 299 ZM470 299 L530 299 L530 239 L470 239 L470 299 ZM624 299 L684 299 L684 239 L624 239 L624 299 ZM855 299 L915 299 L915 239 L855 239 L855 299 ZM162 222 L222 222 L222 162 L162 162 L162 222 ZM393 222 L453 222 L453 162 L393 162 L393 222 ZM624 222 L684 222 L684 162 L624 162 L624 222 ZM855 222 L915 222 L915 162 L855 162 L855 222 ZM85 145 L145 145 L145 85 L85 85 L85 145 ZM316 145 L376 145 L376 85 L316 85 L316 145 ZM624 145 L684 145 L684 85 L624 85 L624 145 ZM855 145 L915 145 L915 85 L855 85 L855 145 ZM9 68 L68 68 L68 9 L9 9 L9 68 ZM239 68 L299 68 L299 9 L239 9 L239 68 ZM316 68 L376 68 L376 9 L316 9 L316 68 ZM855 68 L915 68 L915 9 L855 9 L855 68 ZM162 -9 L222 -9 L222 -68 L162 -68 L162 -9 ZM393 -9 L453 -9 L453 -68 L393 -68 L393 -9 ZM855 -9 L915 -9 L915 -68 L855 -68 L855 -9 ZM85 -85 L145 -85 L145 -145 L85 -145 L85 -85 ZM470 -85 L530 -85 L530 -145 L470 -145 L470 -85 ZM701 -85 L761 -85 L761 -145 L701 -145 L701 -85 ZM778 -85 L838 -85 L838 -145 L778 -145 L778 -85 ZM855 -85 L915 -85 L915 -145 L855 -145 L855 -85 Z" /><glyph glyph-name="U_524D" unicode="&#x524d;" d="M162 761 L222 761 L222 701 L162 701 L162 761 ZM624 761 L684 761 L684 701 L624 701 L624 761 ZM239 684 L299 684 L299 624 L239 624 L239 684 ZM547 684 L607 684 L607 624 L547 624 L547 684 ZM9 607 L68 607 L68 547 L9 547 L9 607 ZM85 607 L145 607 L145 547 L85 547 L85 607 ZM162 607 L222 607 L222 547 L162 547 L162 607 ZM239 607 L299 607 L299 547 L239 547 L239 607 ZM316 607 L376 607 L376 547 L316 547 L316 607 ZM393 607 L453 607 L453 547 L393 547 L393 607 ZM470 607 L530 607 L530 547 L470 547 L470 607 ZM547 607 L607 607 L607 547 L547 547 L547 607 ZM624 607 L684 607 L684 547 L624 547 L624 607 ZM701 607 L761 607 L761 547 L701 547 L701 607 ZM778 607 L838 607 L838 547 L778 547 L778 607 ZM85 453 L145 453 L145 393 L85 393 L85 453 ZM162 453 L222 453 L222 393 L162 393 L162 453 ZM239 453 L299 453 L299 393 L239 393 L239 453 ZM316 453 L376 453 L376 393 L316 393 L316 453 ZM701 453 L761 453 L761 393 L701 393 L701 453 ZM85 376 L145 376 L145 316 L85 316 L85 376 ZM316 376 L376 376 L376 316 L316 316 L316 376 ZM547 376 L607 376 L607 316 L547 316 L547 376 ZM701 376 L761 376 L761 316 L701 316 L701 376 ZM85 299 L145 299 L145 239 L85 239 L85 299 ZM162 299 L222 299 L222 239 L162 239 L162 299 ZM239 299 L299 299 L299 239 L239 239 L239 299 ZM316 299 L376 299 L376 239 L316 239 L316 299 ZM547 299 L607 299 L607 239 L547 239 L547 299 ZM701 299 L761 299 L761 239 L701 239 L701 299 ZM85 222 L145 222 L145 162 L85 162 L85 222 ZM316 222 L376 222 L376 162 L316 162 L316 222 ZM547 222 L607 222 L607 162 L547 162 L547 222 ZM701 222 L761 222 L761 162 L701 162 L701 222 ZM85 145 L145 145 L145 85 L85 85 L85 145 ZM162 145 L222 145 L222 85 L162 85 L162 145 ZM239 145 L299 145 L299 85 L239 85 L239 145 ZM316 145 L376 145 L376 85 L316 85 L316 145 ZM547 145 L607 145 L607 85 L547 85 L547 145 ZM701 145 L761 145 L761 85 L701 85 L701 145 ZM85 68 L145 68 L145 9 L85 9 L85 68 ZM316 68 L376 68 L376 9 L316 9 L316 68 ZM547 68 L607 68 L607 9 L547 9 L547 68 ZM701 68 L761 68 L761 9 L701 9 L701 68 ZM85 -9 L145 -9 L145 -68 L85 -68 L85 -9 ZM316 -9 L376 -9 L376 -68 L316 -68 L316 -9 ZM701 -9 L761 -9 L761 -68 L701 -68 L701 -9 ZM85 -85 L145 -85 L145 -145 L85 -145 L85 -85 ZM239 -85 L299 -85 L299 -145 L239 -145 L239 -85 ZM316 -85 L376 -85 L376 -145 L316 -145 L316 -85 ZM624 -85 L684 -85 L684 -145 L624 -145 L624 -85 ZM701 -85 L761 -85 L761 -145 L701 -145 L701 -85 Z" /><glyph glyph-name="U_52A0" unicode="&#x52a0;" d="M239 761 L299 761 L299 701 L239 701 L239 761 ZM239 684 L299 684 L299 624 L239 624 L239 684 ZM9 607 L68 607 L68 547 L9 547 L9 607 ZM85 607 L145 607 L145 547 L85 547 L85 607 ZM162 607 L222 607 L222 547 L162 547 L162 607 ZM239 607 L299 607 L299 547 L239 547 L239 607 ZM316 607 L376 607 L376 547 L316 547 L316 607 ZM393 607 L453 607 L453 547 L393 547 L393 607 ZM470 607 L530 607 L530 547 L470 547 L470 607 ZM624 607 L684 607 L684 547 L624 547 L624 607 ZM701 607 L761 607 L761 547 L701 547 L701 607 ZM778 607 L838 607 L838 547 L778 547 L778 607 ZM855 607 L915 607 L915 547 L855 547 L855 607 ZM239 530 L299 530 L299 470 L239 470 L239 530 ZM470 530 L530 530 L530 470 L470 470 L470 530 ZM624 530 L684 530 L684 470 L624 470 L624 530 ZM855 530 L915 530 L915 470 L855 470 L855 530 ZM239 453 L299 453 L299 393 L239 393 L239 453 ZM470 453 L530 453 L530 393 L470 393 L470 453 ZM624 453 L684 453 L684 393 L624 393 L624 453 ZM855 453 L915 453 L915 393 L855 393 L855 453 ZM239 376 L299 376 L299 316 L239 316 L239 376 ZM470 376 L530 376 L530 316 L470 316 L470 376 ZM624 376 L684 376 L684 316 L624 316 L624 376 ZM855 376 L915 376 L915 316 L855 316 L855 376 ZM239 299 L299 299 L299 239 L239 239 L239 299 ZM470 299 L530 299 L530 239 L470 239 L470 299 ZM624 299 L684 299 L684 239 L624 239 L624 299 ZM855 299 L915 299 L915 239 L855 239 L855 299 ZM162 222 L222 222 L222 162 L162 162 L162 222 ZM470 222 L530 222 L530 162 L470 162 L470 222 ZM624 222 L684 222 L684 162 L624 162 L624 222 ZM855 222 L915 222 L915 162 L855 162 L855 222 ZM162 145 L222 145 L222 85 L162 85 L162 145 ZM470 145 L530 145 L530 85 L470 85 L470 145 ZM624 145 L684 145 L684 85 L624 85 L624 145 ZM855 145 L915 145 L915 85 L855 85 L855 145 ZM162 68 L222 68 L222 9 L162 9 L162 68 ZM470 68 L530 68 L530 9 L470 9 L470 68 ZM624 68 L684 68 L684 9 L624 9 L624 68 ZM855 68 L915 68 L915 9 L855 9 L855 68 ZM85 -9 L145 -9 L145 -68 L85 -68 L85 -9 ZM470 -9 L530 -9 L530 -68 L470 -68 L470 -9 ZM624 -9 L684 -9 L684 -68 L624 -68 L624 -9 ZM701 -9 L761 -9 L761 -68 L701 -68 L701 -9 ZM778 -9 L838 -9 L838 -68 L778 -68 L778 -9 ZM855 -9 L915 -9 L915 -68 L855 -68 L855 -9 ZM9 -85 L68 -85 L68 -145 L9 -145 L9 -85 ZM316 -85 L376 -85 L376 -145 L316 -145 L316 -85 ZM393 -85 L453 -85 L453 -145 L393 -145 L393 -85 ZM624 -85 L684 -85 L684 -145 L624 -145 L624 -85 ZM855 -85 L915 -85 L915 -145 L855 -145 L855 -85 Z" /><glyph glyph-name="U_52A1" unicode="&#x52a1;" d="M316 761 L376 761 L376 701 L316 701 L316 761 ZM239 684 L299 684 L299 624 L239 624 L239 684 ZM316 684 L376 684 L376 624 L316 624 L316 684 ZM393 684 L453 684 L453 624 L393 624 L393 684 ZM470 684 L530 684 L530 624 L470 624 L470 684 ZM547 684 L607 684 L607 624 L547 624 L547 684 ZM624 684 L684 684 L684 624 L624 624 L624 684 ZM701 684 L761 684 L761 624 L701 624 L701 684 ZM239 607 L299 607 L299 547 L239 547 L239 607 ZM624 607 L684 607 L684 547 L624 547 L624 607 ZM162 530 L222 530 L222 470 L162 470 L162 530 ZM316 530 L376 530 L376 470 L316 470 L316 530 ZM547 530 L607 530 L607 470 L547 470 L547 530 ZM393 453 L453 453 L453 393 L393 393 L393 453 ZM470 453 L530 453 L530 393 L470 393 L470 453 ZM239 376 L299 376 L299 316 L239 316 L239 376 ZM316 376 L376 376 L376 316 L316 316 L316 376 ZM547 376 L607 376 L607 316 L547 316 L547 376 ZM624 376 L684 376 L684 316 L624 316 L624 376 ZM9 299 L68 299 L68 239 L9 239 L9 299 ZM85 299 L145 299 L145 239 L85 239 L85 299 ZM162 299 L222 299 L222 239 L162 239 L162 299 ZM393 299 L453 299 L453 239 L393 239 L393 299 ZM701 299 L761 299 L761 239 L701 239 L701 299 ZM778 299 L838 299 L838 239 L778 239 L778 299 ZM855 299 L915 299 L915 239 L855 239 L855 299 ZM162 222 L222 222 L222 162 L162 162 L162 222 ZM239 222 L299 222 L299 162 L239 162 L239 222 ZM316 222 L376 222 L376 162 L316 162 L316 222 ZM393 222 L453 222 L453 162 L393 162 L393 222 ZM470 222 L530 222 L530 162 L470 162 L470 222 ZM547 222 L607 222 L607 162 L547 162 L547 222 ZM624 222 L684 222 L684 162 L624 162 L624 222 ZM701 222 L761 222 L761 162 L701 162 L701 222 ZM393 145 L453 145 L453 85 L393 85 L393 145 ZM701 145 L761 145 L761 85 L701 85 L701 145 ZM316 68 L376 68 L376 9 L316 9 L316 68 ZM701 68 L761 68 L761 9 L701 9 L701 68 ZM239 -9 L299 -9 L299 -68 L239 -68 L239 -9 ZM547 -9 L607 -9 L607 -68 L547 -68 L547 -9 ZM701 -9 L761 -9 L761 -68 L701 -68 L701 -9 ZM162 -85 L222 -85 L222 -145 L162 -145 L162 -85 ZM624 -85 L684 -85 L684 -145 L624 -145 L624 -85 Z" /><glyph glyph-name="U_52A8" unicode="&#x52a8;" d="M624 761 L684 761 L684 701 L624 701 L624 761 ZM85 684 L145 684 L145 624 L85 624 L85 684 ZM162 684 L222 684 L222 624 L162 624 L162 684 ZM239 684 L299 684 L299 624 L239 624 L239 684 ZM316 684 L376 684 L376 624 L316 624 L316 684 ZM624 684 L684 684 L684 624 L624 624 L624 684 ZM624 607 L684 607 L684 547 L624 547 L624 607 ZM470 530 L530 530 L530 470 L470 470 L470 530 ZM547 530 L607 530 L607 470 L547 470 L547 530 ZM624 530 L684 530 L684 470 L624 470 L624 530 ZM701 530 L761 530 L761 470 L701 470 L701 530 ZM778 530 L838 530 L838 470 L778 470 L778 530 ZM855 530 L915 530 L915 470 L855 470 L855 530 ZM9 453 L68 453 L68 393 L9 393 L9 453 ZM85 453 L145 453 L145 393 L85 393 L85 453 ZM162 453 L222 453 L222 393 L162 393 L162 453 ZM239 453 L299 453 L299 393 L239 393 L239 453 ZM316 453 L376 453 L376 393 L316 393 L316 453 ZM624 453 L684 453 L684 393 L624 393 L624 453 ZM855 453 L915 453 L915 393 L855 393 L855 453 ZM162 376 L222 376 L222 316 L162 316 L162 376 ZM624 376 L684 376 L684 316 L624 316 L624 376 ZM855 376 L915 376 L915 316 L855 316 L855 376 ZM162 299 L222 299 L222 239 L162 239 L162 299 ZM624 299 L684 299 L684 239 L624 239 L624 299 ZM855 299 L915 299 L915 239 L855 239 L855 299 ZM85 222 L145 222 L145 162 L85 162 L85 222 ZM316 222 L376 222 L376 162 L316 162 L316 222 ZM624 222 L684 222 L684 162 L624 162 L624 222 ZM855 222 L915 222 L915 162 L855 162 L855 222 ZM85 145 L145 145 L145 85 L85 85 L85 145 ZM316 145 L376 145 L376 85 L316 85 L316 145 ZM393 145 L453 145 L453 85 L393 85 L393 145 ZM547 145 L607 145 L607 85 L547 85 L547 145 ZM855 145 L915 145 L915 85 L855 85 L855 145 ZM9 68 L68 68 L68 9 L9 9 L9 68 ZM85 68 L145 68 L145 9 L85 9 L85 68 ZM162 68 L222 68 L222 9 L162 9 L162 68 ZM239 68 L299 68 L299 9 L239 9 L239 68 ZM393 68 L453 68 L453 9 L393 9 L393 68 ZM547 68 L607 68 L607 9 L547 9 L547 68 ZM855 68 L915 68 L915 9 L855 9 L855 68 ZM85 -9 L145 -9 L145 -68 L85 -68 L85 -9 ZM470 -9 L530 -9 L530 -68 L470 -68 L470 -9 ZM701 -9 L761 -9 L761 -68 L701 -68 L701 -9 ZM855 -9 L915 -9 L915 -68 L855 -68 L855 -9 ZM393 -85 L453 -85 L453 -145 L393 -145 L393 -85 ZM778 -85 L838 -85 L838 -145 L778 -145 L778 -85 Z" /><glyph glyph-name="U_52A9" unicode="&#x52a9;" d="M547 761 L607 761 L607 701 L547 701 L547 761 ZM85 684 L145 684 L145 624 L85 624 L85 684 ZM162 684 L222 684 L222 624 L162 624 L162 684 ZM239 684 L299 684 L299 624 L239 624 L239 684 ZM316 684 L376 684 L376 624 L316 624 L316 684 ZM547 684 L607 684 L607 624 L547 624 L547 684 ZM85 607 L145 607 L145 547 L85 547 L85 607 ZM316 607 L376 607 L376 547 L316 547 L316 607 ZM547 607 L607 607 L607 547 L547 547 L547 607 ZM85 530 L145 530 L145 470 L85 470 L85 530 ZM316 530 L376 530 L376 470 L316 470 L316 530 ZM470 530 L530 530 L530 470 L470 470 L470 530 ZM547 530 L607 530 L607 470 L547 470 L547 530 ZM624 530 L684 530 L684 470 L624 470 L624 530 ZM701 530 L761 530 L761 470 L701 470 L701 530 ZM778 530 L838 530 L838 470 L778 470 L778 530 ZM85 453 L145 453 L145 393 L85 393 L85 453 ZM162 453 L222 453 L222 393 L162 393 L162 453 ZM239 453 L299 453 L299 393 L239 393 L239 453 ZM316 453 L376 453 L376 393 L316 393 L316 453 ZM547 453 L607 453 L607 393 L547 393 L547 453 ZM778 453 L838 453 L838 393 L778 393 L778 453 ZM85 376 L145 376 L145 316 L85 316 L85 376 ZM316 376 L376 376 L376 316 L316 316 L316 376 ZM547 376 L607 376 L607 316 L547 316 L547 376 ZM778 376 L838 376 L838 316 L778 316 L778 376 ZM85 299 L145 299 L145 239 L85 239 L85 299 ZM162 299 L222 299 L222 239 L162 239 L162 299 ZM239 299 L299 299 L299 239 L239 239 L239 299 ZM316 299 L376 299 L376 239 L316 239 L316 299 ZM547 299 L607 299 L607 239 L547 239 L547 299 ZM778 299 L838 299 L838 239 L778 239 L778 299 ZM85 222 L145 222 L145 162 L85 162 L85 222 ZM316 222 L376 222 L376 162 L316 162 L316 222 ZM547 222 L607 222 L607 162 L547 162 L547 222 ZM778 222 L838 222 L838 162 L778 162 L778 222 ZM85 145 L145 145 L145 85 L85 85 L85 145 ZM316 145 L376 145 L376 85 L316 85 L316 145 ZM547 145 L607 145 L607 85 L547 85 L547 145 ZM778 145 L838 145 L838 85 L778 85 L778 145 ZM85 68 L145 68 L145 9 L85 9 L85 68 ZM239 68 L299 68 L299 9 L239 9 L239 68 ZM316 68 L376 68 L376 9 L316 9 L316 68 ZM393 68 L453 68 L453 9 L393 9 L393 68 ZM470 68 L530 68 L530 9 L470 9 L470 68 ZM778 68 L838 68 L838 9 L778 9 L778 68 ZM9 -9 L68 -9 L68 -68 L9 -68 L9 -9 ZM85 -9 L145 -9 L145 -68 L85 -68 L85 -9 ZM162 -9 L222 -9 L222 -68 L162 -68 L162 -9 ZM470 -9 L530 -9 L530 -68 L470 -68 L470 -9 ZM624 -9 L684 -9 L684 -68 L624 -68 L624 -9 ZM778 -9 L838 -9 L838 -68 L778 -68 L778 -9 ZM316 -85 L376 -85 L376 -145 L316 -145 L316 -85 ZM393 -85 L453 -85 L453 -145 L393 -145 L393 -85 ZM701 -85 L761 -85 L761 -145 L701 -145 L701 -85 Z" /><glyph glyph-name="U_52DF" unicode="&#x52df;" d="M316 761 L376 761 L376 701 L316 701 L316 761 ZM624 761 L684 761 L684 701 L624 701 L624 761 ZM85 684 L145 684 L145 624 L85 624 L85 684 ZM162 684 L222 684 L222 624 L162 624 L162 684 ZM239 684 L299 684 L299 624 L239 624 L239 684 ZM316 684 L376 684 L376 624 L316 624 L316 684 ZM393 684 L453 684 L453 624 L393 624 L393 684 ZM470 684 L530 684 L530 624 L470 624 L470 684 ZM547 684 L607 684 L607 624 L547 624 L547 684 ZM624 684 L684 684 L684 624 L624 624 L624 684 ZM701 684 L761 684 L761 624 L701 624 L701 684 ZM778 684 L838 684 L838 624 L778 624 L778 684 ZM855 684 L915 684 L915 624 L855 624 L855 684 ZM316 607 L376 607 L376 547 L316 547 L316 607 ZM624 607 L684 607 L684 547 L624 547 L624 607 ZM239 530 L299 530 L299 470 L239 470 L239 530 ZM316 530 L376 530 L376 470 L316 470 L316 530 ZM393 530 L453 530 L453 470 L393 470 L393 530 ZM470 530 L530 530 L530 470 L470 470 L470 530 ZM547 530 L607 530 L607 470 L547 470 L547 530 ZM624 530 L684 530 L684 470 L624 470 L624 530 ZM701 530 L761 530 L761 470 L701 470 L701 530 ZM239 453 L299 453 L299 393 L239 393 L239 453 ZM701 453 L761 453 L761 393 L701 393 L701 453 ZM239 376 L299 376 L299 316 L239 316 L239 376 ZM316 376 L376 376 L376 316 L316 316 L316 376 ZM393 376 L453 376 L453 316 L393 316 L393 376 ZM470 376 L530 376 L530 316 L470 316 L470 376 ZM547 376 L607 376 L607 316 L547 316 L547 376 ZM624 376 L684 376 L684 316 L624 316 L624 376 ZM701 376 L761 376 L761 316 L701 316 L701 376 ZM239 299 L299 299 L299 239 L239 239 L239 299 ZM701 299 L761 299 L761 239 L701 239 L701 299 ZM9 222 L68 222 L68 162 L9 162 L9 222 ZM85 222 L145 222 L145 162 L85 162 L85 222 ZM162 222 L222 222 L222 162 L162 162 L162 222 ZM239 222 L299 222 L299 162 L239 162 L239 222 ZM316 222 L376 222 L376 162 L316 162 L316 222 ZM393 222 L453 222 L453 162 L393 162 L393 222 ZM470 222 L530 222 L530 162 L470 162 L470 222 ZM547 222 L607 222 L607 162 L547 162 L547 222 ZM624 222 L684 222 L684 162 L624 162 L624 222 ZM701 222 L761 222 L761 162 L701 162 L701 222 ZM778 222 L838 222 L838 162 L778 162 L778 222 ZM855 222 L915 222 L915 162 L855 162 L855 222 ZM162 145 L222 145 L222 85 L162 85 L162 145 ZM393 145 L453 145 L453 85 L393 85 L393 145 ZM778 145 L838 145 L838 85 L778 85 L778 145 ZM85 68 L145 68 L145 9 L85 9 L85 68 ZM239 68 L299 68 L299 9 L239 9 L239 68 ZM316 68 L376 68 L376 9 L316 9 L316 68 ZM393 68 L453 68 L453 9 L393 9 L393 68 ZM470 68 L530 68 L530 9 L470 9 L470 68 ZM547 68 L607 68 L607 9 L547 9 L547 68 ZM624 68 L684 68 L684 9 L624 9 L624 68 ZM701 68 L761 68 L761 9 L701 9 L701 68 ZM855 68 L915 68 L915 9 L855 9 L855 68 ZM316 -9 L376 -9 L376 -68 L316 -68 L316 -9 ZM701 -9 L761 -9 L761 -68 L701 -68 L701 -9 ZM162 -85 L222 -85 L222 -145 L162 -145 L162 -85 ZM239 -85 L299 -85 L299 -145 L239 -145 L239 -85 ZM547 -85 L607 -85 L607 -145 L547 -145 L547 -85 ZM624 -85 L684 -85 L684 -145 L624 -145 L624 -85 Z" /><glyph glyph-name="U_5316" unicode="&#x5316;" d="M239 761 L299 761 L299 701 L239 701 L239 761 ZM470 761 L530 761 L530 701 L470 701 L470 761 ZM239 684 L299 684 L299 624 L239 624 L239 684 ZM470 684 L530 684 L530 624 L470 624 L470 684 ZM162 607 L222 607 L222 547 L162 547 L162 607 ZM470 607 L530 607 L530 547 L470 547 L470 607 ZM778 607 L838 607 L838 547 L778 547 L778 607 ZM162 530 L222 530 L222 470 L162 470 L162 530 ZM470 530 L530 530 L530 470 L470 470 L470 530 ZM701 530 L761 530 L761 470 L701 470 L701 530 ZM85 453 L145 453 L145 393 L85 393 L85 453 ZM162 453 L222 453 L222 393 L162 393 L162 453 ZM470 453 L530 453 L530 393 L470 393 L470 453 ZM624 453 L684 453 L684 393 L624 393 L624 453 ZM9 376 L68 376 L68 316 L9 316 L9 376 ZM162 376 L222 376 L222 316 L162 316 L162 376 ZM470 376 L530 376 L530 316 L470 316 L470 376 ZM547 376 L607 376 L607 316 L547 316 L547 376 ZM162 299 L222 299 L222 239 L162 239 L162 299 ZM470 299 L530 299 L530 239 L470 239 L470 299 ZM162 222 L222 222 L222 162 L162 162 L162 222 ZM316 222 L376 222 L376 162 L316 162 L316 222 ZM393 222 L453 222 L453 162 L393 162 L393 222 ZM470 222 L530 222 L530 162 L470 162 L470 222 ZM162 145 L222 145 L222 85 L162 85 L162 145 ZM470 145 L530 145 L530 85 L470 85 L470 145 ZM162 68 L222 68 L222 9 L162 9 L162 68 ZM470 68 L530 68 L530 9 L470 9 L470 68 ZM855 68 L915 68 L915 9 L855 9 L855 68 ZM162 -9 L222 -9 L222 -68 L162 -68 L162 -9 ZM470 -9 L530 -9 L530 -68 L470 -68 L470 -9 ZM855 -9 L915 -9 L915 -68 L855 -68 L855 -9 ZM162 -85 L222 -85 L222 -145 L162 -145 L162 -85 ZM547 -85 L607 -85 L607 -145 L547 -145 L547 -85 ZM624 -85 L684 -85 L684 -145 L624 -145 L624 -85 ZM701 -85 L761 -85 L761 -145 L701 -145 L701 -85 ZM778 -85 L838 -85 L838 -145 L778 -145 L778 -85 ZM855 -85 L915 -85 L915 -145 L855 -145 L855 -85 Z" /><glyph glyph-name="U_5317" unicode="&#x5317;" d="M316 761 L376 761 L376 701 L316 701 L316 761 ZM547 761 L607 761 L607 701 L547 701 L547 761 ZM316 684 L376 684 L376 624 L316 624 L316 684 ZM547 684 L607 684 L607 624 L547 624 L547 684 ZM316 607 L376 607 L376 547 L316 547 L316 607 ZM547 607 L607 607 L607 547 L547 547 L547 607 ZM855 607 L915 607 L915 547 L855 547 L855 607 ZM316 530 L376 530 L376 470 L316 470 L316 530 ZM547 530 L607 530 L607 470 L547 470 L547 530 ZM778 530 L838 530 L838 470 L778 470 L778 530 ZM9 453 L68 453 L68 393 L9 393 L9 453 ZM85 453 L145 453 L145 393 L85 393 L85 453 ZM162 453 L222 453 L222 393 L162 393 L162 453 ZM239 453 L299 453 L299 393 L239 393 L239 453 ZM316 453 L376 453 L376 393 L316 393 L316 453 ZM547 453 L607 453 L607 393 L547 393 L547 453 ZM701 453 L761 453 L761 393 L701 393 L701 453 ZM316 376 L376 376 L376 316 L316 316 L316 376 ZM547 376 L607 376 L607 316 L547 316 L547 376 ZM624 376 L684 376 L684 316 L624 316 L624 376 ZM316 299 L376 299 L376 239 L316 239 L316 299 ZM547 299 L607 299 L607 239 L547 239 L547 299 ZM316 222 L376 222 L376 162 L316 162 L316 222 ZM547 222 L607 222 L607 162 L547 162 L547 222 ZM239 145 L299 145 L299 85 L239 85 L239 145 ZM316 145 L376 145 L376 85 L316 85 L316 145 ZM547 145 L607 145 L607 85 L547 85 L547 145 ZM162 68 L222 68 L222 9 L162 9 L162 68 ZM316 68 L376 68 L376 9 L316 9 L316 68 ZM547 68 L607 68 L607 9 L547 9 L547 68 ZM855 68 L915 68 L915 9 L855 9 L855 68 ZM9 -9 L68 -9 L68 -68 L9 -68 L9 -9 ZM85 -9 L145 -9 L145 -68 L85 -68 L85 -9 ZM316 -9 L376 -9 L376 -68 L316 -68 L316 -9 ZM547 -9 L607 -9 L607 -68 L547 -68 L547 -9 ZM855 -9 L915 -9 L915 -68 L855 -68 L855 -9 ZM316 -85 L376 -85 L376 -145 L316 -145 L316 -85 ZM624 -85 L684 -85 L684 -145 L624 -145 L624 -85 ZM701 -85 L761 -85 L761 -145 L701 -145 L701 -85 ZM778 -85 L838 -85 L838 -145 L778 -145 L778 -85 ZM855 -85 L915 -85 L915 -145 L855 -145 L855 -85 Z" /><glyph glyph-name="U_533A" unicode="&#x533a;" d="M85 684 L145 684 L145 624 L85 624 L85 684 ZM162 684 L222 684 L222 624 L162 624 L162 684 ZM239 684 L299 684 L299 624 L239 624 L239 684 ZM316 684 L376 684 L376 624 L316 624 L316 684 ZM393 684 L453 684 L453 624 L393 624 L393 684 ZM470 684 L530 684 L530 624 L470 624 L470 684 ZM547 684 L607 684 L607 624 L547 624 L547 684 ZM624 684 L684 684 L684 624 L624 624 L624 684 ZM701 684 L761 684 L761 624 L701 624 L701 684 ZM778 684 L838 684 L838 624 L778 624 L778 684 ZM85 607 L145 607 L145 547 L85 547 L85 607 ZM85 530 L145 530 L145 470 L85 470 L85 530 ZM239 530 L299 530 L299 470 L239 470 L239 530 ZM624 530 L684 530 L684 470 L624 470 L624 530 ZM85 453 L145 453 L145 393 L85 393 L85 453 ZM316 453 L376 453 L376 393 L316 393 L316 453 ZM547 453 L607 453 L607 393 L547 393 L547 453 ZM85 376 L145 376 L145 316 L85 316 L85 376 ZM393 376 L453 376 L453 316 L393 316 L393 376 ZM470 376 L530 376 L530 316 L470 316 L470 376 ZM85 299 L145 299 L145 239 L85 239 L85 299 ZM470 299 L530 299 L530 239 L470 239 L470 299 ZM85 222 L145 222 L145 162 L85 162 L85 222 ZM393 222 L453 222 L453 162 L393 162 L393 222 ZM547 222 L607 222 L607 162 L547 162 L547 222 ZM85 145 L145 145 L145 85 L85 85 L85 145 ZM316 145 L376 145 L376 85 L316 85 L316 145 ZM624 145 L684 145 L684 85 L624 85 L624 145 ZM85 68 L145 68 L145 9 L85 9 L85 68 ZM239 68 L299 68 L299 9 L239 9 L239 68 ZM624 68 L684 68 L684 9 L624 9 L624 68 ZM85 -9 L145 -9 L145 -68 L85 -68 L85 -9 ZM85 -85 L145 -85 L145 -145 L85 -145 L85 -85 ZM162 -85 L222 -85 L222 -145 L162 -145 L162 -85 ZM239 -85 L299 -85 L299 -145 L239 -145 L239 -85 ZM316 -85 L376 -85 L376 -145 L316 -145 L316 -85 ZM393 -85 L453 -85 L453 -145 L393 -145 L393 -85 ZM470 -85 L530 -85 L530 -145 L470 -145 L470 -85 ZM547 -85 L607 -85 L607 -145 L547 -145 L547 -85 ZM624 -85 L684 -85 L684 -145 L624 -145 L624 -85 ZM701 -85 L761 -85 L761 -145 L701 -145 L701 -85 ZM778 -85 L838 -85 L838 -145 L778 -145 L778 -85 Z" /><glyph glyph-name="U_534F" unicode="&#x534f;" d="M162 761 L222 761 L222 701 L162 701 L162 761 ZM547 761 L607 761 L607 701 L547 701 L547 761 ZM162 684 L222 684 L222 624 L162 624 L162 684 ZM547 684 L607 684 L607 624 L547 624 L547 684 ZM162 607 L222 607 L222 547 L162 547 L162 607 ZM547 607 L607 607 L607 547 L547 547 L547 607 ZM162 530 L222 530 L222 470 L162 470 L162 530 ZM393 530 L453 530 L453 470 L393 470 L393 530 ZM470 530 L530 530 L530 470 L470 470 L470 530 ZM547 530 L607 530 L607 470 L547 470 L547 530 ZM624 530 L684 530 L684 470 L624 470 L624 530 ZM701 530 L761 530 L761 470 L701 470 L701 530 ZM9 453 L68 453 L68 393 L9 393 L9 453 ZM85 453 L145 453 L145 393 L85 393 L85 453 ZM162 453 L222 453 L222 393 L162 393 L162 453 ZM239 453 L299 453 L299 393 L239 393 L239 453 ZM316 453 L376 453 L376 393 L316 393 L316 453 ZM547 453 L607 453 L607 393 L547 393 L547 453 ZM701 453 L761 453 L761 393 L701 393 L701 453 ZM162 376 L222 376 L222 316 L162 316 L162 376 ZM393 376 L453 376 L453 316 L393 316 L393 376 ZM547 376 L607 376 L607 316 L547 316 L547 376 ZM701 376 L761 376 L761 316 L701 316 L701 376 ZM778 376 L838 376 L838 316 L778 316 L778 376 ZM162 299 L222 299 L222 239 L162 239 L162 299 ZM393 299 L453 299 L453 239 L393 239 L393 299 ZM547 299 L607 299 L607 239 L547 239 L547 299 ZM701 299 L761 299 L761 239 L701 239 L701 299 ZM855 299 L915 299 L915 239 L855 239 L855 299 ZM162 222 L222 222 L222 162 L162 162 L162 222 ZM316 222 L376 222 L376 162 L316 162 L316 222 ZM547 222 L607 222 L607 162 L547 162 L547 222 ZM701 222 L761 222 L761 162 L701 162 L701 222 ZM855 222 L915 222 L915 162 L855 162 L855 222 ZM162 145 L222 145 L222 85 L162 85 L162 145 ZM470 145 L530 145 L530 85 L470 85 L470 145 ZM701 145 L761 145 L761 85 L701 85 L701 145 ZM162 68 L222 68 L222 9 L162 9 L162 68 ZM470 68 L530 68 L530 9 L470 9 L470 68 ZM701 68 L761 68 L761 9 L701 9 L701 68 ZM162 -9 L222 -9 L222 -68 L162 -68 L162 -9 ZM393 -9 L453 -9 L453 -68 L393 -68 L393 -9 ZM701 -9 L761 -9 L761 -68 L701 -68 L701 -9 ZM162 -85 L222 -85 L222 -145 L162 -145 L162 -85 ZM316 -85 L376 -85 L376 -145 L316 -145 L316 -85 ZM547 -85 L607 -85 L607 -145 L547 -145 L547 -85 ZM624 -85 L684 -85 L684 -145 L624 -145 L624 -85 Z" /><glyph glyph-name="U_5361" unicode="&#x5361;" d="M393 761 L453 761 L453 701 L393 701 L393 761 ZM393 684 L453 684 L453 624 L393 624 L393 684 ZM470 684 L530 684 L530 624 L470 624 L470 684 ZM547 684 L607 684 L607 624 L547 624 L547 684 ZM624 684 L684 684 L684 624 L624 624 L624 684 ZM701 684 L761 684 L761 624 L701 624 L701 684 ZM393 607 L453 607 L453 547 L393 547 L393 607 ZM393 530 L453 530 L453 470 L393 470 L393 530 ZM9 453 L68 453 L68 393 L9 393 L9 453 ZM85 453 L145 453 L145 393 L85 393 L85 453 ZM162 453 L222 453 L222 393 L162 393 L162 453 ZM239 453 L299 453 L299 393 L239 393 L239 453 ZM316 453 L376 453 L376 393 L316 393 L316 453 ZM393 453 L453 453 L453 393 L393 393 L393 453 ZM470 453 L530 453 L530 393 L470 393 L470 453 ZM547 453 L607 453 L607 393 L547 393 L547 453 ZM624 453 L684 453 L684 393 L624 393 L624 453 ZM701 453 L761 453 L761 393 L701 393 L701 453 ZM778 453 L838 453 L838 393 L778 393 L778 453 ZM855 453 L915 453 L915 393 L855 393 L855 453 ZM393 376 L453 376 L453 316 L393 316 L393 376 ZM393 299 L453 299 L453 239 L393 239 L393 299 ZM547 299 L607 299 L607 239 L547 239 L547 299 ZM393 222 L453 222 L453 162 L393 162 L393 222 ZM624 222 L684 222 L684 162 L624 162 L624 222 ZM393 145 L453 145 L453 85 L393 85 L393 145 ZM701 145 L761 145 L761 85 L701 85 L701 145 ZM393 68 L453 68 L453 9 L393 9 L393 68 ZM701 68 L761 68 L761 9 L701 9 L701 68 ZM393 -9 L453 -9 L453 -68 L393 -68 L393 -9 ZM393 -85 L453 -85 L453 -145 L393 -145 L393 -85 Z" /><glyph glyph-name="U_5371" unicode="&#x5371;" d="M239 761 L299 761 L299 701 L239 701 L239 761 ZM239 684 L299 684 L299 624 L239 624 L239 684 ZM316 684 L376 684 L376 624 L316 624 L316 684 ZM393 684 L453 684 L453 624 L393 624 L393 684 ZM470 684 L530 684 L530 624 L470 624 L470 684 ZM547 684 L607 684 L607 624 L547 624 L547 684 ZM624 684 L684 684 L684 624 L624 624 L624 684 ZM162 607 L222 607 L222 547 L162 547 L162 607 ZM547 607 L607 607 L607 547 L547 547 L547 607 ZM85 530 L145 530 L145 470 L85 470 L85 530 ZM162 530 L222 530 L222 470 L162 470 L162 530 ZM239 530 L299 530 L299 470 L239 470 L239 530 ZM316 530 L376 530 L376 470 L316 470 L316 530 ZM393 530 L453 530 L453 470 L393 470 L393 530 ZM470 530 L530 530 L530 470 L470 470 L470 530 ZM547 530 L607 530 L607 470 L547 470 L547 530 ZM624 530 L684 530 L684 470 L624 470 L624 530 ZM701 530 L761 530 L761 470 L701 470 L701 530 ZM778 530 L838 530 L838 470 L778 470 L778 530 ZM855 530 L915 530 L915 470 L855 470 L855 530 ZM162 453 L222 453 L222 393 L162 393 L162 453 ZM162 376 L222 376 L222 316 L162 316 L162 376 ZM393 376 L453 376 L453 316 L393 316 L393 376 ZM470 376 L530 376 L530 316 L470 316 L470 376 ZM547 376 L607 376 L607 316 L547 316 L547 376 ZM624 376 L684 376 L684 316 L624 316 L624 376 ZM701 376 L761 376 L761 316 L701 316 L701 376 ZM162 299 L222 299 L222 239 L162 239 L162 299 ZM393 299 L453 299 L453 239 L393 239 L393 299 ZM701 299 L761 299 L761 239 L701 239 L701 299 ZM162 222 L222 222 L222 162 L162 162 L162 222 ZM393 222 L453 222 L453 162 L393 162 L393 222 ZM701 222 L761 222 L761 162 L701 162 L701 222 ZM162 145 L222 145 L222 85 L162 85 L162 145 ZM393 145 L453 145 L453 85 L393 85 L393 145 ZM624 145 L684 145 L684 85 L624 85 L624 145 ZM701 145 L761 145 L761 85 L701 85 L701 145 ZM162 68 L222 68 L222 9 L162 9 L162 68 ZM393 68 L453 68 L453 9 L393 9 L393 68 ZM855 68 L915 68 L915 9 L855 9 L855 68 ZM85 -9 L145 -9 L145 -68 L85 -68 L85 -9 ZM393 -9 L453 -9 L453 -68 L393 -68 L393 -9 ZM855 -9 L915 -9 L915 -68 L855 -68 L855 -9 ZM9 -85 L68 -85 L68 -145 L9 -145 L9 -85 ZM470 -85 L530 -85 L530 -145 L470 -145 L470 -85 ZM547 -85 L607 -85 L607 -145 L547 -145 L547 -85 ZM624 -85 L684 -85 L684 -145 L624 -145 L624 -85 ZM701 -85 L761 -85 L761 -145 L701 -145 L701 -85 ZM778 -85 L838 -85 L838 -145 L778 -145 L778 -85 ZM855 -85 L915 -85 L915 -145 L855 -145 L855 -85 Z" /><glyph glyph-name="U_5373" unicode="&#x5373;" d="M85 761 L145 761 L145 701 L85 701 L85 761 ZM162 761 L222 761 L222 701 L162 701 L162 761 ZM239 761 L299 761 L299 701 L239 701 L239 761 ZM316 761 L376 761 L376 701 L316 701 L316 761 ZM393 761 L453 761 L453 701 L393 701 L393 761 ZM547 761 L607 761 L607 701 L547 701 L547 761 ZM624 761 L684 761 L684 701 L624 701 L624 761 ZM701 761 L761 761 L761 701 L701 701 L701 761 ZM778 761 L838 761 L838 701 L778 701 L778 761 ZM855 761 L915 761 L915 701 L855 701 L855 761 ZM85 684 L145 684 L145 624 L85 624 L85 684 ZM393 684 L453 684 L453 624 L393 624 L393 684 ZM547 684 L607 684 L607 624 L547 624 L547 684 ZM855 684 L915 684 L915 624 L855 624 L855 684 ZM85 607 L145 607 L145 547 L85 547 L85 607 ZM162 607 L222 607 L222 547 L162 547 L162 607 ZM239 607 L299 607 L299 547 L239 547 L239 607 ZM316 607 L376 607 L376 547 L316 547 L316 607 ZM393 607 L453 607 L453 547 L393 547 L393 607 ZM547 607 L607 607 L607 547 L547 547 L547 607 ZM855 607 L915 607 L915 547 L855 547 L855 607 ZM85 530 L145 530 L145 470 L85 470 L85 530 ZM393 530 L453 530 L453 470 L393 470 L393 530 ZM547 530 L607 530 L607 470 L547 470 L547 530 ZM855 530 L915 530 L915 470 L855 470 L855 530 ZM85 453 L145 453 L145 393 L85 393 L85 453 ZM162 453 L222 453 L222 393 L162 393 L162 453 ZM239 453 L299 453 L299 393 L239 393 L239 453 ZM316 453 L376 453 L376 393 L316 393 L316 453 ZM393 453 L453 453 L453 393 L393 393 L393 453 ZM547 453 L607 453 L607 393 L547 393 L547 453 ZM855 453 L915 453 L915 393 L855 393 L855 453 ZM85 376 L145 376 L145 316 L85 316 L85 376 ZM393 376 L453 376 L453 316 L393 316 L393 376 ZM547 376 L607 376 L607 316 L547 316 L547 376 ZM855 376 L915 376 L915 316 L855 316 L855 376 ZM85 299 L145 299 L145 239 L85 239 L85 299 ZM239 299 L299 299 L299 239 L239 239 L239 299 ZM547 299 L607 299 L607 239 L547 239 L547 299 ZM855 299 L915 299 L915 239 L855 239 L855 299 ZM85 222 L145 222 L145 162 L85 162 L85 222 ZM316 222 L376 222 L376 162 L316 162 L316 222 ZM547 222 L607 222 L607 162 L547 162 L547 222 ZM701 222 L761 222 L761 162 L701 162 L701 222 ZM855 222 L915 222 L915 162 L855 162 L855 222 ZM85 145 L145 145 L145 85 L85 85 L85 145 ZM239 145 L299 145 L299 85 L239 85 L239 145 ZM316 145 L376 145 L376 85 L316 85 L316 145 ZM393 145 L453 145 L453 85 L393 85 L393 145 ZM547 145 L607 145 L607 85 L547 85 L547 145 ZM778 145 L838 145 L838 85 L778 85 L778 145 ZM85 68 L145 68 L145 9 L85 9 L85 68 ZM162 68 L222 68 L222 9 L162 9 L162 68 ZM393 68 L453 68 L453 9 L393 9 L393 68 ZM547 68 L607 68 L607 9 L547 9 L547 68 ZM85 -9 L145 -9 L145 -68 L85 -68 L85 -9 ZM547 -9 L607 -9 L607 -68 L547 -68 L547 -9 ZM547 -85 L607 -85 L607 -145 L547 -145 L547 -85 Z" /><glyph glyph-name="U_5374" unicode="&#x5374;" d="M239 761 L299 761 L299 701 L239 701 L239 761 ZM239 684 L299 684 L299 624 L239 624 L239 684 ZM547 684 L607 684 L607 624 L547 624 L547 684 ZM624 684 L684 684 L684 624 L624 624 L624 684 ZM701 684 L761 684 L761 624 L701 624 L701 684 ZM778 684 L838 684 L838 624 L778 624 L778 684 ZM855 684 L915 684 L915 624 L855 624 L855 684 ZM85 607 L145 607 L145 547 L85 547 L85 607 ZM162 607 L222 607 L222 547 L162 547 L162 607 ZM239 607 L299 607 L299 547 L239 547 L239 607 ZM316 607 L376 607 L376 547 L316 547 L316 607 ZM393 607 L453 607 L453 547 L393 547 L393 607 ZM547 607 L607 607 L607 547 L547 547 L547 607 ZM855 607 L915 607 L915 547 L855 547 L855 607 ZM239 530 L299 530 L299 470 L239 470 L239 530 ZM547 530 L607 530 L607 470 L547 470 L547 530 ZM855 530 L915 530 L915 470 L855 470 L855 530 ZM239 453 L299 453 L299 393 L239 393 L239 453 ZM547 453 L607 453 L607 393 L547 393 L547 453 ZM855 453 L915 453 L915 393 L855 393 L855 453 ZM9 376 L68 376 L68 316 L9 316 L9 376 ZM85 376 L145 376 L145 316 L85 316 L85 376 ZM162 376 L222 376 L222 316 L162 316 L162 376 ZM239 376 L299 376 L299 316 L239 316 L239 376 ZM316 376 L376 376 L376 316 L316 316 L316 376 ZM393 376 L453 376 L453 316 L393 316 L393 376 ZM470 376 L530 376 L530 316 L470 316 L470 376 ZM547 376 L607 376 L607 316 L547 316 L547 376 ZM855 376 L915 376 L915 316 L855 316 L855 376 ZM239 299 L299 299 L299 239 L239 239 L239 299 ZM547 299 L607 299 L607 239 L547 239 L547 299 ZM855 299 L915 299 L915 239 L855 239 L855 299 ZM162 222 L222 222 L222 162 L162 162 L162 222 ZM547 222 L607 222 L607 162 L547 162 L547 222 ZM855 222 L915 222 L915 162 L855 162 L855 222 ZM162 145 L222 145 L222 85 L162 85 L162 145 ZM316 145 L376 145 L376 85 L316 85 L316 145 ZM547 145 L607 145 L607 85 L547 85 L547 145 ZM701 145 L761 145 L761 85 L701 85 L701 145 ZM855 145 L915 145 L915 85 L855 85 L855 145 ZM85 68 L145 68 L145 9 L85 9 L85 68 ZM316 68 L376 68 L376 9 L316 9 L316 68 ZM393 68 L453 68 L453 9 L393 9 L393 68 ZM547 68 L607 68 L607 9 L547 9 L547 68 ZM778 68 L838 68 L838 9 L778 9 L778 68 ZM9 -9 L68 -9 L68 -68 L9 -68 L9 -9 ZM85 -9 L145 -9 L145 -68 L85 -68 L85 -9 ZM162 -9 L222 -9 L222 -68 L162 -68 L162 -9 ZM239 -9 L299 -9 L299 -68 L239 -68 L239 -9 ZM393 -9 L453 -9 L453 -68 L393 -68 L393 -9 ZM547 -9 L607 -9 L607 -68 L547 -68 L547 -9 ZM547 -85 L607 -85 L607 -145 L547 -145 L547 -85 Z" /><glyph glyph-name="U_53C2" unicode="&#x53c2;" d="M316 761 L376 761 L376 701 L316 701 L316 761 ZM239 684 L299 684 L299 624 L239 624 L239 684 ZM624 684 L684 684 L684 624 L624 624 L624 684 ZM162 607 L222 607 L222 547 L162 547 L162 607 ZM239 607 L299 607 L299 547 L239 547 L239 607 ZM316 607 L376 607 L376 547 L316 547 L316 607 ZM393 607 L453 607 L453 547 L393 547 L393 607 ZM470 607 L530 607 L530 547 L470 547 L470 607 ZM547 607 L607 607 L607 547 L547 547 L547 607 ZM624 607 L684 607 L684 547 L624 547 L624 607 ZM701 607 L761 607 L761 547 L701 547 L701 607 ZM393 530 L453 530 L453 470 L393 470 L393 530 ZM9 453 L68 453 L68 393 L9 393 L9 453 ZM85 453 L145 453 L145 393 L85 393 L85 453 ZM162 453 L222 453 L222 393 L162 393 L162 453 ZM239 453 L299 453 L299 393 L239 393 L239 453 ZM316 453 L376 453 L376 393 L316 393 L316 453 ZM393 453 L453 453 L453 393 L393 393 L393 453 ZM470 453 L530 453 L530 393 L470 393 L470 453 ZM547 453 L607 453 L607 393 L547 393 L547 453 ZM624 453 L684 453 L684 393 L624 393 L624 453 ZM701 453 L761 453 L761 393 L701 393 L701 453 ZM778 453 L838 453 L838 393 L778 393 L778 453 ZM855 453 L915 453 L915 393 L855 393 L855 453 ZM239 376 L299 376 L299 316 L239 316 L239 376 ZM624 376 L684 376 L684 316 L624 316 L624 376 ZM162 299 L222 299 L222 239 L162 239 L162 299 ZM393 299 L453 299 L453 239 L393 239 L393 299 ZM470 299 L530 299 L530 239 L470 239 L470 299 ZM701 299 L761 299 L761 239 L701 239 L701 299 ZM9 222 L68 222 L68 162 L9 162 L9 222 ZM85 222 L145 222 L145 162 L85 162 L85 222 ZM239 222 L299 222 L299 162 L239 162 L239 222 ZM316 222 L376 222 L376 162 L316 162 L316 222 ZM778 222 L838 222 L838 162 L778 162 L778 222 ZM855 222 L915 222 L915 162 L855 162 L855 222 ZM470 145 L530 145 L530 85 L470 85 L470 145 ZM547 145 L607 145 L607 85 L547 85 L547 145 ZM239 68 L299 68 L299 9 L239 9 L239 68 ZM316 68 L376 68 L376 9 L316 9 L316 68 ZM393 68 L453 68 L453 9 L393 9 L393 68 ZM701 68 L761 68 L761 9 L701 9 L701 68 ZM778 68 L838 68 L838 9 L778 9 L778 68 ZM547 -9 L607 -9 L607 -68 L547 -68 L547 -9 ZM624 -9 L684 -9 L684 -68 L624 -68 L624 -9 ZM162 -85 L222 -85 L222 -145 L162 -145 L162 -85 ZM239 -85 L299 -85 L299 -145 L239 -145 L239 -85 ZM316 -85 L376 -85 L376 -145 L316 -145 L316 -85 ZM393 -85 L453 -85 L453 -145 L393 -145 L393 -85 ZM470 -85 L530 -85 L530 -145 L470 -145 L470 -85 Z" /><glyph glyph-name="U_53CB" unicode="&#x53cb;" d="M393 761 L453 761 L453 701 L393 701 L393 761 ZM393 684 L453 684 L453 624 L393 624 L393 684 ZM9 607 L68 607 L68 547 L9 547 L9 607 ZM85 607 L145 607 L145 547 L85 547 L85 607 ZM162 607 L222 607 L222 547 L162 547 L162 607 ZM239 607 L299 607 L299 547 L239 547 L239 607 ZM316 607 L376 607 L376 547 L316 547 L316 607 ZM393 607 L453 607 L453 547 L393 547 L393 607 ZM470 607 L530 607 L530 547 L470 547 L470 607 ZM547 607 L607 607 L607 547 L547 547 L547 607 ZM624 607 L684 607 L684 547 L624 547 L624 607 ZM701 607 L761 607 L761 547 L701 547 L701 607 ZM778 607 L838 607 L838 547 L778 547 L778 607 ZM855 607 L915 607 L915 547 L855 547 L855 607 ZM393 530 L453 530 L453 470 L393 470 L393 530 ZM393 453 L453 453 L453 393 L393 393 L393 453 ZM393 376 L453 376 L453 316 L393 316 L393 376 ZM470 376 L530 376 L530 316 L470 316 L470 376 ZM547 376 L607 376 L607 316 L547 316 L547 376 ZM624 376 L684 376 L684 316 L624 316 L624 376 ZM701 376 L761 376 L761 316 L701 316 L701 376 ZM316 299 L376 299 L376 239 L316 239 L316 299 ZM701 299 L761 299 L761 239 L701 239 L701 299 ZM316 222 L376 222 L376 162 L316 162 L316 222 ZM470 222 L530 222 L530 162 L470 162 L470 222 ZM701 222 L761 222 L761 162 L701 162 L701 222 ZM239 145 L299 145 L299 85 L239 85 L239 145 ZM470 145 L530 145 L530 85 L470 85 L470 145 ZM624 145 L684 145 L684 85 L624 85 L624 145 ZM162 68 L222 68 L222 9 L162 9 L162 68 ZM547 68 L607 68 L607 9 L547 9 L547 68 ZM85 -9 L145 -9 L145 -68 L85 -68 L85 -9 ZM470 -9 L530 -9 L530 -68 L470 -68 L470 -9 ZM624 -9 L684 -9 L684 -68 L624 -68 L624 -9 ZM701 -9 L761 -9 L761 -68 L701 -68 L701 -9 ZM239 -85 L299 -85 L299 -145 L239 -145 L239 -85 ZM316 -85 L376 -85 L376 -145 L316 -145 L316 -85 ZM393 -85 L453 -85 L453 -145 L393 -145 L393 -85 ZM778 -85 L838 -85 L838 -145 L778 -145 L778 -85 ZM855 -85 L915 -85 L915 -145 L855 -145 L855 -85 Z" /><glyph glyph-name="U_53D1" unicode="&#x53d1;" d="M162 761 L222 761 L222 701 L162 701 L162 761 ZM393 761 L453 761 L453 701 L393 701 L393 761 ZM624 761 L684 761 L684 701 L624 701 L624 761 ZM162 684 L222 684 L222 624 L162 624 L162 684 ZM393 684 L453 684 L453 624 L393 624 L393 684 ZM701 684 L761 684 L761 624 L701 624 L701 684 ZM85 607 L145 607 L145 547 L85 547 L85 607 ZM393 607 L453 607 L453 547 L393 547 L393 607 ZM85 530 L145 530 L145 470 L85 470 L85 530 ZM162 530 L222 530 L222 470 L162 470 L162 530 ZM239 530 L299 530 L299 470 L239 470 L239 530 ZM316 530 L376 530 L376 470 L316 470 L316 530 ZM393 530 L453 530 L453 470 L393 470 L393 530 ZM470 530 L530 530 L530 470 L470 470 L470 530 ZM547 530 L607 530 L607 470 L547 470 L547 530 ZM624 530 L684 530 L684 470 L624 470 L624 530 ZM701 530 L761 530 L761 470 L701 470 L701 530 ZM778 530 L838 530 L838 470 L778 470 L778 530 ZM316 453 L376 453 L376 393 L316 393 L316 453 ZM316 376 L376 376 L376 316 L316 316 L316 376 ZM393 376 L453 376 L453 316 L393 316 L393 376 ZM470 376 L530 376 L530 316 L470 316 L470 376 ZM547 376 L607 376 L607 316 L547 316 L547 376 ZM624 376 L684 376 L684 316 L624 316 L624 376 ZM316 299 L376 299 L376 239 L316 239 L316 299 ZM624 299 L684 299 L684 239 L624 239 L624 299 ZM239 222 L299 222 L299 162 L239 162 L239 222 ZM393 222 L453 222 L453 162 L393 162 L393 222 ZM624 222 L684 222 L684 162 L624 162 L624 222 ZM239 145 L299 145 L299 85 L239 85 L239 145 ZM393 145 L453 145 L453 85 L393 85 L393 145 ZM547 145 L607 145 L607 85 L547 85 L547 145 ZM162 68 L222 68 L222 9 L162 9 L162 68 ZM470 68 L530 68 L530 9 L470 9 L470 68 ZM85 -9 L145 -9 L145 -68 L85 -68 L85 -9 ZM393 -9 L453 -9 L453 -68 L393 -68 L393 -9 ZM547 -9 L607 -9 L607 -68 L547 -68 L547 -9 ZM624 -9 L684 -9 L684 -68 L624 -68 L624 -9 ZM9 -85 L68 -85 L68 -145 L9 -145 L9 -85 ZM239 -85 L299 -85 L299 -145 L239 -145 L239 -85 ZM316 -85 L376 -85 L376 -145 L316 -145 L316 -85 ZM701 -85 L761 -85 L761 -145 L701 -145 L701 -85 ZM778 -85 L838 -85 L838 -145 L778 -145 L778 -85 Z" /><glyph glyph-name="U_53E6" unicode="&#x53e6;" d="M162 761 L222 761 L222 701 L162 701 L162 761 ZM239 761 L299 761 L299 701 L239 701 L239 761 ZM316 761 L376 761 L376 701 L316 701 L316 761 ZM393 761 L453 761 L453 701 L393 701 L393 761 ZM470 761 L530 761 L530 701 L470 701 L470 761 ZM547 761 L607 761 L607 701 L547 701 L547 761 ZM624 761 L684 761 L684 701 L624 701 L624 761 ZM701 761 L761 761 L761 701 L701 701 L701 761 ZM162 684 L222 684 L222 624 L162 624 L162 684 ZM701 684 L761 684 L761 624 L701 624 L701 684 ZM162 607 L222 607 L222 547 L162 547 L162 607 ZM701 607 L761 607 L761 547 L701 547 L701 607 ZM162 530 L222 530 L222 470 L162 470 L162 530 ZM239 530 L299 530 L299 470 L239 470 L239 530 ZM316 530 L376 530 L376 470 L316 470 L316 530 ZM393 530 L453 530 L453 470 L393 470 L393 530 ZM470 530 L530 530 L530 470 L470 470 L470 530 ZM547 530 L607 530 L607 470 L547 470 L547 530 ZM624 530 L684 530 L684 470 L624 470 L624 530 ZM701 530 L761 530 L761 470 L701 470 L701 530 ZM162 453 L222 453 L222 393 L162 393 L162 453 ZM393 453 L453 453 L453 393 L393 393 L393 453 ZM701 453 L761 453 L761 393 L701 393 L701 453 ZM393 376 L453 376 L453 316 L393 316 L393 376 ZM85 299 L145 299 L145 239 L85 239 L85 299 ZM162 299 L222 299 L222 239 L162 239 L162 299 ZM239 299 L299 299 L299 239 L239 239 L239 299 ZM316 299 L376 299 L376 239 L316 239 L316 299 ZM393 299 L453 299 L453 239 L393 239 L393 299 ZM470 299 L530 299 L530 239 L470 239 L470 299 ZM547 299 L607 299 L607 239 L547 239 L547 299 ZM624 299 L684 299 L684 239 L624 239 L624 299 ZM701 299 L761 299 L761 239 L701 239 L701 299 ZM778 299 L838 299 L838 239 L778 239 L778 299 ZM393 222 L453 222 L453 162 L393 162 L393 222 ZM778 222 L838 222 L838 162 L778 162 L778 222 ZM316 145 L376 145 L376 85 L316 85 L316 145 ZM778 145 L838 145 L838 85 L778 85 L778 145 ZM316 68 L376 68 L376 9 L316 9 L316 68 ZM778 68 L838 68 L838 9 L778 9 L778 68 ZM239 -9 L299 -9 L299 -68 L239 -68 L239 -9 ZM547 -9 L607 -9 L607 -68 L547 -68 L547 -9 ZM778 -9 L838 -9 L838 -68 L778 -68 L778 -9 ZM85 -85 L145 -85 L145 -145 L85 -145 L85 -85 ZM162 -85 L222 -85 L222 -145 L162 -145 L162 -85 ZM624 -85 L684 -85 L684 -145 L624 -145 L624 -85 ZM701 -85 L761 -85 L761 -145 L701 -145 L701 -85 Z" /><glyph glyph-name="U_53EF" unicode="&#x53ef;" d="M778 761 L838 761 L838 701 L778 701 L778 761 ZM9 684 L68 684 L68 624 L9 624 L9 684 ZM85 684 L145 684 L145 624 L85 624 L85 684 ZM162 684 L222 684 L222 624 L162 624 L162 684 ZM239 684 L299 684 L299 624 L239 624 L239 684 ZM316 684 L376 684 L376 624 L316 624 L316 684 ZM393 684 L453 684 L453 624 L393 624 L393 684 ZM470 684 L530 684 L530 624 L470 624 L470 684 ZM547 684 L607 684 L607 624 L547 624 L547 684 ZM624 684 L684 684 L684 624 L624 624 L624 684 ZM701 684 L761 684 L761 624 L701 624 L701 684 ZM778 684 L838 684 L838 624 L778 624 L778 684 ZM855 684 L915 684 L915 624 L855 624 L855 684 ZM701 607 L761 607 L761 547 L701 547 L701 607 ZM162 530 L222 530 L222 470 L162 470 L162 530 ZM239 530 L299 530 L299 470 L239 470 L239 530 ZM316 530 L376 530 L376 470 L316 470 L316 530 ZM393 530 L453 530 L453 470 L393 470 L393 530 ZM470 530 L530 530 L530 470 L470 470 L470 530 ZM701 530 L761 530 L761 470 L701 470 L701 530 ZM162 453 L222 453 L222 393 L162 393 L162 453 ZM470 453 L530 453 L530 393 L470 393 L470 453 ZM701 453 L761 453 L761 393 L701 393 L701 453 ZM162 376 L222 376 L222 316 L162 316 L162 376 ZM470 376 L530 376 L530 316 L470 316 L470 376 ZM701 376 L761 376 L761 316 L701 316 L701 376 ZM162 299 L222 299 L222 239 L162 239 L162 299 ZM470 299 L530 299 L530 239 L470 239 L470 299 ZM701 299 L761 299 L761 239 L701 239 L701 299 ZM162 222 L222 222 L222 162 L162 162 L162 222 ZM239 222 L299 222 L299 162 L239 162 L239 222 ZM316 222 L376 222 L376 162 L316 162 L316 222 ZM393 222 L453 222 L453 162 L393 162 L393 222 ZM470 222 L530 222 L530 162 L470 162 L470 222 ZM701 222 L761 222 L761 162 L701 162 L701 222 ZM162 145 L222 145 L222 85 L162 85 L162 145 ZM470 145 L530 145 L530 85 L470 85 L470 145 ZM701 145 L761 145 L761 85 L701 85 L701 145 ZM701 68 L761 68 L761 9 L701 9 L701 68 ZM547 -9 L607 -9 L607 -68 L547 -68 L547 -9 ZM701 -9 L761 -9 L761 -68 L701 -68 L701 -9 ZM624 -85 L684 -85 L684 -145 L624 -145 L624 -85 Z" /><glyph glyph-name="U_53F0" unicode="&#x53f0;" d="M393 761 L453 761 L453 701 L393 701 L393 761 ZM316 684 L376 684 L376 624 L316 624 L316 684 ZM239 607 L299 607 L299 547 L239 547 L239 607 ZM624 607 L684 607 L684 547 L624 547 L624 607 ZM162 530 L222 530 L222 470 L162 470 L162 530 ZM701 530 L761 530 L761 470 L701 470 L701 530 ZM85 453 L145 453 L145 393 L85 393 L85 453 ZM162 453 L222 453 L222 393 L162 393 L162 453 ZM239 453 L299 453 L299 393 L239 393 L239 453 ZM316 453 L376 453 L376 393 L316 393 L316 453 ZM393 453 L453 453 L453 393 L393 393 L393 453 ZM470 453 L530 453 L530 393 L470 393 L470 453 ZM547 453 L607 453 L607 393 L547 393 L547 453 ZM624 453 L684 453 L684 393 L624 393 L624 453 ZM701 453 L761 453 L761 393 L701 393 L701 453 ZM778 453 L838 453 L838 393 L778 393 L778 453 ZM778 376 L838 376 L838 316 L778 316 L778 376 ZM162 222 L222 222 L222 162 L162 162 L162 222 ZM239 222 L299 222 L299 162 L239 162 L239 222 ZM316 222 L376 222 L376 162 L316 162 L316 222 ZM393 222 L453 222 L453 162 L393 162 L393 222 ZM470 222 L530 222 L530 162 L470 162 L470 222 ZM547 222 L607 222 L607 162 L547 162 L547 222 ZM624 222 L684 222 L684 162 L624 162 L624 222 ZM701 222 L761 222 L761 162 L701 162 L701 222 ZM162 145 L222 145 L222 85 L162 85 L162 145 ZM701 145 L761 145 L761 85 L701 85 L701 145 ZM162 68 L222 68 L222 9 L162 9 L162 68 ZM701 68 L761 68 L761 9 L701 9 L701 68 ZM162 -9 L222 -9 L222 -68 L162 -68 L162 -9 ZM239 -9 L299 -9 L299 -68 L239 -68 L239 -9 ZM316 -9 L376 -9 L376 -68 L316 -68 L316 -9 ZM393 -9 L453 -9 L453 -68 L393 -68 L393 -9 ZM470 -9 L530 -9 L530 -68 L470 -68 L470 -9 ZM547 -9 L607 -9 L607 -68 L547 -68 L547 -9 ZM624 -9 L684 -9 L684 -68 L624 -68 L624 -9 ZM701 -9 L761 -9 L761 -68 L701 -68 L701 -9 ZM162 -85 L222 -85 L222 -145 L162 -145 L162 -85 ZM701 -85 L761 -85 L761 -145 L701 -145 L701 -85 Z" /></font>
</defs>
</svg>
